<svg width="200" height="70" viewBox="0 0 283 70" fill="none" xmlns="http://www.w3.org/2000/svg">
<path d="M59.2 25.8999C59.2 36.3381 50.6677 44.8 40.142 44.8C35.2531 44.8 30.7945 42.9739 27.4207 39.9731C32.8253 37.56 36.5877 32.1725 36.5877 25.9136C36.5877 19.6464 32.8159 14.2534 27.4 11.8449C30.7767 8.83309 35.2432 7 40.142 7C50.6677 7 59.2 15.4618 59.2 25.8999Z" fill="#91A88C"/>
<path d="M32.6466 10.8383C20.9812 2.07837 4.14681 9.15114 2.345 23.5698C1.50771 30.2709 4.33659 36.9058 9.76338 40.9696C21.4352 49.7217 38.2647 42.6366 40.0566 28.2166C40.8879 21.5241 38.0632 14.8997 32.6466 10.8381V10.8383ZM30.5339 13.6195C40.051 20.7556 38.2246 35.4524 27.2465 40.0741C22.1521 42.2191 16.2926 41.5002 11.8759 38.1881C2.35931 31.0519 4.18534 16.355 15.1633 11.7336C20.2578 9.58893 26.1174 10.3076 30.5339 13.6195Z" fill="#91A88C"/>
<path d="M80.8097 12.0827C83.4056 12.0827 85.6182 12.7523 87.4478 14.0922C89.2773 15.4324 90.5352 17.2085 91.222 19.4205V12.407H94.4608V37.9369H91.222V30.9237C90.5352 33.1379 89.2773 34.9147 87.4478 36.2546C85.6182 37.5948 83.4056 38.2647 80.8097 38.2647C78.4955 38.2647 76.4235 37.7347 74.5939 36.6751C72.7644 35.6157 71.3416 34.096 70.3251 32.1158C69.3087 30.1358 68.8 27.8211 68.8 25.1719C68.8 22.4921 69.3087 20.1622 70.3251 18.1821C71.3416 16.204 72.7566 14.6931 74.5707 13.6485C76.3846 12.6043 78.4642 12.0827 80.8097 12.0827ZM81.6538 14.9799C78.7767 14.9799 76.4701 15.8914 74.7335 17.7152C72.9992 19.5388 72.1319 22.0245 72.1319 25.1719C72.1319 28.3199 72.9992 30.8058 74.7335 32.6294C76.4701 34.4526 78.7767 35.3641 81.6538 35.3641C83.4675 35.3641 85.1015 34.9439 86.5546 34.1024C88.0093 33.2617 89.151 32.0692 89.9797 30.5262C90.808 28.9831 91.222 27.1987 91.222 25.1719C91.222 23.1456 90.808 21.3621 89.9797 19.8205C89.151 18.278 88.0093 17.0845 86.5546 16.242C85.1015 15.4005 83.4675 14.9799 81.6538 14.9799ZM115.288 12.0827C117.633 12.0827 119.705 12.6043 121.503 13.6485C123.302 14.6931 124.709 16.204 125.726 18.1821C126.742 20.1622 127.251 22.4921 127.251 25.1719C127.251 27.8211 126.742 30.1358 125.726 32.1158C124.709 34.096 123.293 35.6157 121.48 36.6751C119.666 37.7347 117.602 38.2647 115.288 38.2647C112.66 38.2647 110.44 37.5948 108.626 36.2546C106.812 34.9147 105.562 33.1379 104.875 30.9237V50H101.59V12.407H104.875V19.4205C105.562 17.2085 106.812 15.4324 108.626 14.0922C110.44 12.7523 112.66 12.0827 115.288 12.0827ZM114.397 14.9799C112.583 14.9799 110.948 15.4005 109.493 16.242C108.04 17.0845 106.907 18.278 106.094 19.8205C105.282 21.3621 104.875 23.1456 104.875 25.1719C104.875 27.1987 105.282 28.9831 106.094 30.5262C106.907 32.0692 108.04 33.2617 109.493 34.1024C110.948 34.9439 112.583 35.3641 114.397 35.3641C117.305 35.3641 119.619 34.4526 121.34 32.6294C123.059 30.8058 123.919 28.3199 123.919 25.1719C123.919 22.0245 123.059 19.5388 121.34 17.7152C119.619 15.8914 117.305 14.9799 114.397 14.9799ZM146.857 12.0827C149.203 12.0827 151.275 12.6043 153.073 13.6485C154.872 14.6931 156.28 16.204 157.296 18.1821C158.312 20.1622 158.821 22.4921 158.821 25.1719C158.821 27.8211 158.312 30.1358 157.296 32.1158C156.28 34.096 154.864 35.6157 153.05 36.6751C151.236 37.7347 149.172 38.2647 146.857 38.2647C144.23 38.2647 142.01 37.5948 140.197 36.2546C138.383 34.9147 137.132 33.1379 136.446 30.9237V50H133.16V12.407H136.446V19.4205C137.132 17.2085 138.383 15.4324 140.197 14.0922C142.01 12.7523 144.23 12.0827 146.857 12.0827ZM145.967 14.9799C144.154 14.9799 142.519 15.4005 141.064 16.242C139.611 17.0845 138.478 18.278 137.665 19.8205C136.852 21.3621 136.446 23.1456 136.446 25.1719C136.446 27.1987 136.852 28.9831 137.665 30.5262C138.478 32.0692 139.611 33.2617 141.064 34.1024C142.519 34.9439 144.154 35.3641 145.967 35.3641C148.875 35.3641 151.19 34.4526 152.91 32.6294C154.629 30.8058 155.489 28.3199 155.489 25.1719C155.489 22.0245 154.629 19.5388 152.91 17.7152C151.19 15.8914 148.875 14.9799 145.967 14.9799ZM195.175 12.0361H201.368L194.378 37.9369H187.059L181.478 19.0957L175.754 37.9369H168.438L161.494 12.0361H168.109L172.332 32.0463L178.099 12.0361H185.089L190.906 32.0463L195.175 12.0361ZM211.266 16.99C212.235 15.3388 213.516 14.0377 215.111 13.0861C216.707 12.1367 218.49 11.6623 220.459 11.6623V18.7214H218.536C213.689 18.7214 211.266 20.9655 211.266 25.4531V37.9369H204.652V12.0361H211.266V16.99ZM223.368 4.59914C223.368 3.53977 223.744 2.67539 224.495 2.00618C225.245 1.33565 226.231 1 227.448 1C228.669 1 229.654 1.33565 230.405 2.00618C231.156 2.67539 231.531 3.53977 231.531 4.59914C231.531 5.62804 231.156 6.47785 230.405 7.14895C229.654 7.81967 228.669 8.15531 227.448 8.15531C226.231 8.15531 225.245 7.81967 224.495 7.14895C223.744 6.47785 223.368 5.62804 223.368 4.59914ZM224.119 12.0361H230.734V37.9369H224.119V12.0361ZM248.044 32.2784H250.622V37.9369H247.151C244.242 37.9369 242.014 37.2362 240.466 35.8342C238.918 34.4303 238.144 32.0929 238.144 28.8209V17.599H234.533V12.0361H238.144V5.62898H244.758V12.0361H250.576V17.599H244.758V28.9136C244.758 30.1608 245.009 31.0341 245.509 31.5327C246.01 32.0298 246.855 32.2784 248.044 32.2784ZM279.8 24.0033C279.8 24.6585 279.723 25.407 279.567 26.248H260.521C260.614 28.5547 261.24 30.2537 262.398 31.3443C263.554 32.435 264.993 32.9804 266.714 32.9804C268.246 32.9804 269.52 32.6063 270.534 31.8578C271.551 31.1113 272.2 30.0993 272.481 28.8209H279.471C279.128 30.6288 278.394 32.2491 277.269 33.6823C276.141 35.1171 274.695 36.2395 272.929 37.0496C271.162 37.8596 269.2 38.2647 267.043 38.2647C264.509 38.2647 262.256 37.7273 260.285 36.6522C258.316 35.5769 256.785 34.0416 255.69 32.0463C254.594 30.051 254.046 27.6973 254.046 24.9864C254.046 22.2738 254.594 19.9127 255.69 17.9038C256.785 15.8926 258.316 14.3569 260.285 13.2979C262.256 12.2383 264.509 11.7085 267.043 11.7085C269.605 11.7085 271.849 12.2383 273.773 13.2979C275.696 14.3569 277.181 15.8144 278.229 17.6689C279.276 19.5229 279.8 21.6345 279.8 24.0033ZM273.139 23.351C273.234 21.2296 272.679 19.6233 271.475 18.5332C270.269 17.4422 268.792 16.8972 267.043 16.8972C265.259 16.8972 263.757 17.4422 262.538 18.5332C261.317 19.6233 260.645 21.2296 260.521 23.351H273.139Z" fill="#91A88C"/>
<path d="M21.6193 19.4783C21.5968 19.5346 21.3065 20.6834 20.9949 22.0464C20.6708 23.4091 20.1574 25.5603 19.8677 26.8326C19.3094 29.1641 18.9746 30.6958 18.9746 30.8983C18.9746 30.9544 19.3208 30.9999 19.7443 30.9999H20.5149L20.8604 29.4453C21.0616 28.601 21.5083 26.6636 21.865 25.1432C22.2223 23.6229 22.6571 21.7757 22.8248 21.0321C22.9921 20.2888 23.1596 19.6137 23.1931 19.5346C23.2266 19.4333 23.0366 19.3999 22.4562 19.3999C22.0209 19.3999 21.6414 19.4333 21.6193 19.4783ZM15.6265 24.3546L14.6 25.4812L14.9017 25.8416C15.0686 26.044 15.5268 26.551 15.917 26.9681L16.6314 27.7333H18.6626L17.7025 26.6861C17.1777 26.1236 16.7425 25.5824 16.7425 25.5152C16.7425 25.4362 17.1444 24.9298 17.6358 24.3888C18.1266 23.8375 18.5284 23.3637 18.5284 23.3076C18.5284 23.2623 18.1045 23.2287 17.5913 23.2287H16.6649L15.6265 24.3546ZM23.4381 23.2963C23.4381 23.3303 23.628 23.5437 23.8622 23.7804C24.7332 24.6589 25.3467 25.4026 25.313 25.5484C25.2911 25.6279 24.8666 26.1568 24.3534 26.7085L23.4274 27.7333H24.465L25.5028 27.7223L26.4509 26.6747C26.9761 26.0896 27.4 25.5709 27.4 25.5036C27.4 25.4475 26.9536 24.9181 26.3953 24.3214L25.3918 23.2287H24.4203C23.8734 23.2287 23.4381 23.2623 23.4381 23.2963Z" fill="#91A88C"/>
</svg>
