<svg width="200" height="70" viewBox="0 0 306 70" fill="none" xmlns="http://www.w3.org/2000/svg">
<g clip-path="url(#clip0)">
<path fill-rule="evenodd" clip-rule="evenodd" d="M0 4.84131V46.8279C0.0526862 46.8279 1.95793 46.8279 2.7468 46.882H14.7863C19.3842 46.882 23.293 45.8255 26.4627 43.8177C29.631 41.7587 32.0603 39.1713 33.6451 35.9489C35.2593 32.8326 36.0933 29.3712 36.0758 25.8617C36.0758 22.3701 35.2328 18.994 33.648 15.773C32.0631 12.552 29.6338 9.91057 26.4656 7.90423C23.2403 5.83807 19.3842 4.84131 14.7892 4.84131H0ZM20.9691 14.2952H5.96916V18.9429H20.9691C21.5854 18.9429 22.1765 18.6981 22.6123 18.2623C23.0481 17.8265 23.2929 17.2354 23.2929 16.619C23.2929 16.0027 23.0481 15.4116 22.6123 14.9758C22.1765 14.54 21.5854 14.2952 20.9691 14.2952ZM5.96916 32.6755H24.3495C24.6594 32.6678 24.9678 32.7223 25.2563 32.8356C25.5449 32.9489 25.8079 33.1188 26.0298 33.3352C26.2517 33.5517 26.4281 33.8104 26.5485 34.0961C26.6689 34.3818 26.7309 34.6887 26.7309 34.9987C26.7309 35.3087 26.6689 35.6156 26.5485 35.9013C26.4281 36.187 26.2517 36.4457 26.0298 36.6622C25.8079 36.8786 25.5449 37.0485 25.2563 37.1618C24.9678 37.2751 24.6594 37.3296 24.3495 37.3219H5.96916V32.6755ZM16.374 23.4851H5.96916V28.1328H16.374C16.9903 28.1328 17.5814 27.888 18.0172 27.4522C18.453 27.0164 18.6979 26.4253 18.6979 25.809C18.6979 25.1926 18.453 24.6015 18.0172 24.1657C17.5814 23.7299 16.9903 23.4851 16.374 23.4851Z" fill="#91A88C"/>
<path d="M74.3488 7.3999V39.4767H70.8583L70.7078 35.3654C69.8488 36.8159 68.6149 38.0046 67.1377 38.8048C65.6425 39.5756 63.9893 39.9848 62.3094 39.9999C58.9666 39.9999 56.2926 38.9535 54.1383 36.855C51.9841 34.7565 50.9489 31.926 50.9489 28.2622C50.9489 24.5983 51.9898 21.6864 54.1426 19.6637C56.2983 17.5694 58.9723 16.5974 62.3094 16.5974C64.0163 16.5848 65.7 16.9957 67.2115 17.7939C68.7736 18.6173 69.9608 19.6637 70.7021 21.1575V7.3999H74.3488ZM62.5381 19.8867C60.2347 19.8867 58.3787 20.6343 56.8919 22.0552C55.405 23.4762 54.6638 25.4947 54.6638 28.1121C54.6638 30.6538 55.4079 32.6737 56.8919 34.0932C58.3787 35.5884 60.31 36.2617 62.5381 36.2617C64.8414 36.2617 66.6975 35.5141 68.2581 33.9431C69.7435 32.4492 70.5601 30.435 70.5601 27.962C70.5601 25.569 69.8174 23.6263 68.2581 22.131C66.6236 20.7144 64.7676 19.8867 62.5381 19.8867V19.8867Z" fill="#91A88C"/>
<path d="M101.254 35.9543C100.142 37.3024 98.7317 38.2765 96.9524 38.9513C95.2254 39.6296 93.3906 39.9849 91.5378 39.9999C88.0528 39.9999 85.1577 38.9513 83.0097 36.7781C80.8618 34.6049 79.7488 31.7641 79.7488 28.1612C79.7488 24.7145 80.8603 21.9425 83.0097 19.6948C85.1591 17.4471 87.972 16.3999 91.3903 16.3999C95.0228 16.3999 97.9122 17.523 100.067 19.838C102.222 22.1531 103.033 25.3835 102.662 29.7299H83.6038C83.825 31.7512 84.6416 33.4001 86.1984 34.6736C87.6814 35.9486 89.5344 36.5474 91.7618 36.5474C93.1312 36.5535 94.4896 36.2988 95.7657 35.7968C97.0998 35.2724 98.1391 34.5991 98.8848 33.7009L101.254 35.9543ZM99.1074 26.5883C99.0337 24.4151 98.2908 22.7662 96.9566 21.5671C95.6225 20.3681 93.7666 19.7693 91.5421 19.7693C89.5387 19.7693 87.7594 20.3681 86.2778 21.5671C84.7962 22.7662 83.9029 24.4151 83.608 26.5123L99.1074 26.5883Z" fill="#91A88C"/>
<path d="M128.054 35.9543C126.941 37.3024 125.531 38.2765 123.751 38.9513C122.024 39.6297 120.19 39.985 118.338 39.9999C114.853 39.9999 111.958 38.9513 109.81 36.7781C107.662 34.6049 106.549 31.7641 106.549 28.1612C106.549 24.7145 107.662 21.9425 109.81 19.6948C111.958 17.4471 114.772 16.3999 118.189 16.3999C121.824 16.3999 124.711 17.523 126.867 19.838C129.023 22.1531 129.831 25.3835 129.463 29.7299H110.402C110.625 31.7512 111.442 33.4001 112.998 34.6736C114.481 35.9486 116.336 36.5474 118.56 36.5474C119.93 36.5536 121.289 36.299 122.565 35.7968C123.9 35.2724 124.937 34.5991 125.685 33.7009L128.054 35.9543ZM125.903 26.5883C125.828 24.4151 125.088 22.7662 123.751 21.5671C122.414 20.3681 120.562 19.7693 118.338 19.7693C116.336 19.7693 114.556 20.3681 113.073 21.5671C111.59 22.7662 110.7 24.4151 110.402 26.5123L125.903 26.5883Z" fill="#91A88C"/>
<path d="M134.634 17.0468H138.236L138.38 21.3597C139.252 19.8765 140.526 18.6656 142.058 17.8647C143.602 17.04 145.328 16.6057 147.082 16.6001C150.383 16.6741 153.087 17.7893 155.191 19.8718C157.291 22.0297 158.349 24.7837 158.349 28.2047C158.349 31.7012 157.297 34.5291 155.121 36.687C152.945 38.845 150.241 39.8862 146.788 39.8862C145.072 39.8883 143.378 39.5071 141.832 38.771C140.294 38.0381 139.032 36.8395 138.227 35.3485V50.0001H134.549V17.0468H134.634ZM152.431 34.2332C153.932 32.7453 154.683 30.8107 154.683 28.2816C154.683 25.8263 153.932 23.8164 152.431 22.4024C150.93 20.9885 149.052 20.2445 146.65 20.2445C144.247 20.2445 142.371 20.9899 140.87 22.5518C139.367 24.0397 138.691 25.9743 138.691 28.3555C138.691 30.6614 139.442 32.596 140.943 34.0839C142.446 35.6486 144.322 36.3912 146.65 36.4651C149.042 36.4651 150.92 35.7197 152.421 34.2332H152.431Z" fill="#91A88C"/>
<path d="M178.21 22.0228C176.564 20.5498 174.469 19.8866 171.851 19.8866C170.205 19.8866 168.859 20.1077 167.812 20.6963C166.765 21.2849 166.239 22.096 166.239 23.1282C166.239 24.8955 168.184 25.9995 171.849 26.4417C172.896 26.5896 173.794 26.6628 174.467 26.8093C175.141 26.9557 175.965 27.1782 176.936 27.4739C177.907 27.7696 178.652 28.1358 179.254 28.6512C179.853 29.0919 180.302 29.7566 180.751 30.4931C181.2 31.3014 181.349 32.1829 181.349 33.2912C181.349 35.4274 180.375 37.0482 178.58 38.2198C176.786 39.3915 174.539 39.9998 171.846 39.9998C167.357 39.9998 163.991 38.601 161.749 35.8034L163.917 33.225C165.787 35.5077 168.48 36.6863 171.995 36.6863C173.361 36.7039 174.715 36.4276 175.962 35.8766C177.083 35.3612 177.681 34.4773 177.757 33.225C177.757 32.1196 177.308 31.3084 176.184 30.7944C175.06 30.2804 173.639 29.9101 171.62 29.6904C170.512 29.5619 169.414 29.3643 168.331 29.099C167.374 28.8538 166.446 28.5088 165.563 28.0696C164.683 27.6618 163.933 27.0249 163.395 26.2277C162.87 25.418 162.647 24.4604 162.647 23.2817C162.647 21.8073 163.093 20.4822 164.067 19.5247C165.039 18.4939 166.16 17.7574 167.506 17.3884C168.855 16.9463 170.275 16.7998 171.846 16.7998C175.361 16.7998 178.206 17.7574 180.449 19.7457L178.21 22.0228Z" fill="#91A88C"/>
<path d="M188.409 19.695C190.632 17.4457 193.369 16.3999 196.711 16.3999C200.121 16.3999 202.939 17.5231 205.089 19.695C207.239 21.8669 208.349 24.7909 208.349 28.3124C208.349 31.7507 207.236 34.5315 205.089 36.7048C202.864 38.8781 200.128 39.9999 196.711 39.9999C193.375 39.9999 190.559 38.8767 188.409 36.7048C186.185 34.5315 185.149 31.6905 185.149 28.3124C185.146 24.7909 186.185 21.9428 188.409 19.695ZM202.494 22.1677C201.011 20.5918 199.084 19.7695 196.785 19.7695C194.486 19.7695 192.558 20.5188 191.077 22.0918C189.596 23.6649 188.854 25.6878 188.854 28.1619C188.854 30.5602 189.595 32.5081 191.077 34.0057C192.558 35.5057 194.479 36.3295 196.785 36.3295C199.091 36.3295 201.011 35.5802 202.494 34.0057C203.976 32.5086 204.793 30.4843 204.793 28.1619C204.718 25.7623 203.983 23.7408 202.494 22.1677V22.1677Z" fill="#91A88C"/>
<path d="M231.344 39.626L231.203 36.0427C229.28 38.6552 226.692 39.9258 223.439 40C220.553 40 218.185 39.0292 216.411 37.1634C214.637 35.2975 213.749 32.7564 213.749 29.4715V17H217.447V29.4715C217.447 31.6367 218.039 33.3541 219.223 34.6237C220.406 35.8914 222.107 36.491 224.171 36.491C226.167 36.491 227.869 35.7429 229.119 34.3253C230.369 32.9077 231.043 31.1846 231.043 29.0974V17H234.749V39.626H231.344Z" fill="#91A88C"/>
<path d="M245.122 16.9794L245.421 20.3207C246.759 17.8708 249.065 16.6104 252.338 16.6104C254.227 16.5123 256.084 17.1195 257.549 18.3136L255.842 21.5073C254.693 20.6829 253.312 20.2409 251.897 20.244C250.149 20.2227 248.462 20.8897 247.203 22.1006C245.938 23.3624 245.27 24.9223 245.27 26.9265V39.4001H241.549V16.9737L245.122 16.9794Z" fill="#91A88C"/>
<path d="M279.149 36.4994C276.838 38.808 274.005 40.0001 270.726 40.0001C267.372 40.0001 264.615 38.9576 262.303 36.8668C260.067 34.7817 258.949 31.949 258.949 28.3001C258.949 24.6512 260.067 21.8185 262.303 19.7334C264.538 17.6483 267.372 16.6001 270.726 16.6001C273.861 16.6001 276.614 17.7167 278.924 19.9513L276.538 22.4266C274.971 20.9383 273.119 20.1179 270.801 20.1179C268.482 20.1179 266.552 20.8614 265.061 22.3525C263.494 23.8423 262.75 25.7707 262.75 28.2374C262.75 30.7697 263.497 32.7821 265.061 34.1964C266.626 35.6106 268.491 36.3569 270.801 36.3569C273.184 36.3569 275.125 35.538 276.688 33.9728L279.149 36.4994Z" fill="#91A88C"/>
<path d="M303.654 35.9543C302.541 37.3024 301.132 38.2765 299.352 38.9513C297.625 39.6296 295.791 39.9849 293.938 39.9999C290.453 39.9999 287.558 38.9513 285.41 36.7781C283.262 34.6049 282.149 31.7641 282.149 28.1612C282.149 24.7145 283.262 21.9425 285.41 19.6948C287.558 17.4471 290.372 16.3999 293.79 16.3999C297.426 16.3999 300.312 17.523 302.467 19.838C304.622 22.1531 305.433 25.3835 305.062 29.7299H286.004C286.225 31.7512 287.042 33.4001 288.598 34.6736C290.081 35.9486 291.936 36.5474 294.16 36.5474C295.53 36.5536 296.889 36.299 298.166 35.7968C299.5 35.2724 300.539 34.5991 301.285 33.7009L303.654 35.9543ZM301.502 26.5883C301.429 24.4151 300.688 22.7662 299.352 21.5671C298.017 20.3681 296.162 19.7693 293.938 19.7693C291.936 19.7693 290.155 20.3681 288.673 21.5671C287.192 22.7662 286.299 24.4151 286.004 26.5123L301.502 26.5883Z" fill="#91A88C"/>
</g>
<defs>
<clipPath id="clip0">
<rect width="305.2" height="50" fill="white"/>
</clipPath>
</defs>
</svg>
