<svg width="200" height="70" viewBox="0 0 297 70" fill="none" xmlns="http://www.w3.org/2000/svg">
<g clip-path="url(#clip0)">
<path d="M24.8792 49.9802V40.2603C35.1844 40.2603 43.1335 30.0999 39.1604 19.3483C38.4375 17.3527 37.2848 15.5404 35.784 14.0395C34.2831 12.5387 32.4708 11.386 30.4752 10.6631C28.159 9.79215 25.6667 9.49391 23.2105 9.79375C20.7542 10.0936 18.4068 10.9826 16.3682 12.3852C14.3296 13.7877 12.6602 15.6622 11.5021 17.8489C10.344 20.0357 9.73155 22.4699 9.71694 24.9443H0C0 8.74451 15.7535 -4.06754 32.9761 1.23583C36.6773 2.39839 40.0426 4.43825 42.7855 7.18169C45.5285 9.92513 47.5677 13.2909 48.7296 16.9922C54.03 34.2238 41.2209 49.9802 24.8792 49.9802Z" fill="#91A88C"/>
<path d="M25.0269 40.2603H15.31V30.6883H25.0269V40.2603ZM15.31 47.772H7.94913V40.2603H15.31V47.772ZM7.94913 40.2603H1.77368V34.076H7.94913V40.2603ZM88.7739 14.4884C85.9773 12.5728 82.2969 11.5323 78.173 11.5323H69.1951V40.2485H78.176C82.2989 40.2485 85.8325 39.2178 88.7768 37.1564C90.385 35.9864 91.6548 34.4116 92.4573 32.592C93.3441 30.6764 93.7816 28.3204 93.7816 25.8165C93.7816 23.3126 93.3411 20.9565 92.4573 19.1887C91.5704 16.9923 90.3938 15.5201 88.7739 14.4884V14.4884ZM74.4955 16.404H77.2921C80.3842 16.404 83.033 16.9953 85.0934 18.3196C87.3017 19.644 88.3452 22.1627 88.3452 25.8313C88.3452 29.4999 87.1627 32.1634 85.0934 33.6356C83.1808 34.818 80.6769 35.5512 77.4369 35.5512H74.4955V16.404ZM100.111 11.1036C99.7016 11.0927 99.2946 11.1657 98.9148 11.3183C98.535 11.4708 98.1905 11.6996 97.9025 11.9905C97.567 12.2497 97.2984 12.5854 97.1189 12.9695C96.9395 13.3536 96.8544 13.7751 96.8708 14.1987C96.8708 15.0188 97.1966 15.8053 97.7765 16.3852C98.3564 16.9651 99.1429 17.2909 99.963 17.2909C100.783 17.2909 101.57 16.9651 102.149 16.3852C102.729 15.8053 103.055 15.0188 103.055 14.1987C103.066 13.7896 102.993 13.3826 102.84 13.0028C102.688 12.623 102.459 12.2785 102.168 11.9905C101.728 11.3992 100.986 11.1036 100.099 11.1036H100.111ZM97.4384 19.9396H102.591V40.1155H97.4591V19.9396H97.4384ZM121.014 21.7133C119.536 20.3889 117.762 19.5051 115.861 19.5051C114.564 19.4765 113.275 19.7254 112.082 20.2353C110.888 20.7451 109.817 21.504 108.941 22.4612C107.102 24.409 106.098 26.999 106.144 29.6772C106.144 32.4767 107.031 34.9777 108.805 36.8933C110.579 38.8089 112.926 39.6928 115.725 39.6928C117.527 39.721 119.287 39.1513 120.73 38.0728V38.5132C120.73 40.1332 120.29 41.4694 119.406 42.3563C118.522 43.2431 117.336 43.6806 115.725 43.6806C113.36 43.6806 111.897 42.7938 110.132 40.2929L106.585 43.6806L106.733 43.8284C107.469 44.8601 108.645 45.8978 110.117 46.9206C111.59 47.9434 113.502 48.3987 115.711 48.3987C118.803 48.3987 121.159 47.5118 122.924 45.5992C124.688 43.6865 125.72 41.3275 125.72 38.2354V19.9396H120.721V21.7133H121.017H121.014ZM119.692 33.6415C118.806 34.6732 117.623 35.1196 116.145 35.1196C114.667 35.1196 113.485 34.6791 112.598 33.6415C111.711 32.6039 111.273 31.2765 111.273 29.6654C111.273 28.0543 111.743 26.7122 112.63 25.6805C113.517 24.6488 114.699 24.2024 116.178 24.2024C117.656 24.2024 118.838 24.6429 119.725 25.6805C120.612 26.7181 121.049 28.0454 121.049 29.6566C121.049 31.2677 120.609 32.6127 119.725 33.6326L119.692 33.6415ZM130.471 19.9367H135.623V40.1125H130.438V19.9396L130.471 19.9367ZM132.942 11.1036C132.533 11.0935 132.127 11.1665 131.747 11.3183C131.367 11.4701 131.022 11.6975 130.733 11.9867C130.444 12.2759 130.216 12.6208 130.065 13.0006C129.913 13.3803 129.84 13.7869 129.85 14.1958C129.85 15.0159 130.176 15.8024 130.756 16.3822C131.335 16.9621 132.122 17.2879 132.942 17.2879C133.762 17.2879 134.549 16.9621 135.129 16.3822C135.708 15.8024 136.034 15.0159 136.034 14.1958C136.044 13.7867 135.971 13.3798 135.819 12.9998C135.667 12.6199 135.44 12.2748 135.15 11.9856C134.861 11.6964 134.515 11.4691 134.135 11.3174C133.755 11.1658 133.348 11.0931 132.939 11.1036H132.942ZM146.626 14.4884H141.627V19.9396H138.671V24.5039H141.627V32.8995C141.627 35.56 142.219 37.4638 143.247 38.4955C144.276 39.5272 146.203 40.1155 148.695 40.1155C149.533 40.1398 150.371 40.0903 151.199 39.9677H151.495V35.4004L149.721 35.5482C148.539 35.5482 147.652 35.4004 147.356 34.957C146.916 34.5165 146.765 33.6326 146.765 32.2964V24.6517H151.477V20.0845H146.78L146.626 14.4884ZM175.186 11.5323H180.338V40.2485H175.192V11.55L175.186 11.5323ZM231.726 33.0502C230.973 33.9209 230.134 34.7133 229.222 35.4152C228.42 35.9013 227.499 36.1561 226.561 36.1513C225.871 36.1452 225.189 35.997 224.558 35.7157C223.927 35.4344 223.361 35.0262 222.895 34.5165C221.864 33.334 221.417 32.0126 221.417 30.2448C221.417 28.477 221.858 27.1527 222.895 25.9732C223.343 25.4378 223.907 25.013 224.546 24.732C225.184 24.451 225.879 24.3213 226.576 24.3532C228.196 24.3532 229.961 25.3849 231.433 27.1527L234.818 23.9009C232.609 21.1014 229.813 19.777 226.425 19.777C223.629 19.777 221.272 20.8087 219.212 22.8692C217.284 24.8911 216.223 27.587 216.256 30.3808C216.256 33.337 217.288 35.9768 219.212 37.8924C220.128 38.8881 221.244 39.6785 222.487 40.2115C223.731 40.7444 225.073 41.0079 226.425 40.9846C230.106 40.9846 233.05 39.3646 235.11 36.4203L231.726 33.0325V33.0502ZM252.484 22.8721C251.709 21.8516 250.693 21.0391 249.528 20.5072C248.191 19.8884 246.731 19.5849 245.259 19.6203C242.462 19.6203 240.106 20.652 238.338 22.7125C236.665 24.8542 235.781 27.5069 235.835 30.2241C235.835 33.3163 236.721 35.8202 238.631 37.7358C240.541 39.6514 242.9 40.6919 245.992 40.6919C249.377 40.6919 252.176 39.3676 254.385 36.5681L254.532 36.4203L251.148 33.1685C250.852 33.609 250.411 33.9046 249.965 34.351C249.547 34.7913 249.044 35.1423 248.487 35.3827C247.721 35.8022 246.856 36.0065 245.983 35.9739C244.701 35.9924 243.45 35.5756 242.436 34.7914C241.549 34.0553 241.111 33.0177 240.958 31.6993H254.503V29.7837C254.536 28.4777 254.336 27.1763 253.912 25.9406C253.696 24.7989 253.187 23.7331 252.434 22.8485L252.484 22.8721ZM241.442 27.5961C241.668 26.7048 242.125 25.889 242.767 25.2312C243.115 24.8844 243.531 24.6136 243.989 24.436C244.447 24.2584 244.937 24.1778 245.427 24.1995C246.61 24.1995 247.636 24.4951 248.224 25.2312C248.815 25.8224 249.111 26.7092 249.256 27.5961H241.442V27.5961ZM272.065 21.5566C270.587 20.2323 268.385 19.641 265.736 19.641C264.116 19.6869 262.52 20.038 261.03 20.6757C259.706 21.4118 258.37 22.4494 257.645 23.9275L260.897 27.0196C262.221 24.8114 263.694 24.0635 265.754 24.0635C266.717 24.0379 267.659 24.3518 268.415 24.9503C268.75 25.2096 269.019 25.5452 269.198 25.9294C269.378 26.3135 269.463 26.7349 269.446 27.1586V28.1903C268.261 27.7903 267.017 27.5905 265.766 27.5991C263.263 27.5991 261.202 28.1903 259.582 29.3728C257.962 30.5552 257.217 32.3289 257.217 34.3805C257.217 36.2961 257.808 37.7683 259.129 38.9448C260.451 40.1214 262.085 40.5648 263.986 40.5648C265.887 40.5648 267.667 39.8287 269.434 38.4955V40.1155H274.439V27.1556C274.439 24.7907 273.703 22.884 272.074 21.5596L272.065 21.5566ZM263.093 32.456C263.685 32.0156 264.418 31.8648 265.458 31.8648C266.765 31.9089 268.057 32.1572 269.287 32.6009V34.5165C268.068 35.5887 266.493 36.1665 264.87 36.1365C263.983 36.1365 263.25 35.9887 262.801 35.5452C262.351 35.1018 262.065 34.6584 262.065 34.0672C262.117 33.7409 262.235 33.4288 262.413 33.1502C262.59 32.8716 262.823 32.6323 263.096 32.4472L263.093 32.456ZM294 21.8523C292.522 20.2323 290.615 19.4873 288.112 19.4873C286.05 19.4873 284.431 20.0785 283.255 21.261V20.0785H278.247V40.2544H283.399V29.0683C283.399 27.5902 283.695 26.2688 284.431 25.3878C284.792 24.9577 285.245 24.6151 285.757 24.3857C286.269 24.1563 286.826 24.0461 287.387 24.0635C287.892 24.0389 288.396 24.133 288.858 24.3384C289.32 24.5437 289.728 24.8546 290.048 25.2459C290.739 26.1873 291.102 27.3299 291.08 28.4977V40.2781H296.209V28.48C296.061 25.6815 295.325 23.4722 294 21.8523V21.8523ZM168.862 21.5566C167.384 20.2323 165.182 19.641 162.533 19.641C160.912 19.6853 159.313 20.0353 157.821 20.6727C156.497 21.4088 155.161 22.4464 154.436 23.9245L157.688 27.0167C159.013 24.8084 160.485 24.0605 162.545 24.0605C163.509 24.035 164.45 24.3489 165.206 24.9474C165.541 25.2066 165.81 25.5423 165.989 25.9264C166.169 26.3105 166.254 26.732 166.237 27.1556V28.1873C165.052 27.7874 163.808 27.5875 162.557 27.5961C160.054 27.5961 157.993 28.1873 156.373 29.3698C154.753 30.5523 154.008 32.326 154.008 34.3776C154.008 36.2932 154.599 37.7653 155.92 38.9419C157.242 40.1184 158.877 40.5619 160.777 40.5619C162.678 40.5619 164.458 39.8258 166.226 38.4926V40.1125H171.23V27.1556C171.23 24.7907 170.344 22.884 168.865 21.5596L168.862 21.5566ZM159.737 32.456C160.328 32.0156 161.061 31.8648 162.102 31.8648C163.408 31.9089 164.7 32.1572 165.93 32.6009V34.5165C164.712 35.5887 163.136 36.1665 161.513 36.1365C160.627 36.1365 159.893 35.9887 159.444 35.5452C158.995 35.1018 158.708 34.6584 158.708 34.0672C158.928 33.4576 159.28 32.9043 159.74 32.4472L159.737 32.456ZM198.761 40.6949C195.848 40.6961 193 39.8333 190.577 38.2157C188.155 36.5981 186.266 34.2984 185.15 31.6074C184.035 28.9163 183.742 25.9549 184.31 23.0976C184.878 20.2404 186.28 17.6156 188.339 15.5553C190.399 13.495 193.023 12.0918 195.88 11.523C198.737 10.9543 201.699 11.2456 204.39 12.3601C207.081 13.4746 209.382 15.3623 211.001 17.7844C212.619 20.2065 213.483 23.0541 213.483 25.9672C213.469 29.8679 211.914 33.6049 209.156 36.3637C206.398 39.1225 202.662 40.6793 198.761 40.6949V40.6949ZM198.761 16.2503C196.868 16.2474 195.016 16.8061 193.44 17.8559C191.864 18.9056 190.635 20.3992 189.908 22.1477C189.181 23.8962 188.989 25.821 189.356 27.6786C189.723 29.5362 190.633 31.2432 191.971 32.5835C193.308 33.9239 195.013 34.8375 196.87 35.2087C198.727 35.5799 200.652 35.3921 202.402 34.6689C204.152 33.9458 205.648 32.7199 206.701 31.1462C207.755 29.5725 208.317 27.7219 208.319 25.8283C208.321 24.5708 208.076 23.3251 207.596 22.1627C207.116 21.0003 206.411 19.9441 205.522 19.0548C204.633 18.1654 203.577 17.4604 202.415 16.9801C201.253 16.4999 200.007 16.2539 198.749 16.2562" fill="#91A88C"/>
</g>
<defs>
<clipPath id="clip0">
<rect width="296.209" height="50" fill="white"/>
</clipPath>
</defs>
</svg>
