<svg width="516" height="196" viewBox="0 0 516 196" fill="none" xmlns="http://www.w3.org/2000/svg">
<path d="M3.37306 123.773C3.27521 118.717 7.21988 114.476 12.2762 114.368C17.1965 114.263 21.1755 117.989 21.5554 122.895C21.9446 127.921 18.3011 132.361 13.2793 132.802C8.06504 133.259 3.47434 129.007 3.37306 123.773Z" stroke="#A88771" stroke-width="5" stroke-linecap="round" stroke-linejoin="round"/>
<path d="M23.9999 123.788C23.9999 123.788 47.0077 121.745 69.0952 101.844C94.4255 79.0217 104.081 76.1376 131.418 76.1376C155.369 76.1375 175.425 84.0763 177.815 105.355C179.006 115.964 179.168 126.026 170.04 131.563C160.187 137.54 148.503 132.997 141.575 123.788C134.774 114.749 136.95 105.145 141.575 94.8217C149.32 77.5334 167.412 75.389 186.342 76.1376C209.418 77.0502 233.5 107.5 233.5 107.5" stroke="#A88771" stroke-width="5" stroke-linecap="round" stroke-linejoin="round"/>
<path d="M228.974 116.633C228.876 111.576 232.821 107.336 237.877 107.228C242.797 107.123 246.776 110.849 247.156 115.755C247.545 120.781 243.902 125.221 238.88 125.662C233.666 126.119 229.075 121.866 228.974 116.633Z" stroke="#A88771" stroke-width="5" stroke-linecap="round" stroke-linejoin="round"/>
<path d="M108.219 78.0185C108.219 78.0185 119.295 67.8375 122.881 59.2582C126.357 50.9395 124.772 33.2517 124.772 33.2517" stroke="#A88771" stroke-width="5" stroke-linecap="round" stroke-linejoin="round"/>
<path d="M118.187 44.091C114.231 44.0063 113.485 40.0128 110.036 38.0719C106.534 36.1004 102.347 37.7579 100.506 34.1846C98.7993 30.8708 101.94 28.5022 102.136 24.7798C102.369 20.3612 98.6828 17.1784 101.133 13.4941C103.399 10.0864 107.454 11.9182 110.914 9.73214C113.73 7.95296 114.034 4.69395 117.309 4.08926C121.521 3.31166 122.883 7.81746 126.714 9.73214C130.131 11.4396 133.623 10.3168 135.743 13.4941C138.204 17.1827 134.392 20.3464 134.489 24.7798C134.57 28.4842 137.527 30.9372 135.743 34.1846C133.894 37.549 130.069 36.2063 126.714 38.0719C123.152 40.0528 122.262 44.1782 118.187 44.091Z" stroke="#d3c4ba" stroke-width="7" stroke-linecap="round" stroke-linejoin="round"/>
<path d="M118.613 38.3579C115.764 38.2975 115.227 35.4497 112.744 34.0656C110.222 32.6597 107.207 33.8417 105.882 31.2935C104.653 28.9303 106.914 27.2413 107.056 24.5868C107.223 21.4358 104.569 19.1661 106.333 16.5387C107.965 14.1086 110.885 15.4149 113.376 13.856C115.403 12.5872 115.622 10.2632 117.981 9.83197C121.014 9.27744 121.994 12.4906 124.753 13.856C127.213 15.0736 129.727 14.273 131.254 16.5387C133.026 19.1691 130.281 21.4252 130.351 24.5868C130.409 27.2284 132.539 28.9777 131.254 31.2935C129.923 33.6927 127.169 32.7352 124.753 34.0656C122.188 35.4782 121.547 38.4201 118.613 38.3579Z" stroke="#F74700" stroke-width="7" stroke-linecap="round" stroke-linejoin="round"/>
<path d="M118.381 34.3455C116.292 34.3015 115.898 32.2281 114.077 31.2204C112.228 30.1968 110.017 31.0574 109.045 29.2021C108.144 27.4816 109.802 26.2518 109.906 24.3191C110.029 22.025 108.082 20.3725 109.376 18.4596C110.573 16.6903 112.714 17.6414 114.541 16.5064C116.028 15.5827 116.188 13.8906 117.918 13.5766C120.142 13.1729 120.861 15.5123 122.884 16.5064C124.688 17.3929 126.531 16.81 127.651 18.4596C128.951 20.3747 126.938 22.0173 126.989 24.3191C127.032 26.2425 128.593 27.5161 127.651 29.2021C126.675 30.9489 124.655 30.2518 122.884 31.2204C121.003 32.2489 120.533 34.3908 118.381 34.3455Z" stroke="#F74700" stroke-width="7" stroke-linecap="round" stroke-linejoin="round"/>
<path d="M118.203 27.9498C115.912 27.9622 114.032 25.9134 114.2 23.752C114.361 21.689 116.017 20.1469 118.204 20.1588C120.381 20.1706 122.004 21.6976 122.164 23.752C122.331 25.907 120.488 27.9374 118.203 27.9498Z" stroke="#d3c4ba" stroke-width="7" stroke-linecap="round" stroke-linejoin="round"/>
<path d="M116.984 23.9115C116.93 24.5964 117.503 25.1954 118.19 25.1917C118.874 25.1879 119.437 24.593 119.384 23.9115C119.335 23.2806 118.823 22.8191 118.19 22.8157C117.554 22.8122 117.033 23.2768 116.984 23.9115Z" stroke="#F74700" stroke-width="7" stroke-linecap="round" stroke-linejoin="round"/>
<line x1="2.5" y1="-2.5" x2="204.656" y2="-2.5" transform="matrix(1 0 0 -1 247.661 112.879)" stroke="#A88771" stroke-width="5" stroke-linecap="round" stroke-linejoin="round"/>
<path d="M438.915 85.3738C432.943 88.5386 433.826 95.3227 431.132 101.521C428.659 107.213 422.988 107.915 423.872 114.057C424.708 119.863 429.491 119.822 432.491 124.863C435.936 130.652 433.933 137.264 439.746 140.668C445.858 144.248 448.473 138.248 455.552 137.986C461.674 137.759 467.149 142.702 472.365 139.489C477.738 136.179 474.118 129.589 477.146 124.053C479.913 118.993 486.237 118.361 486.467 112.598C486.718 106.302 479.647 105.392 476.389 99.9983C472.846 94.1325 474.775 87.8399 468.891 85.0941C463.007 82.3482 459.935 87.9579 453.443 87.9641C446.75 87.9705 444.828 82.2398 438.915 85.3738Z" stroke="#B53A25" stroke-width="8" stroke-linecap="round" stroke-linejoin="round"/>
<path d="M442.473 91.6679C437.807 94.1408 438.497 99.4415 436.392 104.285C434.459 108.732 430.028 109.28 430.719 114.08C431.372 118.617 435.109 118.584 437.454 122.523C440.146 127.046 438.58 132.212 443.122 134.872C447.898 137.669 449.942 132.982 455.473 132.777C460.256 132.599 464.534 136.462 468.609 133.951C472.807 131.365 469.979 126.216 472.345 121.89C474.507 117.936 479.449 117.443 479.628 112.94C479.825 108.02 474.299 107.309 471.754 103.095C468.985 98.5116 470.492 93.5948 465.895 91.4493C461.297 89.3038 458.897 93.687 453.824 93.6918C448.595 93.6968 447.093 89.2191 442.473 91.6679Z" stroke="#B53A25" stroke-width="8" stroke-linecap="round" stroke-linejoin="round"/>
<path d="M444.532 95.3786C440.668 97.4263 441.239 101.816 439.497 105.826C437.896 109.509 434.227 109.963 434.799 113.937C435.34 117.694 438.435 117.667 440.376 120.928C442.605 124.674 441.308 128.952 445.07 131.154C449.024 133.47 450.717 129.589 455.297 129.419C459.257 129.272 462.8 132.47 466.174 130.391C469.651 128.25 467.308 123.986 469.268 120.404C471.058 117.13 475.15 116.721 475.299 112.993C475.461 108.919 470.886 108.33 468.778 104.841C466.486 101.046 467.733 96.9743 463.927 95.1977C460.12 93.4211 458.132 97.0506 453.931 97.0546C449.601 97.0587 448.358 93.351 444.532 95.3786Z" stroke="#d3c4ba" stroke-width="8" stroke-linecap="round" stroke-linejoin="round"/>
<path d="M447.139 99.6499C444.192 101.212 444.627 104.561 443.298 107.62C442.077 110.429 439.278 110.776 439.714 113.808C440.127 116.674 442.488 116.653 443.969 119.141C445.669 121.999 444.68 125.262 447.549 126.942C450.567 128.709 451.857 125.748 455.351 125.619C458.373 125.507 461.075 127.946 463.65 126.36C466.302 124.727 464.515 121.474 466.01 118.741C467.375 116.244 470.497 115.932 470.611 113.088C470.735 109.98 467.244 109.531 465.636 106.868C463.887 103.973 464.839 100.867 461.935 99.5119C459.031 98.1565 457.515 100.925 454.31 100.928C451.007 100.932 450.058 98.103 447.139 99.6499Z" stroke="#d3c4ba" stroke-width="8" stroke-linecap="round" stroke-linejoin="round"/>
<path d="M447.092 108.308C444.257 112.822 446.036 119.002 450.77 121.452C455.48 123.89 461.493 121.831 463.585 116.957C465.521 112.445 463.667 107.43 459.332 105.127C454.971 102.809 449.718 104.125 447.092 108.308Z" stroke="#B53A25" stroke-width="8" stroke-linecap="round" stroke-linejoin="round"/>
<path d="M448.727 109.203C446.509 112.735 447.901 117.571 451.606 119.488C455.291 121.395 459.996 119.784 461.633 115.971C463.148 112.44 461.697 108.516 458.305 106.713C454.892 104.9 450.782 105.93 448.727 109.203Z" stroke="#B53A25" stroke-width="8" stroke-linecap="round" stroke-linejoin="round"/>
<path d="M453.638 115.707C452.181 114.953 451.67 113.028 452.495 111.713C453.283 110.458 454.847 110.031 456.23 110.766C457.607 111.498 458.128 113.006 457.546 114.362L459.843 115.348L457.546 114.362C456.936 115.785 455.091 116.459 453.638 115.707Z" stroke="#d3c4ba" stroke-width="5" stroke-linecap="round" stroke-linejoin="round"/>
<path d="M319.14 144.089C306.917 131.939 307.857 118.515 307.857 118.515C307.857 118.515 310.866 127.165 319.14 127.823C327.414 128.481 336.012 128.937 342.552 136.097C347.847 141.895 349.415 154.996 349.415 154.996C349.415 154.996 328.053 152.948 319.14 144.089Z" stroke="#A88771" stroke-width="5" stroke-linecap="round" stroke-linejoin="round"/>
<path d="M320.081 141.813C308.734 131.821 308.249 121.164 308.249 121.164C308.249 121.164 311.577 128.127 318.543 128.87C325.509 129.614 332.726 130.204 338.86 136.075C343.826 140.829 346.374 151.295 346.374 151.295C346.374 151.295 328.356 149.099 320.081 141.813Z" stroke="#A88771" stroke-width="5" stroke-linecap="round" stroke-linejoin="round"/>
<path d="M318.262 140.542C308.184 131.437 308.249 121.164 308.249 121.164C308.249 121.164 311.01 127.73 317.457 128.111C323.905 128.492 330.594 128.714 336.018 134.089C340.41 138.442 342.275 148.431 342.275 148.431C342.275 148.431 325.611 147.181 318.262 140.542Z" stroke="#A88771" stroke-width="5" stroke-linecap="round" stroke-linejoin="round"/>
<path d="M319.799 138.393C310.583 130.604 309.49 123.091 309.49 123.091C309.49 123.091 312.469 128.205 317.758 129.203C323.046 130.201 328.514 131.109 333.527 135.649C337.586 139.325 340.217 146.845 340.217 146.845C340.217 146.845 326.518 144.072 319.799 138.393Z" stroke="#A88771" stroke-width="5" stroke-linecap="round" stroke-linejoin="round"/>
<path d="M321.763 136.91C315.066 131.404 313.939 126.487 313.939 126.487C313.939 126.487 316.235 129.947 319.903 130.86C323.572 131.773 327.358 132.636 331.017 135.828C333.979 138.412 336.159 143.411 336.159 143.411C336.159 143.411 326.647 140.925 321.763 136.91Z" stroke="#A88771" stroke-width="5" stroke-linecap="round" stroke-linejoin="round"/>
<path d="M324.922 135.995C319.599 131.827 318.257 128.647 318.257 128.647C318.257 128.647 320.258 131.053 322.938 132.03C325.618 133.007 328.376 133.966 331.304 136.357C333.675 138.293 335.766 141.641 335.766 141.641C335.766 141.641 328.803 139.034 324.922 135.995Z" stroke="#A88771" stroke-width="5" stroke-linecap="round" stroke-linejoin="round"/>
<path d="M267.5 115.5C267.5 115.5 293.768 118.357 300.268 102.357C306.768 86.3571 305.195 68.8705 322.5 60C339.805 51.1295 355.127 56.074 355.127 56.074" stroke="#A88771" stroke-width="5" stroke-linecap="round" stroke-linejoin="round"/>
<path d="M355.374 58.198C355.276 53.1414 359.221 48.9012 364.277 48.7932C369.198 48.688 373.177 52.4135 373.557 57.3202C373.946 62.3462 370.302 66.786 365.281 67.2266C360.066 67.684 355.475 63.4313 355.374 58.198Z" stroke="#A88771" stroke-width="5" stroke-linecap="round" stroke-linejoin="round"/>
<path d="M401.909 115.2C401.909 115.2 412.421 122.38 419.213 129.991C426.005 137.601 431.251 159.116 448.556 167.986C465.86 176.857 491.818 175.636 491.818 175.636" stroke="#A88771" stroke-width="5" stroke-linecap="round" stroke-linejoin="round"/>
<path d="M494.373 172.773C494.275 167.717 498.22 163.476 503.276 163.368C508.196 163.263 512.175 166.989 512.555 171.895C512.944 176.921 509.301 181.361 504.279 181.802C499.065 182.259 494.474 178.007 494.373 172.773Z" stroke="#A88771" stroke-width="5" stroke-linecap="round" stroke-linejoin="round"/>
<path d="M347 115C347 115 384.414 108.283 397 97.0001C409.196 86.0663 407.269 54.9889 407.269 54.9889" stroke="#A88771" stroke-width="5" stroke-linecap="round" stroke-linejoin="round"/>
<path d="M414.822 62.1825C410.865 62.0978 410.119 58.1043 406.671 56.1635C403.168 54.1919 398.981 55.8495 397.141 52.2762C395.434 48.9623 398.574 46.5938 398.771 42.8714C399.004 38.4528 395.317 35.2699 397.768 31.5856C400.034 28.1779 404.089 30.0098 407.548 27.8237C410.364 26.0445 410.668 22.7855 413.944 22.1808C418.156 21.4032 419.517 25.909 423.349 27.8237C426.765 29.5312 430.257 28.4084 432.377 31.5856C434.839 35.2742 431.026 38.4379 431.123 42.8714C431.204 46.5758 434.161 49.0288 432.377 52.2762C430.529 55.6405 426.704 54.2979 423.349 56.1635C419.786 58.1443 418.897 62.2698 414.822 62.1825Z" stroke="#d3c4ba" stroke-width="7" stroke-linecap="round" stroke-linejoin="round"/>
<path d="M415.247 56.4495C412.399 56.389 411.861 53.5412 409.378 52.1572C406.856 50.7512 403.842 51.9333 402.516 49.385C401.287 47.0219 403.549 45.3328 403.69 42.6783C403.858 39.5273 401.203 37.2576 402.968 34.6302C404.6 32.2002 407.519 33.5065 410.01 31.9476C412.038 30.6788 412.257 28.3547 414.615 27.9235C417.648 27.369 418.628 30.5822 421.387 31.9476C423.847 33.1652 426.362 32.3645 427.888 34.6302C429.661 37.2606 426.915 39.5168 426.985 42.6783C427.044 45.32 429.173 47.0693 427.888 49.385C426.557 51.7843 423.803 50.8268 421.387 52.1572C418.822 53.5698 418.182 56.5117 415.247 56.4495Z" stroke="#F74700" stroke-width="7" stroke-linecap="round" stroke-linejoin="round"/>
<path d="M415.016 52.4371C412.927 52.3931 412.532 50.3197 410.712 49.312C408.862 48.2883 406.651 49.1489 405.679 47.2937C404.778 45.5731 406.437 44.3434 406.54 42.4107C406.663 40.1166 404.717 38.464 406.01 36.5511C407.207 34.7819 409.348 35.733 411.175 34.598C412.662 33.6742 412.823 31.9821 414.552 31.6682C416.776 31.2644 417.495 33.6039 419.518 34.598C421.322 35.4845 423.166 34.9015 424.285 36.5511C425.585 38.4663 423.572 40.1089 423.623 42.4107C423.666 44.334 425.228 45.6076 424.285 47.2937C423.309 49.0405 421.29 48.3433 419.518 49.312C417.637 50.3404 417.167 52.4824 415.016 52.4371Z" stroke="#F74700" stroke-width="7" stroke-linecap="round" stroke-linejoin="round"/>
<path d="M414.838 46.0413C412.547 46.0538 410.666 44.0049 410.834 41.8435C410.995 39.7805 412.651 38.2385 414.838 38.2503C417.015 38.2622 418.638 39.7892 418.798 41.8436C418.966 43.9985 417.122 46.0289 414.838 46.0413Z" stroke="#d3c4ba" stroke-width="7" stroke-linecap="round" stroke-linejoin="round"/>
<path d="M413.618 42.003C413.565 42.688 414.138 43.287 414.825 43.2832C415.508 43.2795 416.072 42.6845 416.018 42.003C415.969 41.3721 415.458 40.9107 414.825 40.9072C414.188 40.9038 413.668 41.3684 413.618 42.003Z" stroke="#F74700" stroke-width="7" stroke-linecap="round" stroke-linejoin="round"/>
</svg>
