<svg width="100" height="100" viewBox="0 0 869 1206" fill="none" xmlns="http://www.w3.org/2000/svg">
    <path
        d="M434 1102C434 1102 393.5 1102 393.5 1149.5C393.5 1172.43 415.096 1191.01 438 1190C461.063 1188.99 480 1166.59 480 1143.5C480 1102 434 1102 434 1102ZM434 1102L434 186.002"
        stroke="#677662" stroke-width="30" stroke-linecap="round" stroke-linejoin="round" class="jwGXznLG_0"></path>
    <path
        d="M304 103.5C285.135 131.048 304.563 158.702 307 192C309.238 222.575 286.04 238.656 304 263.5C320.977 286.985 341.809 275.83 366.5 291C394.854 308.421 401.258 341.944 434.5 343.5C469.456 345.137 467.133 312.891 497.5 295.5C523.761 280.461 559.054 289.524 574.5 263.501C590.411 236.692 559.457 216.171 560 185C560.496 156.514 586.716 139.24 574.5 113.501C561.153 85.38 528.126 97.6228 501.5 81.5006C472.543 63.9669 466.541 32.0134 434.5 33.5001C402.459 34.9869 401.892 66.5761 373.5 81.5005C344.235 96.8838 322.68 76.2216 304 103.5Z"
        stroke="#F74700" stroke-width="63" stroke-linecap="round" stroke-linejoin="round" class="jwGXznLG_1"></path>
    <path
        d="M350.669 130.897C338.464 148.721 351.033 166.613 352.61 188.157C354.058 207.939 339.049 218.344 350.669 234.419C361.653 249.613 375.132 242.396 391.107 252.211C409.453 263.482 413.596 285.172 435.103 286.179C457.72 287.237 456.217 266.374 475.865 255.123C492.856 245.392 515.691 251.256 525.684 234.419C535.979 217.073 515.951 203.796 516.303 183.629C516.624 165.198 533.588 154.021 525.684 137.368C517.049 119.174 495.68 127.095 478.453 116.664C459.717 105.319 455.834 84.6451 435.103 85.6071C414.373 86.569 414.006 107.007 395.636 116.664C376.702 126.617 362.755 113.248 350.669 130.897Z"
        stroke="#B53A25" stroke-width="63" stroke-linecap="round" stroke-linejoin="round" class="jwGXznLG_2"></path>
    <path
        d="M388.5 183.5C386.457 209.753 408.419 232.71 434.751 232.567C460.949 232.424 482.533 209.62 480.5 183.5C478.618 159.32 459.004 141.632 434.751 141.5C410.353 141.368 390.393 159.176 388.5 183.5Z"
        stroke="#F74700" stroke-width="45" stroke-linecap="round" stroke-linejoin="round" class="jwGXznLG_3"></path>
    <path
        d="M434.96 199.144C427.224 199.186 420.884 192.25 421.449 184.993C421.989 178.045 427.555 172.84 434.96 172.88C442.336 172.921 447.787 178.073 448.326 184.993C448.889 192.23 442.676 199.102 434.96 199.144Z"
        stroke="#B53A25" stroke-width="26" stroke-linecap="round" stroke-linejoin="round" class="jwGXznLG_4"></path>
    <path
        d="M434.5 1005.5C434.5 1005.5 469 928.5 510 905.499C554.266 880.665 650.561 854.237 694 778.499C714.061 743.522 726.5 720.82 726.5 680.499C726.5 634 722 553.499 722 553.499M722 553.499C722 553.499 679 553.499 679 512.501C679 487.767 697.282 470.612 722 471.5C745.938 472.36 766 488.547 766 512.501C766 553.499 722 553.499 722 553.499Z"
        stroke="#677662" stroke-width="30" stroke-linecap="round" stroke-linejoin="round" class="jwGXznLG_5"></path>
    <path
        d="M434.089 1005.26C434.089 1005.26 399.589 928.257 358.589 905.255C314.323 880.422 218.028 853.993 174.589 778.255C154.529 743.279 142.089 720.576 142.089 680.255C142.089 633.756 146.589 553.256 146.589 553.256M146.589 553.256C146.589 553.256 189.589 553.256 189.589 512.257C189.589 487.523 171.307 470.368 146.589 471.256C122.651 472.116 102.589 490.303 102.589 514.256C102.589 553.256 146.589 553.256 146.589 553.256Z"
        stroke="#677662" stroke-width="30" stroke-linecap="round" stroke-linejoin="round" class="jwGXznLG_6"></path>
    <path d="M432.667 577.624C432.667 577.624 462.5 465.916 561.5 386.998C667.5 302.5 770.667 275.624 770.667 275.624"
        stroke="#677662" stroke-width="30" stroke-linecap="round" stroke-linejoin="round" class="jwGXznLG_7"></path>
    <path
        d="M774.518 366.856C758.744 366.518 755.768 350.595 742.018 342.856C728.052 334.995 711.357 341.604 704.018 327.356C697.213 314.143 709.736 304.698 710.518 289.856C711.447 272.238 696.748 259.547 706.518 244.856C715.555 231.268 731.723 238.573 745.518 229.856C756.746 222.762 757.958 209.767 771.018 207.356C787.813 204.255 793.241 222.221 808.518 229.856C822.142 236.664 836.064 232.187 844.518 244.856C854.333 259.564 839.131 272.178 839.518 289.856C839.842 304.627 851.633 314.408 844.518 327.356C837.147 340.771 821.896 335.417 808.518 342.856C794.314 350.754 790.767 367.204 774.518 366.856Z"
        stroke="#F74700" stroke-width="25" stroke-linecap="round" stroke-linejoin="round" class="jwGXznLG_8"></path>
    <path
        d="M776.216 343.996C764.858 343.755 762.715 332.4 752.815 326.881C742.758 321.275 730.737 325.989 725.453 315.828C720.553 306.405 729.57 299.67 730.134 289.086C730.802 276.522 720.218 267.472 727.253 256.996C733.76 247.306 745.402 252.515 755.335 246.299C763.419 241.24 764.292 231.973 773.696 230.254C785.789 228.043 789.698 240.855 800.698 246.299C810.508 251.154 820.532 247.961 826.619 256.996C833.686 267.484 822.74 276.48 823.019 289.086C823.252 299.619 831.742 306.594 826.619 315.828C821.312 325.394 810.33 321.577 800.698 326.881C790.47 332.514 787.916 344.244 776.216 343.996Z"
        stroke="#B53A25" stroke-width="27" stroke-linecap="round" stroke-linejoin="round" class="jwGXznLG_9"></path>
    <path
        d="M775.292 327.997C766.963 327.822 765.391 319.554 758.131 315.536C750.756 311.455 741.941 314.886 738.066 307.489C734.472 300.628 741.085 295.725 741.498 288.019C741.988 278.871 734.227 272.282 739.386 264.655C744.157 257.6 752.695 261.392 759.979 256.867C765.907 253.184 766.548 246.437 773.444 245.185C782.312 243.575 785.178 252.903 793.245 256.867C800.439 260.402 807.79 258.077 812.254 264.655C817.437 272.291 809.41 278.841 809.614 288.019C809.785 295.688 816.011 300.766 812.254 307.489C808.362 314.454 800.309 311.674 793.245 315.536C785.745 319.637 783.872 328.178 775.292 327.997Z"
        stroke="#B53A25" stroke-width="27" stroke-linecap="round" stroke-linejoin="round" class="jwGXznLG_10"></path>
    <path
        d="M774.589 303.451C764.911 303.503 756.952 294.875 757.668 285.683C758.348 276.942 765.385 270.424 774.589 270.474C783.753 270.524 790.649 276.98 791.327 285.683C792.04 294.846 784.235 303.398 774.589 303.451Z"
        stroke="#F74700" stroke-width="26" stroke-linecap="round" stroke-linejoin="round" class="jwGXznLG_11"></path>
    <path
        d="M769.72 286.393C769.507 289.125 771.792 291.513 774.532 291.498C777.257 291.483 779.502 289.111 779.291 286.393C779.095 283.878 777.055 282.038 774.532 282.024C771.993 282.01 769.917 283.863 769.72 286.393Z"
        stroke="#B53A25" stroke-width="10" stroke-linecap="round" stroke-linejoin="round" class="jwGXznLG_12"></path>
    <path d="M437 585.407C437 585.407 407.167 473.698 308.167 394.781C202.167 310.283 99 283.407 99 283.407"
        stroke="#677662" stroke-width="30" stroke-linecap="round" stroke-linejoin="round" class="jwGXznLG_13"></path>
    <path
        d="M93.5183 366.856C77.7443 366.518 74.7676 350.595 61.0183 342.856C47.0518 334.995 30.357 341.604 23.0183 327.356C16.2126 314.143 28.7357 304.698 29.5183 289.856C30.4473 272.238 15.7481 259.547 25.5183 244.856C34.5549 231.268 50.7234 238.573 64.5183 229.856C75.7455 222.762 76.9583 209.767 90.0183 207.356C106.813 204.255 112.241 222.221 127.518 229.856C141.142 236.664 155.064 232.187 163.518 244.856C173.333 259.564 158.131 272.178 158.518 289.856C158.842 304.627 170.633 314.408 163.518 327.356C156.147 340.771 140.896 335.417 127.518 342.856C113.314 350.754 109.767 367.204 93.5183 366.856Z"
        stroke="#F74700" stroke-width="25" stroke-linecap="round" stroke-linejoin="round" class="jwGXznLG_14"></path>
    <path
        d="M95.2164 343.996C83.8584 343.755 81.715 332.4 71.8149 326.881C61.7584 321.275 49.7375 325.989 44.4533 315.828C39.5529 306.405 48.5701 299.67 49.1336 289.086C49.8025 276.522 39.2184 267.472 46.2534 256.996C52.7601 247.306 64.4021 252.515 74.3351 246.299C82.4192 241.24 83.2924 231.973 92.6962 230.254C104.789 228.043 108.698 240.855 119.698 246.299C129.508 251.154 139.532 247.961 145.619 256.996C152.686 267.484 141.74 276.48 142.019 289.086C142.252 299.619 150.742 306.594 145.619 315.828C140.312 325.394 129.33 321.577 119.698 326.881C109.47 332.514 106.916 344.244 95.2164 343.996Z"
        stroke="#B53A25" stroke-width="27" stroke-linecap="round" stroke-linejoin="round" class="jwGXznLG_15"></path>
    <path
        d="M94.292 327.997C85.9628 327.822 84.391 319.554 77.131 315.536C69.7562 311.455 60.9408 314.886 57.0657 307.489C53.4721 300.628 60.0847 295.725 60.4979 288.019C60.9885 278.871 53.2268 272.282 58.3858 264.655C63.1574 257.6 71.6949 261.392 78.9791 256.867C84.9074 253.184 85.5478 246.437 92.4439 245.185C101.312 243.575 104.178 252.903 112.245 256.867C119.439 260.402 126.79 258.077 131.254 264.655C136.437 272.291 128.41 278.841 128.614 288.019C128.785 295.688 135.011 300.766 131.254 307.489C127.362 314.454 119.309 311.674 112.245 315.536C104.745 319.637 102.872 328.178 94.292 327.997Z"
        stroke="#B53A25" stroke-width="27" stroke-linecap="round" stroke-linejoin="round" class="jwGXznLG_16"></path>
    <path
        d="M93.5888 303.451C83.9109 303.503 75.9522 294.875 76.6676 285.683C77.3478 276.942 84.3848 270.424 93.5889 270.474C102.753 270.524 109.649 276.98 110.327 285.683C111.04 294.846 103.235 303.398 93.5888 303.451Z"
        stroke="#F74700" stroke-width="26" stroke-linecap="round" stroke-linejoin="round" class="jwGXznLG_17"></path>
    <path
        d="M88.7199 286.393C88.5074 289.125 90.7921 291.513 93.5315 291.498C96.257 291.483 98.5024 289.111 98.2909 286.393C98.0951 283.878 96.0546 282.038 93.5315 282.024C90.9934 282.01 88.9169 283.863 88.7199 286.393Z"
        stroke="#B53A25" stroke-width="10" stroke-linecap="round" stroke-linejoin="round" class="jwGXznLG_18"></path>
    <path
        d="M296 744C360.609 809 432 804 432 804C432 804 386 788 382.5 744C379 700 376.577 654.275 338.5 619.5C307.667 591.341 238 583 238 583C238 583 248.887 696.602 296 744Z"
        stroke="#677662" stroke-width="18" stroke-linecap="round" stroke-linejoin="round" class="jwGXznLG_19"></path>
    <path
        d="M308.104 738.996C361.239 799.34 417.912 801.918 417.912 801.918C417.912 801.918 380.885 784.218 376.931 747.174C372.978 710.131 369.837 671.749 338.615 639.133C313.334 612.723 257.678 599.175 257.678 599.175C257.678 599.175 269.357 694.993 308.104 738.996Z"
        stroke="#677662" stroke-width="18" stroke-linecap="round" stroke-linejoin="round" class="jwGXznLG_20"></path>
    <path
        d="M314.863 748.669C363.28 802.261 417.912 801.918 417.912 801.918C417.912 801.918 382.994 787.237 380.967 752.95C378.941 718.663 377.763 683.092 349.177 654.246C326.029 630.888 272.912 620.973 272.912 620.973C272.912 620.973 279.558 709.589 314.863 748.669Z"
        stroke="#677662" stroke-width="18" stroke-linecap="round" stroke-linejoin="round" class="jwGXznLG_21"></path>
    <path
        d="M326.291 740.497C367.711 789.503 407.666 795.315 407.666 795.315C407.666 795.315 380.467 779.476 375.161 751.351C369.854 723.226 365.026 694.151 340.883 667.492C321.333 645.906 281.343 631.916 281.343 631.916C281.343 631.916 296.088 704.762 326.291 740.497Z"
        stroke="#677662" stroke-width="18" stroke-linecap="round" stroke-linejoin="round" class="jwGXznLG_22"></path>
    <path
        d="M334.175 730.05C363.454 765.667 389.605 771.66 389.605 771.66C389.605 771.66 371.203 759.451 366.35 739.942C361.496 720.434 356.903 700.299 339.933 680.842C326.191 665.087 299.604 653.497 299.604 653.497C299.604 653.497 312.824 704.078 334.175 730.05Z"
        stroke="#677662" stroke-width="18" stroke-linecap="round" stroke-linejoin="round" class="jwGXznLG_23"></path>
    <path
        d="M339.045 713.253C361.208 741.56 378.116 748.696 378.116 748.696C378.116 748.696 365.325 738.058 360.129 723.804C354.933 709.55 349.83 694.886 337.116 679.314C326.822 666.704 309.017 655.586 309.017 655.586C309.017 655.586 322.883 692.612 339.045 713.253Z"
        stroke="#677662" stroke-width="18" stroke-linecap="round" stroke-linejoin="round" class="jwGXznLG_24"></path>
    <path
        d="M578.373 744.19C513.764 809.19 442.373 804.19 442.373 804.19C442.373 804.19 488.373 788.19 491.873 744.19C495.373 700.19 497.795 654.465 535.873 619.69C566.705 591.532 636.373 583.19 636.373 583.19C636.373 583.19 625.486 696.792 578.373 744.19Z"
        stroke="#677662" stroke-width="18" stroke-linecap="round" stroke-linejoin="round" class="jwGXznLG_25"></path>
    <path
        d="M566.269 739.186C513.134 799.53 456.461 802.108 456.461 802.108C456.461 802.108 493.488 784.409 497.441 747.365C501.394 710.321 504.536 671.939 535.757 639.323C561.039 612.913 616.694 599.365 616.694 599.365C616.694 599.365 605.015 695.183 566.269 739.186Z"
        stroke="#677662" stroke-width="18" stroke-linecap="round" stroke-linejoin="round" class="jwGXznLG_26"></path>
    <path
        d="M559.509 748.859C511.092 802.452 456.461 802.108 456.461 802.108C456.461 802.108 491.379 787.427 493.405 753.14C495.432 718.853 496.609 683.282 525.196 654.436C548.344 631.079 601.461 621.163 601.461 621.163C601.461 621.163 594.815 709.779 559.509 748.859Z"
        stroke="#677662" stroke-width="18" stroke-linecap="round" stroke-linejoin="round" class="jwGXznLG_27"></path>
    <path
        d="M548.081 740.688C506.662 789.694 466.707 795.505 466.707 795.505C466.707 795.505 493.906 779.666 499.212 751.541C504.518 723.416 509.346 694.341 533.49 667.683C553.039 646.096 593.03 632.106 593.03 632.106C593.03 632.106 578.285 704.952 548.081 740.688Z"
        stroke="#677662" stroke-width="18" stroke-linecap="round" stroke-linejoin="round" class="jwGXznLG_28"></path>
    <path
        d="M540.198 730.24C510.918 765.858 484.767 771.851 484.767 771.851C484.767 771.851 503.169 759.641 508.023 740.133C512.877 720.624 517.469 700.489 534.44 681.032C548.181 665.277 574.768 653.688 574.768 653.688C574.768 653.688 561.548 704.268 540.198 730.24Z"
        stroke="#677662" stroke-width="18" stroke-linecap="round" stroke-linejoin="round" class="jwGXznLG_29"></path>
    <path
        d="M535.328 713.443C513.164 741.75 496.256 748.887 496.256 748.887C496.256 748.887 509.048 738.248 514.244 723.994C519.439 709.741 524.543 695.076 537.256 679.504C547.551 666.895 565.355 655.776 565.355 655.776C565.355 655.776 551.489 692.802 535.328 713.443Z"
        stroke="#677662" stroke-width="18" stroke-linecap="round" stroke-linejoin="round" class="jwGXznLG_30"></path>
</svg>