<svg width="244" height="185" viewBox="0 0 244 185" fill="none" xmlns="http://www.w3.org/2000/svg">
<g clip-path="url(#clip0)">
<path d="M205.611 88.0463C205.611 87.3348 205.329 86.6525 204.827 86.1494C204.325 85.6464 203.645 85.3638 202.935 85.3638L78.6675 85.3638C77.9693 85.3815 77.3056 85.6719 76.8181 86.1732C76.3305 86.6745 76.0576 87.347 76.0576 88.0471C76.0576 88.7473 76.3305 89.4197 76.8181 89.921C77.3056 90.4223 77.9693 90.7128 78.6675 90.7305L202.935 90.7305C203.645 90.73 204.325 90.447 204.827 89.9437C205.329 89.4403 205.611 88.7579 205.611 88.0463Z" fill="#91A88C"/>
<path d="M133.426 88.281C133.427 87.9286 133.358 87.5796 133.223 87.2539C133.089 86.9283 132.892 86.6324 132.643 86.3831C132.395 86.1338 132.1 85.9361 131.775 85.8012C131.45 85.6662 131.102 85.5968 130.751 85.5968L126.501 85.5968C126.04 85.5968 114.723 85.6088 101.532 91.9125C93.8458 95.5675 86.9755 100.742 81.3338 107.125C74.2991 115.079 69.0432 125.016 65.7147 136.659C65.6087 137 65.5718 137.359 65.6063 137.715C65.6407 138.071 65.7457 138.417 65.9152 138.731C66.0846 139.046 66.3151 139.324 66.5931 139.548C66.871 139.772 67.1908 139.938 67.5338 140.037C67.8767 140.135 68.2358 140.164 68.59 140.121C68.9442 140.079 69.2863 139.966 69.5963 139.789C69.9063 139.612 70.1778 139.374 70.3951 139.091C70.6123 138.807 70.7708 138.483 70.8612 138.137C73.9523 127.326 78.7895 118.129 85.2381 110.801C90.3718 104.963 96.6258 100.222 103.627 96.8595C115.742 91.0115 126.385 90.9584 126.491 90.9584L130.751 90.9584C131.459 90.9584 132.139 90.6765 132.641 90.1745C133.143 89.6725 133.425 88.9916 133.426 88.281Z" fill="#91A88C"/>
<path d="M221.626 88.4916C221.626 86.4927 221.035 84.5388 219.927 82.8768C218.82 81.2148 217.245 79.9194 215.403 79.1544C213.561 78.3895 211.534 78.1894 209.578 78.5793C207.623 78.9693 205.826 79.9318 204.417 81.3453C203.007 82.7587 202.047 84.5595 201.658 86.5199C201.269 88.4804 201.468 90.5125 202.231 92.3592C202.994 94.2059 204.286 95.7843 205.944 96.8948C207.602 98.0054 209.551 98.5981 211.545 98.5981C214.218 98.594 216.779 97.5279 218.669 95.6335C220.559 93.739 221.622 91.1708 221.626 88.4916ZM206.81 88.4916C206.81 87.5532 207.088 86.6359 207.608 85.8557C208.128 85.0756 208.868 84.4676 209.733 84.1088C210.598 83.75 211.549 83.6565 212.467 83.8401C213.385 84.0236 214.228 84.4761 214.89 85.1401C215.551 85.8041 216.001 86.6499 216.183 87.5705C216.365 88.491 216.27 89.4449 215.911 90.3115C215.552 91.1781 214.944 91.9184 214.165 92.4388C213.386 92.9591 212.471 93.2362 211.535 93.2348C210.282 93.2316 209.081 92.7307 208.195 91.8416C207.31 90.9526 206.812 89.748 206.81 88.4916Z" fill="#91A88C"/>
<path d="M113.648 137.398C113.648 135.4 113.057 133.446 111.949 131.784C110.841 130.122 109.267 128.826 107.425 128.061C105.582 127.296 103.555 127.096 101.6 127.486C99.6443 127.876 97.848 128.839 96.4381 130.252C95.0282 131.666 94.0681 133.466 93.6791 135.427C93.2901 137.387 93.4897 139.419 94.2527 141.266C95.0158 143.113 96.3079 144.691 97.9658 145.802C99.6236 146.912 101.573 147.505 103.567 147.505C106.239 147.501 108.801 146.435 110.691 144.541C112.581 142.646 113.644 140.078 113.648 137.398ZM98.8335 137.398C98.8332 136.46 99.1105 135.543 99.6302 134.763C100.15 133.982 100.889 133.374 101.753 133.015C102.618 132.656 103.57 132.562 104.488 132.745C105.405 132.928 106.249 133.379 106.91 134.043C107.572 134.706 108.023 135.552 108.205 136.472C108.388 137.392 108.294 138.346 107.936 139.213C107.577 140.079 106.971 140.82 106.192 141.341C105.414 141.862 104.499 142.14 103.563 142.14C102.309 142.138 101.107 141.638 100.221 140.749C99.3342 139.86 98.8354 138.655 98.8335 137.398Z" fill="#91A88C"/>
<path d="M205.611 88.0857C205.611 87.3741 205.329 86.6916 204.827 86.1883C204.325 85.6849 203.645 85.4019 202.935 85.4015L193.301 85.4015L193.171 85.4152C182.362 86.4652 175.208 90.5541 169.25 99.0966C166.892 102.476 164.739 106.161 162.656 109.717C159.463 115.183 156.445 120.346 152.746 124.546C149.715 127.972 146.29 130.634 142.567 132.436C138.905 134.209 135.138 135.065 131.37 134.985L111.84 134.985C111.483 134.976 111.127 135.039 110.795 135.169C110.462 135.3 110.159 135.496 109.903 135.746C109.647 135.997 109.444 136.295 109.305 136.625C109.166 136.956 109.095 137.31 109.095 137.668C109.095 138.027 109.166 138.381 109.305 138.711C109.444 139.041 109.647 139.34 109.903 139.59C110.159 139.84 110.462 140.036 110.795 140.167C111.127 140.298 111.483 140.361 111.84 140.352L131.273 140.352C135.886 140.446 140.464 139.41 144.882 137.268C149.248 135.155 153.24 132.071 156.742 128.102C160.797 123.508 164.09 117.876 167.273 112.427C169.301 108.956 171.398 105.368 173.634 102.165C178.646 94.9838 184.425 91.6726 193.561 90.7613L202.935 90.7613C203.643 90.7609 204.323 90.4791 204.824 89.9776C205.326 89.4761 205.608 88.7958 205.611 88.0857Z" fill="#91A88C"/>
<path d="M113.648 38.9322C113.648 36.9333 113.057 34.9793 111.949 33.3173C110.841 31.6553 109.267 30.3599 107.425 29.595C105.582 28.8301 103.555 28.6299 101.6 29.0199C99.6443 29.4098 97.848 30.3724 96.4381 31.7858C95.0282 33.1992 94.0681 35 93.6791 36.9605C93.2901 38.921 93.4897 40.953 94.2527 42.7998C95.0158 44.6465 96.3079 46.2249 97.9658 47.3354C99.6236 48.4459 101.573 49.0387 103.567 49.0387C106.239 49.0346 108.801 47.9685 110.691 46.074C112.58 44.1796 113.644 41.6113 113.648 38.9322ZM98.8335 38.9322C98.8346 37.9942 99.113 37.0776 99.6335 36.2982C100.154 35.5188 100.893 34.9117 101.758 34.5535C102.623 34.1954 103.574 34.1023 104.492 34.286C105.409 34.4697 106.252 34.9221 106.913 35.5858C107.574 36.2495 108.024 37.0948 108.206 38.0149C108.388 38.935 108.294 39.8884 107.935 40.7548C107.577 41.6212 106.97 42.3616 106.192 42.8823C105.414 43.4031 104.499 43.6808 103.563 43.6805C102.308 43.6791 101.105 43.1782 100.218 42.2878C99.331 41.3974 98.8331 40.1905 98.8335 38.9322Z" fill="#91A88C"/>
<path d="M205.611 88.245C205.611 87.5334 205.329 86.8509 204.827 86.3476C204.325 85.8443 203.645 85.5613 202.935 85.5608L193.561 85.5608C184.425 84.6495 178.646 81.3384 173.634 74.1576C171.398 70.9544 169.301 67.3657 167.28 63.8935C164.097 58.4446 160.804 52.8124 156.749 48.2182C153.246 44.2493 149.255 41.1659 144.889 39.0522C140.471 36.9127 135.891 35.8763 131.28 35.9688L111.84 35.9688C111.483 35.9598 111.127 36.0225 110.795 36.1533C110.462 36.2841 110.159 36.4803 109.903 36.7303C109.647 36.9804 109.444 37.2793 109.305 37.6093C109.166 37.9394 109.095 38.294 109.095 38.6522C109.095 39.0104 109.166 39.365 109.305 39.695C109.444 40.0251 109.647 40.324 109.903 40.574C110.159 40.8241 110.462 41.0203 110.795 41.1511C111.127 41.2819 111.483 41.3446 111.84 41.3355L131.358 41.3355C135.126 41.255 138.893 42.1115 142.555 43.8844C146.278 45.6865 149.703 48.3381 152.734 51.7743C156.442 55.9745 159.459 61.1374 162.644 66.6034C164.727 70.1664 166.88 73.851 169.238 77.2238C175.2 85.7629 182.354 89.8552 193.16 90.9052L193.289 90.9189L202.923 90.9189C203.275 90.9203 203.623 90.8522 203.948 90.7186C204.274 90.5849 204.57 90.3883 204.819 90.14C205.069 89.8917 205.267 89.5966 205.403 89.2714C205.539 88.9463 205.609 88.5975 205.611 88.245Z" fill="#91A88C"/>
<path d="M133.426 88.0069C133.426 87.6545 133.357 87.3055 133.223 86.9798C133.088 86.6542 132.891 86.3583 132.643 86.109C132.394 85.8597 132.099 85.662 131.774 85.5271C131.45 85.3921 131.101 85.3227 130.75 85.3227L126.5 85.3227C126.384 85.3227 115.736 85.2747 103.623 79.4284C96.6223 76.0649 90.3686 71.3235 85.234 65.4866C78.7854 58.1568 73.9481 48.9599 70.8571 38.1494C70.6492 37.4797 70.1881 36.9182 69.5725 36.585C68.9569 36.2519 68.2356 36.1735 67.5631 36.3667C66.8905 36.5598 66.3201 37.0092 65.9739 37.6187C65.6277 38.2282 65.5332 38.9493 65.7106 39.6277C69.0391 51.2759 74.295 61.211 81.3297 69.1609C86.9723 75.5446 93.8438 80.7191 101.531 84.3737C114.722 90.6774 126.039 90.6928 126.514 90.6894L130.75 90.6894C131.46 90.6894 132.14 90.4068 132.642 89.9037C133.144 89.4007 133.426 88.7184 133.426 88.0069Z" fill="#91A88C"/>
<path d="M73.2901 137.236C73.2908 138.163 73.535 139.074 73.9981 139.877C74.4612 140.68 75.1269 141.346 75.9283 141.809C76.7295 142.273 77.3949 142.94 77.8575 143.743C78.3201 144.546 78.5636 145.457 78.5636 146.385C78.5636 147.312 78.3201 148.223 77.8575 149.026C77.3949 149.829 76.7295 150.496 75.9283 150.96C75.1284 151.425 74.4646 152.092 74.0036 152.896C73.5426 153.699 73.3006 154.61 73.302 155.537C73.3025 156.464 73.0595 157.376 72.5973 158.179C72.1352 158.982 71.4702 159.65 70.6693 160.114C69.8684 160.578 68.9597 160.822 68.0346 160.823C67.1096 160.823 66.2007 160.579 65.3994 160.116C64.5983 159.652 63.6896 159.408 62.7646 159.408C61.8396 159.408 60.9309 159.652 60.1298 160.116C59.3289 160.58 58.4201 160.825 57.4948 160.826C56.5696 160.826 55.6605 160.582 54.859 160.119C54.0575 159.656 53.3918 158.989 52.9289 158.186C52.466 157.383 52.2222 156.471 52.222 155.544C52.2212 154.616 51.9771 153.706 51.514 152.903C51.0509 152.1 50.3852 151.434 49.5838 150.97C48.783 150.506 48.1181 149.839 47.6558 149.036C47.1936 148.233 46.9502 147.322 46.9502 146.395C46.9502 145.468 47.1936 144.557 47.6558 143.754C48.1181 142.951 48.783 142.284 49.5838 141.82C50.385 141.356 51.0501 140.688 51.5124 139.885C51.9746 139.081 52.2176 138.17 52.2169 137.243C52.2164 136.315 52.4595 135.404 52.9216 134.601C53.3837 133.797 54.0487 133.13 54.8496 132.666C55.6506 132.202 56.5592 131.957 57.4843 131.957C58.4094 131.957 59.3182 132.2 60.1195 132.664C60.9206 133.127 61.8293 133.372 62.7543 133.372C63.6793 133.372 64.588 133.127 65.3891 132.664C66.1899 132.201 67.0979 131.958 68.0222 131.958C68.9464 131.958 69.8543 132.202 70.6548 132.665C71.4553 133.129 72.1201 133.795 72.5827 134.597C73.0452 135.399 73.2892 136.309 73.2901 137.236Z" fill="#F74700"/>
<path d="M68.9045 141.047C68.9047 141.588 69.047 142.119 69.3169 142.588C69.5868 143.056 69.9749 143.445 70.4423 143.716C70.91 143.986 71.2983 144.376 71.5684 144.845C71.8384 145.313 71.9806 145.845 71.9806 146.386C71.9806 146.928 71.8384 147.46 71.5684 147.928C71.2983 148.397 70.91 148.786 70.4423 149.057C69.9747 149.328 69.5864 149.717 69.3165 150.186C69.0465 150.654 68.9044 151.186 68.9045 151.727C68.9048 152.269 68.763 152.801 68.4932 153.27C68.2234 153.739 67.8351 154.128 67.3675 154.399C66.8999 154.67 66.3694 154.813 65.8293 154.813C65.2893 154.813 64.7587 154.67 64.291 154.4C63.8235 154.129 63.2931 153.987 62.7532 153.987C62.2133 153.987 61.683 154.129 61.2154 154.4C60.7481 154.67 60.218 154.813 59.6784 154.813C59.1388 154.813 58.6086 154.671 58.1411 154.4C57.6737 154.13 57.2854 153.741 57.0152 153.273C56.745 152.805 56.6025 152.274 56.602 151.733C56.602 151.191 56.4599 150.66 56.19 150.191C55.92 149.722 55.5317 149.333 55.0641 149.062C54.5969 148.791 54.2089 148.402 53.9391 147.934C53.6694 147.465 53.5273 146.933 53.5273 146.392C53.5273 145.851 53.6694 145.32 53.9391 144.851C54.2089 144.383 54.5969 143.993 55.0641 143.723C55.532 143.452 55.9204 143.062 56.1904 142.593C56.4603 142.124 56.6023 141.592 56.602 141.051C56.6016 140.509 56.7435 139.977 57.0133 139.508C57.2831 139.039 57.6713 138.65 58.1389 138.379C58.6065 138.108 59.137 137.965 59.6771 137.965C60.2171 137.965 60.7477 138.108 61.2154 138.378C61.683 138.649 62.2133 138.791 62.7532 138.791C63.2931 138.791 63.8235 138.649 64.291 138.378C64.7585 138.108 65.2887 137.965 65.8285 137.965C66.3682 137.965 66.8985 138.107 67.366 138.378C67.8335 138.648 68.2218 139.037 68.4919 139.506C68.7619 139.974 68.9042 140.506 68.9045 141.047Z" fill="#F4F0E1"/>
<path d="M67.8214 146.392C67.8214 149.196 65.554 151.469 62.7569 151.469C59.9598 151.469 57.6924 149.196 57.6924 146.392C57.6924 143.587 59.9598 141.314 62.7569 141.314C65.554 141.314 67.8214 143.587 67.8214 146.392Z" fill="#F74700"/>
<path d="M64.7561 146.391C64.7561 147.498 63.8611 148.396 62.757 148.396C61.6529 148.396 60.7578 147.498 60.7578 146.391C60.7578 145.285 61.6529 144.387 62.757 144.387C63.8611 144.387 64.7561 145.285 64.7561 146.391Z" fill="#F4F0E1"/>
<path d="M68.2469 69.4812C68.2476 71.3881 68.7492 73.2612 69.7012 74.912C70.6533 76.5629 72.0222 77.9333 73.6703 78.8853C80.8963 83.0633 80.9014 93.5175 73.6788 97.7022C72.0321 98.6568 70.665 100.029 69.7148 101.681C68.7646 103.333 68.2648 105.206 68.2657 107.113C68.2657 115.476 59.2438 120.707 52.0178 116.535C50.3708 115.581 48.5024 115.079 46.6004 115.079C44.6985 115.079 42.8301 115.581 41.1831 116.535C33.9605 120.721 24.9284 115.507 24.9232 107.136C24.9224 105.229 24.4207 103.356 23.4687 101.705C22.5166 100.054 21.1478 98.6836 19.4999 97.7314C12.2739 93.5535 12.2687 83.0992 19.4896 78.9145C21.1365 77.9602 22.5039 76.5881 23.4541 74.9361C24.4043 73.2841 24.9039 71.4104 24.9027 69.5035C24.9027 61.1408 33.9263 55.9094 41.1523 60.0822C42.7996 61.0358 44.6683 61.5379 46.5705 61.5379C48.4728 61.5379 50.3415 61.0358 51.9888 60.0822C59.2097 55.8957 68.2418 61.1185 68.2469 69.4812Z" fill="#F74700"/>
<path d="M60.0111 76.6379C60.0132 77.8188 60.3248 78.9784 60.9146 80.0006C61.5045 81.0227 62.3519 81.8715 63.3721 82.462C67.8505 85.0503 67.854 91.5304 63.3721 94.1238C62.3513 94.7153 61.5038 95.5656 60.9147 96.5895C60.3256 97.6133 60.0158 98.7745 60.0162 99.9565C60.0162 105.14 54.4237 108.383 49.9452 105.794C48.9242 105.203 47.7659 104.892 46.5868 104.892C45.4077 104.892 44.2494 105.203 43.2284 105.794C38.7517 108.388 33.1472 105.152 33.1472 99.9702C33.1451 98.7893 32.8335 97.6297 32.2437 96.6075C31.6538 95.5854 30.8063 94.7366 29.7862 94.1461C25.306 91.5578 25.3026 85.0777 29.7862 82.4843C30.8078 81.8936 31.6563 81.0438 32.2466 80.0203C32.8368 78.9968 33.148 77.8356 33.1489 76.6533C33.1489 71.4699 38.7414 68.2273 43.2199 70.8155C44.2409 71.4067 45.3992 71.718 46.5783 71.718C47.7574 71.718 48.9157 71.4067 49.9367 70.8155C54.41 68.2187 60.0077 71.4562 60.0111 76.6379Z" fill="#F4F0E1"/>
<path d="M56.9978 88.3084C56.9978 94.0746 52.3351 98.7489 46.5834 98.7489C40.8316 98.7489 36.1689 94.0746 36.1689 88.3084C36.1689 82.5423 40.8316 77.8679 46.5834 77.8679C52.3351 77.8679 56.9978 82.5423 56.9978 88.3084Z" fill="#F74700"/>
<path d="M50.6948 88.3084C50.6948 90.5846 48.8542 92.4298 46.5837 92.4298C44.3133 92.4298 42.4727 90.5846 42.4727 88.3084C42.4727 86.0322 44.3133 84.187 46.5837 84.187C48.8542 84.187 50.6948 86.0322 50.6948 88.3084Z" fill="#F4F0E1"/>
<path d="M152.599 80.2883C152.392 79.4986 152.408 78.661 152.23 77.8644C150.231 68.8183 144.934 62.3758 136.655 58.4223C134.682 57.4802 132.507 56.8926 130.369 56.377C124.869 55.0512 119.263 54.1981 113.722 52.194C113.622 52.8586 113.445 53.4067 113.479 53.9429C113.576 55.4846 113.737 57.0262 113.91 58.5525C114.364 62.5608 115.673 66.2351 118.156 69.4589C123.545 76.4581 130.735 79.9799 139.439 80.6411C142.368 80.8638 145.264 81.1859 147.917 82.6967C149.626 83.6662 150.163 85.7886 150.327 87.2498C150.341 87.3859 150.398 87.514 150.489 87.6162C150.58 87.7184 150.7 87.7897 150.833 87.82C150.967 87.8504 151.106 87.8383 151.232 87.7855C151.358 87.7328 151.464 87.6419 151.536 87.5255C152.287 86.3333 153.05 84.1202 152.599 80.2883Z" fill="#91A88C"/>
<path d="M152.599 95.2887C152.392 96.0784 152.408 96.916 152.23 97.7126C150.231 106.759 144.934 113.201 136.655 117.155C134.682 118.097 132.507 118.684 130.369 119.2C124.869 120.526 119.263 121.379 113.722 123.383C113.622 122.718 113.445 122.17 113.479 121.634C113.576 120.092 113.737 118.551 113.91 117.025C114.364 113.016 115.673 109.342 118.156 106.118C123.545 99.1189 130.735 95.5971 139.439 94.9358C142.368 94.7132 145.264 94.3911 147.917 92.8803C149.626 91.909 150.163 89.7867 150.327 88.3272C150.341 88.191 150.398 88.0627 150.488 87.9602C150.579 87.8578 150.7 87.7863 150.833 87.7557C150.966 87.7251 151.105 87.7371 151.232 87.7898C151.358 87.8425 151.464 87.9334 151.536 88.0497C152.287 89.2454 153.05 91.4568 152.599 95.2887Z" fill="#91A88C"/>
<path d="M73.2901 21.2733C73.291 22.2007 73.5353 23.1114 73.9984 23.9142C74.4614 24.717 75.127 25.3835 75.9283 25.8469C76.7295 26.3105 77.3949 26.9774 77.8575 27.7806C78.3201 28.5837 78.5636 29.4948 78.5636 30.4222C78.5636 31.3497 78.3201 32.2607 77.8575 33.0639C77.3949 33.867 76.7295 34.5339 75.9283 34.9976C75.1291 35.4619 74.4658 36.1287 74.0049 36.9312C73.5439 37.7336 73.3015 38.6435 73.302 39.5695C73.3025 40.4968 73.0595 41.408 72.5973 42.2114C72.1352 43.0147 71.4702 43.682 70.6693 44.146C69.8684 44.6101 68.9597 44.8546 68.0346 44.855C67.1096 44.8554 66.2007 44.6116 65.3994 44.1482C64.5983 43.6845 63.6896 43.4404 62.7646 43.4404C61.8396 43.4404 60.9309 43.6845 60.1298 44.1482C59.3289 44.6126 58.4201 44.8574 57.4948 44.8579C56.5696 44.8585 55.6605 44.6148 54.859 44.1515C54.0575 43.6881 53.3918 43.0213 52.9289 42.2181C52.466 41.415 52.2222 40.5039 52.222 39.5763C52.2212 38.6489 51.9771 37.7381 51.514 36.9353C51.0509 36.1324 50.3852 35.4659 49.5838 35.0027C48.783 34.5387 48.1181 33.8717 47.6558 33.0686C47.1936 32.2655 46.9502 31.3546 46.9502 30.4274C46.9502 29.5002 47.1936 28.5893 47.6558 27.7862C48.1181 26.9831 48.783 26.316 49.5838 25.8521C50.385 25.3881 51.0501 24.7209 51.5124 23.9174C51.9746 23.1139 52.2176 22.2025 52.2169 21.275C52.2164 20.3476 52.4595 19.4365 52.9216 18.6331C53.3837 17.8297 54.0487 17.1625 54.8496 16.6984C55.6506 16.2344 56.5592 15.9899 57.4843 15.9895C58.4094 15.9891 59.3182 16.2329 60.1195 16.6963C60.9207 17.1596 61.8294 17.4035 62.7543 17.4035C63.6793 17.4035 64.5879 17.1596 65.3891 16.6963C66.1903 16.2334 67.0988 15.99 68.0235 15.9905C68.9481 15.991 69.8564 16.2354 70.657 16.6992C71.4576 17.163 72.1224 17.8299 72.5846 18.6328C73.0468 19.4356 73.2901 20.3463 73.2901 21.2733Z" fill="#F74700"/>
<path d="M68.904 25.0847C68.904 25.626 69.046 26.1577 69.316 26.6265C69.5859 27.0953 69.9742 27.4846 70.4418 27.7552C70.9091 28.0259 71.2971 28.4151 71.5668 28.8837C71.8366 29.3523 71.9786 29.8838 71.9786 30.4249C71.9786 30.9659 71.8366 31.4974 71.5668 31.966C71.2971 32.4346 70.9091 32.8238 70.4418 33.0945C69.974 33.3653 69.5855 33.7548 69.3156 34.2239C69.0456 34.693 68.9037 35.2252 68.904 35.7667C68.9043 36.3081 68.7625 36.8401 68.4927 37.3091C68.2229 37.7781 67.8347 38.1676 67.367 38.4385C66.8994 38.7093 66.3689 38.8519 65.8289 38.852C65.2888 38.8521 64.7583 38.7096 64.2906 38.4389C63.823 38.1683 63.2926 38.0259 62.7527 38.0259C62.2129 38.0259 61.6825 38.1683 61.2149 38.4389C60.7475 38.7095 60.2172 38.852 59.6775 38.852C59.1377 38.8521 58.6074 38.7098 58.1399 38.4393C57.6724 38.1689 57.2841 37.7798 57.0141 37.3113C56.744 36.8428 56.6017 36.3113 56.6015 35.7702C56.6012 35.2292 56.459 34.6978 56.1891 34.2293C55.9191 33.7609 55.531 33.3719 55.0637 33.1014C54.596 32.8308 54.2076 32.4415 53.9376 31.9727C53.6676 31.504 53.5254 30.9722 53.5254 30.4308C53.5254 29.8895 53.6676 29.3577 53.9376 28.889C54.2076 28.4202 54.596 28.0309 55.0637 27.7603C55.5313 27.4897 55.9195 27.1004 56.1895 26.6316C56.4594 26.1629 56.6015 25.6311 56.6015 25.0898C56.6011 24.5484 56.743 24.0165 57.0128 23.5475C57.2826 23.0785 57.6708 22.689 58.1384 22.4181C58.6061 22.1472 59.1366 22.0046 59.6766 22.0045C60.2167 22.0044 60.7472 22.1469 61.2149 22.4176C61.6825 22.6882 62.2129 22.8307 62.7527 22.8307C63.2926 22.8307 63.823 22.6882 64.2906 22.4176C64.7579 22.1471 65.288 22.0047 65.8276 22.0045C66.3672 22.0044 66.8974 22.1466 67.3648 22.4168C67.8323 22.6871 68.2206 23.0758 68.4908 23.5441C68.7609 24.0124 68.9034 24.5437 68.904 25.0847Z" fill="#F4F0E1"/>
<path d="M67.8214 30.429C67.8214 33.2331 65.554 35.5063 62.7569 35.5063C59.9598 35.5063 57.6924 33.2331 57.6924 30.429C57.6924 27.625 59.9598 25.3518 62.7569 25.3518C65.554 25.3518 67.8214 27.625 67.8214 30.429Z" fill="#F74700"/>
<path d="M64.7561 30.4291C64.7561 31.536 63.8611 32.4333 62.757 32.4333C61.6529 32.4333 60.7578 31.536 60.7578 30.4291C60.7578 29.3222 61.6529 28.4249 62.757 28.4249C63.8611 28.4249 64.7561 29.3222 64.7561 30.4291Z" fill="#F4F0E1"/>
</g>
<defs>
<clipPath id="clip0">
<rect width="185" height="244" fill="white" transform="matrix(4.37114e-08 1 1 -4.37114e-08 0 0)"/>
</clipPath>
</defs>
</svg>
