<svg width="1087" height="700" viewBox="0 0 1087 2073" fill="none" xmlns="http://www.w3.org/2000/svg">
    <path
        d="M103.611 1669.08C104.072 1645.24 85.4734 1625.25 61.6328 1624.74C38.4338 1624.24 19.6732 1641.81 17.8819 1664.94C16.047 1688.64 33.2256 1709.57 56.9032 1711.65C81.4885 1713.81 103.133 1693.76 103.611 1669.08Z"
        stroke="#A88771" stroke-width="30" stroke-linecap="round" stroke-linejoin="round" class="htQlthQL_0"></path>
    <path
        d="M108.67 1662.62C108.67 1662.62 321.754 1667.65 450 1629C542.017 1601.27 608.765 1597.03 673.5 1526C729.388 1464.67 769.113 1411.85 755.5 1330C744.068 1261.27 650.67 1185.62 650.67 1185.62"
        stroke="#A88771" stroke-width="30" stroke-linecap="round" stroke-linejoin="round" class="htQlthQL_1"></path>
    <path
        d="M255.762 1481.91C249.54 1476.45 259.808 1401.84 353.282 1388.45C446.757 1375.05 570.868 1496.07 626.246 1491.89C681.624 1487.71 676.53 1480.53 708.749 1473.25C708.749 1473.25 696.372 1505.02 654.878 1520.54C613.385 1536.06 601.346 1539.84 561.501 1528.24C521.656 1516.63 402.652 1458.54 350.312 1459.45C297.973 1460.35 261.984 1487.36 255.762 1481.91Z"
        stroke="#A88771" stroke-width="17" stroke-linecap="round" stroke-linejoin="round" class="htQlthQL_2"></path>
    <path
        d="M264.437 1464.1C258.294 1459.83 264.537 1405.97 352.371 1400.57C440.205 1395.16 563.291 1489.09 615.503 1488.63C667.714 1488.16 662.558 1482.7 692.71 1478.89C692.71 1478.89 682.476 1501.46 643.932 1510.83C605.389 1520.19 594.172 1522.39 555.926 1512.08C517.679 1501.78 402.356 1453.92 352.867 1452.14C303.378 1450.36 270.579 1468.36 264.437 1464.1Z"
        stroke="#A88771" stroke-width="17" stroke-linecap="round" stroke-linejoin="round" class="htQlthQL_3"></path>
    <path
        d="M276.588 1451.38C270.389 1448.15 272.967 1412.71 357.361 1414.73C441.754 1416.75 566.513 1487.13 616.855 1490.16C667.197 1493.18 661.874 1489.22 690.72 1488.62C690.72 1488.62 682.29 1502.98 645.703 1506.75C609.116 1510.52 598.436 1511.26 560.877 1501.95C523.318 1492.65 408.997 1453.43 361.138 1449.08C313.279 1444.73 282.787 1454.61 276.588 1451.38Z"
        stroke="#A88771" stroke-width="17" stroke-linecap="round" stroke-linejoin="round" class="htQlthQL_4"></path>
    <path
        d="M279.133 1438.95C272.73 1436.72 271.56 1419.58 354.365 1429.37C437.169 1439.15 566.599 1486.71 616.183 1493.44C665.766 1500.17 660.144 1497.67 688.312 1500.38C688.312 1500.38 681.557 1506.55 646.144 1504.59C610.73 1502.63 600.355 1501.88 562.628 1493.4C524.901 1484.92 408.932 1453.75 361.641 1446.63C314.349 1439.51 285.537 1441.18 279.133 1438.95Z"
        stroke="#A88771" stroke-width="17" stroke-linecap="round" stroke-linejoin="round" class="htQlthQL_5"></path>
    <path
        d="M651.611 1183.09C652.072 1159.25 633.473 1139.25 609.633 1138.74C586.434 1138.25 567.673 1155.81 565.882 1178.95C564.047 1202.65 581.226 1223.58 604.903 1225.66C629.488 1227.81 651.133 1207.76 651.611 1183.09Z"
        stroke="#A88771" stroke-width="30" stroke-linecap="round" stroke-linejoin="round" class="htQlthQL_6"></path>
    <path d="M345.402 1650.3C345.402 1650.3 270.834 1675.53 246 1714.5C225.025 1747.42 225.402 1812.3 225.402 1812.3"
        stroke="#A88771" stroke-width="30" stroke-linecap="round" stroke-linejoin="round" class="htQlthQL_7"></path>
    <path
        d="M372.825 2048.57C376.214 2056.12 450.542 2068.23 490.814 1982.82C531.087 1897.41 451.868 1743.21 472.138 1691.51C492.408 1639.8 497.769 1646.78 514.192 1618.12C514.192 1618.12 480.191 1620.62 453.167 1655.72C426.143 1690.82 418.988 1701.22 418.372 1742.71C417.755 1784.21 438.315 1915.03 422.074 1964.79C405.834 2014.56 369.436 2041.02 372.825 2048.57Z"
        stroke="#A88771" stroke-width="17" stroke-linecap="round" stroke-linejoin="round" class="htQlthQL_8"></path>
    <path
        d="M392.395 2045.51C394.667 2052.64 447.984 2062.49 478.958 1980.13C509.933 1897.76 456.313 1752.5 472.101 1702.74C487.889 1652.97 491.596 1659.5 504.088 1631.8C504.088 1631.8 479.516 1634.95 459.235 1669.04C438.954 1703.13 433.559 1713.2 432.173 1752.79C430.788 1792.38 442.644 1916.67 429.805 1964.5C416.966 2012.33 390.123 2038.39 392.395 2045.51Z"
        stroke="#A88771" stroke-width="17" stroke-linecap="round" stroke-linejoin="round" class="htQlthQL_9"></path>
    <path
        d="M408.122 2037.63C409.389 2044.51 444.022 2052.46 466.888 1971.2C489.753 1889.93 459.139 1750 471.036 1700.99C482.933 1651.98 485.159 1658.24 494.208 1630.84C494.208 1630.84 478.007 1634.68 463.654 1668.54C449.301 1702.41 445.452 1712.4 443.31 1751.03C441.169 1789.67 445.066 1910.47 435.162 1957.49C425.259 2004.52 406.855 2030.76 408.122 2037.63Z"
        stroke="#A88771" stroke-width="17" stroke-linecap="round" stroke-linejoin="round" class="htQlthQL_10"></path>
    <path
        d="M420.754 2038.85C421.007 2045.63 437.04 2051.78 452.017 1969.76C466.993 1887.73 459.565 1750.04 467.699 1700.67C475.833 1651.3 476.572 1657.41 482.257 1629.69C482.257 1629.69 474.373 1634.33 465.843 1668.76C457.312 1703.18 454.978 1713.32 452.001 1751.87C449.023 1790.43 444.742 1910.44 437.655 1957.73C430.568 2005.03 420.502 2032.08 420.754 2038.85Z"
        stroke="#A88771" stroke-width="17" stroke-linecap="round" stroke-linejoin="round" class="htQlthQL_11"></path>
    <path
        d="M275.611 1858.08C276.072 1834.24 257.473 1814.25 233.633 1813.74C210.434 1813.24 191.673 1830.81 189.882 1853.94C188.047 1877.64 205.226 1898.57 228.903 1900.65C253.488 1902.81 275.133 1882.76 275.611 1858.08Z"
        stroke="#A88771" stroke-width="30" stroke-linecap="round" stroke-linejoin="round" class="htQlthQL_12"></path>
    <path
        d="M505.5 1332C528.651 1346.26 567.561 1347.4 572.5 1341.5C577.439 1335.61 552.5 1301.5 534.5 1291.5C517.378 1281.99 496.355 1280.88 488 1296.06C480.833 1309.09 482.349 1317.75 505.5 1332Z"
        stroke="#F74700" stroke-width="12" stroke-linecap="round" stroke-linejoin="round" class="htQlthQL_13"></path>
    <path
        d="M511.035 1327.81C528.25 1338.41 557.184 1339.26 560.857 1334.88C564.53 1330.5 545.985 1305.13 532.6 1297.7C519.868 1290.62 504.235 1289.8 498.022 1301.09C492.692 1310.78 493.819 1317.21 511.035 1327.81Z"
        stroke="#F74700" stroke-width="12" stroke-linecap="round" stroke-linejoin="round" class="htQlthQL_14"></path>
    <path
        d="M514.033 1323.68C524.694 1330.66 543.525 1333.59 546.158 1331.64C548.79 1329.69 538.057 1314.95 529.725 1309.95C521.799 1305.18 511.645 1303.41 506.983 1308.72C502.984 1313.27 503.372 1316.71 514.033 1323.68Z"
        stroke="#F74700" stroke-width="21" stroke-linecap="round" stroke-linejoin="round" class="htQlthQL_15"></path>
    <path
        d="M69.3566 1884.93C89.1171 1866.25 100.288 1828.96 95.8737 1822.67C91.4598 1816.37 52.0604 1831.63 37.7424 1846.43C24.123 1860.51 17.6073 1880.53 30.1138 1892.53C40.8421 1902.82 49.5961 1903.6 69.3566 1884.93Z"
        stroke="#F74700" stroke-width="12" stroke-linecap="round" stroke-linejoin="round" class="htQlthQL_16"></path>
    <path
        d="M66.7442 1878.5C81.4384 1864.61 89.745 1836.88 86.4627 1832.2C83.1805 1827.52 53.8824 1838.87 43.2353 1849.87C33.1077 1860.34 28.2625 1875.22 37.5626 1884.15C45.5403 1891.8 52.05 1892.38 66.7442 1878.5Z"
        stroke="#F74700" stroke-width="12" stroke-linecap="round" stroke-linejoin="round" class="htQlthQL_17"></path>
    <path
        d="M63.5284 1874.53C73.0256 1866.04 80.7358 1848.61 79.5312 1845.56C78.3266 1842.51 61.3148 1849.07 54.3222 1855.82C47.6708 1862.24 43.3251 1871.59 47.2497 1877.47C50.6163 1882.51 54.0311 1883.02 63.5284 1874.53Z"
        stroke="#F74700" stroke-width="21" stroke-linecap="round" stroke-linejoin="round" class="htQlthQL_18"></path>
    <path d="M670.569 1186.25C670.569 1186.25 784.5 1117.68 784.5 1032.5C784.5 801.5 435.569 786.253 435.569 786.253"
        stroke="#A88771" stroke-width="30" stroke-linecap="round" stroke-linejoin="round" class="htQlthQL_19"></path>
    <path
        d="M335.595 907.88C390.679 950.51 409.36 804.417 416.545 804.896C423.73 805.375 381.1 949.073 452.469 931.829C523.839 914.585 429.477 802.022 436.183 796.274C442.889 790.527 507.074 922.728 551.141 862.375C595.208 802.022 440.973 785.737 442.889 777.115C444.805 768.493 581.106 824.056 572.696 747.896C564.285 671.737 441.452 768.972 439.536 761.787C437.62 754.602 565.511 688.023 505.158 643.476C444.805 598.93 433.309 752.686 424.688 750.77C416.066 748.854 457.259 603.72 385.889 618.569C314.519 633.418 414.15 749.333 406.486 754.123C398.822 758.914 335.595 626.233 289.612 685.628C243.629 745.022 391.637 761.787 390.679 770.409C389.721 779.031 256.56 734.006 266.621 805.397C276.681 876.787 390.679 786.696 395.948 792.443C401.217 798.19 280.511 865.251 335.595 907.88Z"
        stroke="#F74700" stroke-width="6" stroke-linecap="round" stroke-linejoin="round" class="htQlthQL_20"></path>
    <path
        d="M416.759 798.559C414.082 798.381 412.347 799.955 411.707 800.629C410.958 801.419 410.427 802.316 410.065 803.002C409.315 804.425 408.615 806.269 407.955 808.224C406.639 812.119 405.119 817.557 403.4 823.709L403.293 824.093C399.719 836.88 395.14 853.207 389.143 868.201C383.057 883.415 375.89 896.24 367.637 902.848C363.66 906.032 359.677 907.575 355.538 907.513C351.354 907.451 346.263 905.738 340.135 900.996C334.032 896.274 330.726 891.504 329.192 886.915C327.659 882.333 327.731 877.445 329.209 872.201C332.242 861.443 340.988 849.922 351.981 838.841C362.745 827.991 375.02 818.185 384.573 810.553L384.858 810.325C389.574 806.558 393.751 803.217 396.567 800.633C397.933 799.379 399.281 798.035 400.208 796.732C400.648 796.113 401.296 795.093 401.61 793.802C401.969 792.327 401.956 790.009 400.188 788.081C398.511 786.252 396.369 786.037 395.345 786.037C394.23 786.036 393.196 786.276 392.428 786.499C390.849 786.957 389.027 787.757 387.177 788.658C383.413 790.492 378.402 793.312 372.764 796.486L372.638 796.557C361.22 802.986 346.726 811.145 332.151 817.318C317.306 823.604 303.398 827.367 292.998 825.93C287.997 825.239 284.035 823.378 281.037 820.168C277.996 816.911 275.498 811.783 274.369 803.772C273.243 795.779 274.19 789.936 276.251 785.615C278.296 781.329 281.669 778.054 286.285 775.575C295.815 770.457 310.016 769.064 325.658 769.675C340.42 770.251 355.533 772.552 367.605 774.389C368.167 774.475 368.721 774.559 369.269 774.642C375.326 775.563 380.721 776.363 384.638 776.644C386.538 776.78 388.511 776.832 390.171 776.57C390.975 776.444 392.182 776.177 393.345 775.471C394.67 774.666 396.153 773.117 396.418 770.732C396.683 768.341 395.548 766.585 394.76 765.684C393.971 764.782 393.039 764.145 392.319 763.714C390.844 762.83 388.941 762.045 386.967 761.331C382.945 759.875 377.305 758.251 370.963 756.443C370.505 756.312 370.042 756.181 369.576 756.048C356.923 752.443 341.162 747.953 326.713 742.063C311.508 735.863 298.855 728.529 292.554 719.958C289.53 715.844 288.09 711.611 288.353 707.057C288.621 702.421 290.691 696.81 295.887 690.098C301.054 683.424 306.136 679.862 310.907 678.259C315.643 676.667 320.591 676.827 325.843 678.511C336.671 681.982 348.095 691.702 359.055 703.945C369.405 715.506 378.735 728.605 386.21 739.099C386.557 739.586 386.899 740.067 387.238 740.542C390.996 745.816 394.355 750.493 397.03 753.694C398.336 755.257 399.723 756.768 401.093 757.83C401.761 758.348 402.751 759.019 403.984 759.408C405.316 759.826 407.397 760.03 409.414 758.769C411.528 757.448 412.221 755.366 412.374 753.933C412.514 752.621 412.278 751.423 412.064 750.603C411.622 748.91 410.765 747.004 409.821 745.138C407.884 741.313 404.826 736.221 401.343 730.484C400.895 729.745 400.438 728.994 399.974 728.23C393.114 716.945 384.622 702.976 377.833 688.775C370.491 673.42 365.63 658.755 366.338 647.446C366.681 641.971 368.312 637.571 371.36 634.169C374.429 630.744 379.399 627.811 387.36 626.154C395.316 624.499 401.131 625.185 405.447 627.11C409.741 629.024 413.139 632.428 415.8 637.298C421.285 647.338 423.113 662.641 422.967 679.557C422.83 695.452 420.98 711.851 419.494 725.025C419.418 725.7 419.343 726.367 419.269 727.025C418.521 733.672 417.881 739.566 417.712 743.864C417.629 745.968 417.641 748.045 417.919 749.758C418.055 750.593 418.311 751.728 418.899 752.825C419.507 753.96 420.819 755.645 423.21 756.176C425.71 756.732 427.682 755.655 428.755 754.749C429.751 753.908 430.408 752.893 430.822 752.163C431.679 750.651 432.403 748.693 433.043 746.691C434.354 742.588 435.773 736.788 437.348 730.236C437.514 729.545 437.682 728.844 437.853 728.134C440.965 715.165 444.832 699.053 450.085 684.141C455.709 668.178 462.558 654.713 470.867 647.756C474.855 644.418 478.969 642.755 483.402 642.801C487.914 642.847 493.484 644.671 500.29 649.694C507.078 654.704 510.814 659.719 512.599 664.488C514.371 669.222 514.403 674.195 512.948 679.485C509.949 690.382 500.795 702.028 489.038 713.261C477.426 724.356 463.996 734.386 453.383 742.214C452.832 742.62 452.287 743.022 451.749 743.418C447.181 746.784 443.135 749.765 440.209 752.142C438.592 753.454 437.106 754.75 436.016 755.942C435.484 756.524 434.852 757.288 434.365 758.183C433.963 758.922 433.086 760.78 433.694 763.061C434.034 764.336 434.806 765.541 436.006 766.39C437.105 767.168 438.225 767.41 438.976 767.486C440.356 767.625 441.59 767.305 442.264 767.104C443.781 766.654 445.568 765.819 447.345 764.908C450.769 763.155 455.419 760.456 460.736 757.369C461.11 757.152 461.487 756.933 461.867 756.713C473.61 749.897 488.889 741.102 504.293 734.415C519.932 727.626 534.656 723.493 545.567 724.956C550.808 725.659 554.914 727.618 557.969 731.022C561.078 734.486 563.571 739.976 564.522 748.584C565.473 757.194 564.32 763.397 562.047 767.894C559.799 772.338 556.215 775.596 551.394 777.933C541.416 782.77 526.696 783.393 510.498 781.789C495.022 780.257 479.198 776.816 466.617 774.08C466.202 773.99 465.791 773.901 465.383 773.812C459.103 772.447 453.516 771.248 449.436 770.676C447.449 770.398 445.425 770.207 443.718 770.339C442.89 770.404 441.685 770.571 440.49 771.142C439.168 771.775 437.471 773.128 436.938 775.527C436.383 778.022 437.459 779.981 438.318 781.028C439.13 782.018 440.117 782.691 440.84 783.125C442.337 784.022 444.285 784.806 446.294 785.513C450.404 786.958 456.219 788.566 462.798 790.36C463.43 790.533 464.072 790.707 464.721 790.884C477.77 794.439 494.039 798.87 509.11 804.701C525.145 810.904 538.778 818.316 545.9 827.094C549.339 831.334 551.082 835.675 551.079 840.282C551.076 844.938 549.289 850.571 544.345 857.342C539.39 864.128 534.481 867.763 529.877 869.434C525.317 871.089 520.521 871.013 515.387 869.422C504.777 866.134 493.457 856.606 482.549 844.531C472.205 833.081 462.863 820.076 455.438 809.74C455.133 809.315 454.831 808.895 454.532 808.479C450.813 803.305 447.5 798.724 444.891 795.628C443.627 794.127 442.257 792.643 440.894 791.619C440.24 791.128 439.18 790.426 437.824 790.088C436.245 789.694 434.016 789.775 432.131 791.391C430.358 792.911 429.947 794.9 429.883 796.106C429.819 797.304 430.043 798.41 430.261 799.227C430.705 800.893 431.528 802.776 432.448 804.649C434.323 808.466 437.247 813.509 440.553 819.173C440.81 819.614 441.071 820.06 441.334 820.51C447.923 831.795 456.147 845.878 462.549 860.234C469.286 875.342 473.566 889.825 472.442 901.166C471.897 906.672 470.097 911.233 466.837 914.857C463.56 918.501 458.416 921.629 450.438 923.556C442.43 925.491 436.632 925.024 432.395 923.323C428.211 921.643 424.938 918.515 422.392 913.941C417.11 904.45 415.475 889.659 415.885 873.148C416.288 856.873 418.625 839.991 420.47 826.908L420.598 826.002C421.455 819.928 422.208 814.587 422.541 810.714C422.712 808.731 422.807 806.782 422.66 805.204C422.592 804.47 422.434 803.318 421.908 802.183C421.359 800.998 419.827 798.764 416.759 798.559ZM421.189 746.843C421.189 746.842 421.196 746.831 421.21 746.811C421.196 746.833 421.189 746.843 421.189 746.843ZM428.805 748.136C428.805 748.137 428.803 748.128 428.798 748.109C428.803 748.126 428.805 748.136 428.805 748.136ZM439.032 756.585C439.032 756.584 439.056 756.578 439.1 756.569C439.054 756.582 439.032 756.586 439.032 756.585ZM446.379 773.615C446.379 773.614 446.389 773.621 446.407 773.634C446.388 773.622 446.379 773.615 446.379 773.615ZM444.481 781.316C444.481 781.316 444.494 781.313 444.523 781.311C444.496 781.315 444.481 781.317 444.481 781.316ZM440.852 796.232C440.852 796.232 440.853 796.239 440.855 796.252C440.853 796.239 440.852 796.232 440.852 796.232ZM434.239 800.381C434.24 800.381 434.253 800.389 434.279 800.408C434.252 800.391 434.238 800.381 434.239 800.381ZM411.691 806.096C411.691 806.094 411.694 806.109 411.699 806.143C411.693 806.115 411.691 806.098 411.691 806.096ZM401.445 753.487C401.444 753.487 401.441 753.473 401.437 753.449C401.443 753.476 401.445 753.488 401.445 753.487ZM407.914 749.196C407.916 749.197 407.906 749.191 407.884 749.175C407.903 749.187 407.913 749.194 407.914 749.196ZM391.25 790.347C391.266 790.32 391.276 790.306 391.277 790.306C391.279 790.305 391.271 790.319 391.25 790.347ZM386.811 773.244C386.81 773.243 386.805 773.239 386.795 773.232C386.807 773.24 386.812 773.244 386.811 773.244ZM388.471 765.703C388.501 765.696 388.516 765.693 388.515 765.694C388.513 765.695 388.5 765.698 388.471 765.703Z"
        stroke="#F74700" stroke-width="11" stroke-linecap="round" stroke-linejoin="round" class="htQlthQL_21"></path>
    <path
        d="M417.573 786.086C416.053 785.984 414.648 786.083 413.362 786.317C412.693 784.168 411.531 781.969 409.653 779.92C408.967 779.172 408.256 778.524 407.535 777.961C408.271 776.386 408.809 774.596 409.033 772.583C409.047 772.462 409.059 772.341 409.07 772.22C411.257 771.937 413.61 771.204 415.949 769.742C416.761 769.234 417.495 768.687 418.159 768.111C418.863 768.369 419.61 768.59 420.401 768.766C421.085 768.918 421.753 769.026 422.405 769.094C422.977 770.497 423.746 771.849 424.713 773.094C424.691 773.183 424.671 773.272 424.651 773.363L424.986 773.437L424.651 773.363C423.987 776.349 424.173 779.035 424.767 781.331C424.455 781.564 424.145 781.812 423.839 782.074C422.236 783.448 421.05 784.95 420.174 786.449C419.355 786.271 418.489 786.147 417.573 786.086ZM411.289 685.795C411.183 698.129 409.922 710.874 408.676 722.137C402.704 712.282 396.016 701.013 390.577 689.637C383.801 675.464 380.425 663.998 380.894 656.512C381.095 653.305 381.945 651.804 382.727 650.932C383.57 649.991 385.799 648.162 391.58 646.959C397.344 645.76 400.258 646.511 401.597 647.108C402.87 647.676 404.38 648.838 405.962 651.733C409.616 658.421 411.424 670.22 411.289 685.795ZM427.341 867.583C427.695 853.294 429.731 838.328 431.453 826.105C437.352 836.226 444.075 847.961 449.364 859.821C455.543 873.678 458.45 884.932 457.706 892.437C457.383 895.697 456.438 897.544 455.309 898.798C454.127 900.113 451.544 902.1 445.713 903.509C439.791 904.94 436.885 904.266 435.697 903.789C434.668 903.376 433.406 902.518 432.01 900.01C428.647 893.967 426.964 882.792 427.341 867.583ZM470.927 764.458C480.738 758.836 492.062 752.612 503.362 747.706C517.812 741.434 529.107 738.755 536.013 739.681C538.822 740.057 539.989 740.908 540.697 741.697C541.567 742.666 543.286 745.315 544.005 751.821C544.724 758.335 543.721 761.803 542.837 763.551C542.033 765.142 540.7 766.575 538.031 767.869C531.688 770.944 520.621 771.87 505.776 770.401C493.891 769.224 481.684 766.769 470.927 764.458ZM447.898 732.889C450.775 720.913 454.193 706.888 458.749 693.958C463.956 679.177 469.559 669.184 474.804 664.793C476.928 663.015 478.243 662.786 479.151 662.795C480.295 662.807 483.245 663.267 488.355 667.038C493.409 670.769 495.277 673.817 496.001 675.75C496.684 677.576 496.858 679.749 496.014 682.815C494.064 689.901 487.438 699.022 476.711 709.272C467.592 717.985 457.104 726.05 447.898 732.889ZM486.887 832.879C478.006 823.049 469.889 811.853 463.041 802.325C474.385 805.435 487.284 809.109 499.264 813.743C514.078 819.474 524.362 825.552 529.02 831.294C530.985 833.716 531.34 835.334 531.339 836.497C531.339 837.807 530.866 840.794 527.212 845.799C523.523 850.85 520.614 852.551 518.947 853.156C517.412 853.713 515.5 853.872 512.598 852.972C505.763 850.854 496.893 843.955 486.887 832.879ZM378.333 747.405C377.894 747.28 377.454 747.154 377.014 747.029C376.642 746.923 376.268 746.816 375.892 746.709C363.916 743.297 349.671 739.238 336.722 733.959C322.694 728.239 313.469 722.335 309.57 717.031C308.002 714.897 307.752 713.481 307.82 712.316C307.901 710.909 308.597 707.788 312.524 702.716C316.361 697.759 319.397 696.051 321.243 695.431C322.981 694.846 325.099 694.736 328.16 695.717C335.251 697.99 344.251 705.098 354.292 716.314C363.248 726.318 371.411 737.692 378.333 747.405ZM369.262 786.007C358.607 792.004 345.83 799.15 333.109 804.537C319.433 810.328 308.874 812.71 302.397 811.816C299.757 811.451 298.623 810.654 297.93 809.911C297.105 809.028 295.458 806.632 294.623 800.708C293.796 794.839 294.647 791.724 295.392 790.162C296.088 788.704 297.32 787.262 299.923 785.864C306.021 782.589 316.701 781.119 331.008 781.677C344.186 782.191 357.787 784.261 369.211 785.999C369.228 786.002 369.245 786.004 369.262 786.007ZM393.414 817.77L393.272 818.28C389.902 830.338 385.762 845.059 380.405 858.452C374.784 872.505 368.955 882.065 363.696 886.276C361.515 888.022 360.272 888.169 359.618 888.159C358.827 888.148 356.371 887.838 351.96 884.424C347.624 881.069 346.104 878.347 345.521 876.604C344.945 874.88 344.801 872.672 345.697 869.493C347.719 862.323 354.154 853.241 364.171 843.145C373.614 833.626 384.46 824.924 393.414 817.77Z"
        stroke="#F74700" stroke-width="33" stroke-linecap="round" stroke-linejoin="round" class="htQlthQL_22"></path>
    <path
        d="M417.318 795.132C414.669 794.955 412.965 796.513 412.356 797.155C411.638 797.911 411.14 798.758 410.813 799.378C410.132 800.67 409.508 802.32 408.93 804.03C407.778 807.441 406.45 812.192 404.957 817.536L404.859 817.887C401.745 829.029 397.766 843.213 392.559 856.231C387.264 869.469 381.077 880.485 374.044 886.116C370.677 888.812 367.364 890.074 363.961 890.024C360.512 889.973 356.223 888.562 350.969 884.496C345.741 880.45 342.96 876.405 341.677 872.569C340.396 868.739 340.445 864.63 341.702 860.171C344.292 850.984 351.799 841.056 361.356 831.424C370.702 822.003 381.366 813.483 389.692 806.832L389.93 806.642C394.029 803.367 397.689 800.44 400.164 798.169C401.36 797.072 402.581 795.86 403.434 794.66C403.837 794.092 404.461 793.118 404.766 791.865C405.116 790.427 405.108 788.14 403.361 786.235C401.705 784.428 399.598 784.224 398.621 784.224C397.553 784.223 396.579 784.452 395.882 784.654C394.446 785.071 392.814 785.79 391.195 786.579C387.894 788.187 383.508 790.656 378.605 793.416L378.509 793.47C368.556 799.073 355.961 806.164 343.304 811.524C330.39 816.993 318.432 820.199 309.578 818.976C305.351 818.392 302.061 816.83 299.583 814.175C297.06 811.475 294.928 807.159 293.959 800.281C292.992 793.421 293.815 788.479 295.536 784.872C297.24 781.299 300.058 778.549 303.97 776.447C312.093 772.085 324.297 770.862 337.899 771.392C350.714 771.893 363.842 773.891 374.363 775.492C374.849 775.566 375.329 775.639 375.803 775.711C381.068 776.511 385.798 777.214 389.244 777.461C390.908 777.58 392.694 777.631 394.224 777.39C394.963 777.274 396.119 777.023 397.246 776.338C398.536 775.555 399.999 774.033 400.26 771.682C400.522 769.325 399.401 767.605 398.645 766.74C397.888 765.874 397.005 765.275 396.349 764.882C395.003 764.076 393.293 763.374 391.565 762.749C388.034 761.47 383.094 760.048 377.579 758.476C377.184 758.363 376.784 758.25 376.382 758.135C365.355 754.994 351.66 751.093 339.113 745.977C325.884 740.584 315.029 734.256 309.666 726.962C307.112 723.487 305.927 719.96 306.144 716.187C306.367 712.333 308.092 707.58 312.559 701.81C316.996 696.078 321.314 693.079 325.305 691.737C329.261 690.407 333.413 690.531 337.871 691.96C347.11 694.922 356.953 703.262 366.485 713.909C375.472 723.948 383.577 735.327 390.091 744.473C390.391 744.894 390.688 745.311 390.981 745.722C394.249 750.308 397.192 754.406 399.543 757.22C400.687 758.589 401.935 759.954 403.191 760.928C403.803 761.402 404.742 762.044 405.932 762.418C407.219 762.823 409.263 763.029 411.25 761.787C413.333 760.485 414.009 758.436 414.157 757.048C414.292 755.781 414.064 754.642 413.869 753.893C413.464 752.342 412.688 750.626 411.861 748.992C410.159 745.632 407.48 741.171 404.451 736.181C404.061 735.539 403.664 734.887 403.261 734.223C397.284 724.39 389.905 712.252 384.008 699.918C377.621 686.558 373.461 673.927 374.065 664.272C374.356 659.624 375.735 655.956 378.259 653.138C380.805 650.297 384.981 647.8 391.81 646.379C398.633 644.959 403.54 645.563 407.13 647.164C410.697 648.755 413.552 651.592 415.812 655.73C420.497 664.304 422.095 677.473 421.968 692.189C421.848 705.995 420.241 720.244 418.947 731.724C418.881 732.31 418.815 732.888 418.751 733.458C418.101 739.239 417.539 744.401 417.391 748.175C417.319 750.018 417.326 751.885 417.581 753.451C417.704 754.211 417.943 755.288 418.509 756.343C419.095 757.436 420.379 759.096 422.735 759.619C425.201 760.167 427.139 759.102 428.177 758.225C429.137 757.415 429.759 756.447 430.136 755.782C430.921 754.398 431.569 752.634 432.129 750.881C433.281 747.278 434.523 742.199 435.893 736.5C436.037 735.9 436.183 735.292 436.33 734.676C439.043 723.375 442.403 709.375 446.966 696.423C451.86 682.532 457.774 670.968 464.852 665.042C468.224 662.219 471.648 660.854 475.306 660.892C479.043 660.93 483.752 662.441 489.601 666.757C495.431 671.06 498.582 675.325 500.078 679.32C501.56 683.279 501.597 687.455 500.362 691.944C497.804 701.239 489.953 711.27 479.732 721.036C469.655 730.665 457.992 739.376 448.747 746.195C448.267 746.549 447.791 746.899 447.322 747.245C443.348 750.173 439.81 752.78 437.247 754.862C435.833 756.01 434.505 757.165 433.519 758.244C433.038 758.769 432.445 759.483 431.982 760.336C431.603 761.031 430.734 762.853 431.335 765.105C431.671 766.366 432.435 767.56 433.624 768.402C434.711 769.171 435.817 769.409 436.55 769.483C437.893 769.618 439.076 769.306 439.687 769.125C441.075 768.713 442.682 767.958 444.234 767.164C447.232 765.628 451.298 763.267 455.92 760.584C456.248 760.393 456.58 760.201 456.913 760.008C467.144 754.07 480.418 746.43 493.791 740.625C507.399 734.718 520.066 731.193 529.362 732.439C533.795 733.033 537.204 734.678 539.73 737.493C542.309 740.367 544.442 744.992 545.259 752.392C546.077 759.794 545.078 765.05 543.175 768.812C541.3 772.521 538.305 775.257 534.222 777.237C525.72 781.358 513.069 781.922 498.983 780.528C485.546 779.198 471.798 776.208 460.834 773.824C460.477 773.746 460.122 773.669 459.771 773.593C454.31 772.406 449.415 771.355 445.829 770.853C444.089 770.609 442.263 770.433 440.696 770.554C439.938 770.613 438.788 770.769 437.633 771.321C436.351 771.934 434.678 773.262 434.152 775.626C433.606 778.087 434.67 780.011 435.498 781.021C436.281 781.975 437.22 782.611 437.879 783.006C439.247 783.826 441 784.528 442.759 785.147C446.367 786.416 451.459 787.823 457.181 789.384C457.73 789.533 458.286 789.685 458.849 789.838C470.219 792.935 484.357 796.787 497.448 801.851C511.4 807.248 523.118 813.65 529.194 821.14C532.111 824.735 533.549 828.363 533.547 832.178C533.545 836.042 532.063 840.805 527.818 846.618C523.562 852.447 519.393 855.506 515.549 856.901C511.748 858.28 507.733 858.228 503.381 856.88C494.334 854.077 484.584 845.905 475.097 835.403C466.115 825.461 458 814.163 451.529 805.156C451.265 804.789 451.004 804.425 450.746 804.065C447.512 799.567 444.609 795.552 442.315 792.83C441.208 791.516 439.972 790.171 438.717 789.228C438.117 788.777 437.105 788.102 435.789 787.773C434.251 787.389 432.055 787.465 430.197 789.058C428.45 790.555 428.054 792.508 427.992 793.666C427.931 794.815 428.145 795.86 428.344 796.605C428.75 798.126 429.492 799.816 430.298 801.457C431.945 804.809 434.506 809.226 437.381 814.151C437.604 814.533 437.829 814.918 438.056 815.307C443.798 825.141 450.943 837.377 456.503 849.845C462.363 862.984 466.021 875.454 465.062 885.135C464.598 889.812 463.077 893.633 460.359 896.655C457.622 899.697 453.282 902.362 446.437 904.016C439.561 905.678 434.669 905.256 431.153 903.844C427.69 902.454 424.952 899.859 422.797 895.987C418.296 887.899 416.863 875.184 417.219 860.821C417.569 846.693 419.599 832.028 421.206 820.629L421.319 819.829C422.063 814.551 422.722 809.881 423.014 806.487C423.163 804.754 423.251 803.003 423.117 801.562C423.055 800.896 422.908 799.797 422.399 798.698C421.867 797.549 420.357 795.335 417.318 795.132ZM403.239 756.731C403.238 756.731 403.235 756.717 403.23 756.69C403.237 756.718 403.239 756.731 403.239 756.731ZM420.53 750.417C420.53 750.417 420.537 750.404 420.553 750.381C420.538 750.406 420.53 750.418 420.53 750.417ZM428.455 751.77C428.454 751.77 428.451 751.759 428.447 751.735C428.453 751.758 428.455 751.77 428.455 751.77ZM443.466 773.527C443.467 773.527 443.479 773.535 443.499 773.55C443.475 773.534 443.464 773.527 443.466 773.527ZM441.499 781.527C441.497 781.526 441.51 781.524 441.54 781.522C441.515 781.526 441.5 781.527 441.499 781.527ZM438.95 793.674C438.951 793.675 438.953 793.685 438.956 793.704C438.951 793.683 438.95 793.673 438.95 793.674ZM432.112 798.024C432.115 798.026 432.119 798.029 432.122 798.032C432.08 798.004 432.075 797.997 432.112 798.024ZM420.616 804.38C420.616 804.381 420.612 804.387 420.604 804.398C420.613 804.384 420.617 804.378 420.616 804.38ZM412.154 802.501C412.154 802.498 412.157 802.515 412.161 802.552C412.156 802.521 412.154 802.503 412.154 802.501ZM399.075 795.186C399.075 795.186 399.067 795.188 399.051 795.191C399.067 795.187 399.074 795.186 399.075 795.186ZM394.462 788.296C394.491 788.25 394.498 788.245 394.47 788.285C394.467 788.288 394.465 788.292 394.462 788.296ZM390.785 774.375C390.784 774.375 390.775 774.369 390.759 774.358C390.778 774.37 390.786 774.376 390.785 774.375ZM392.502 766.526C392.546 766.516 392.553 766.518 392.515 766.524C392.511 766.524 392.506 766.525 392.502 766.526ZM409.975 752.267C409.975 752.267 409.965 752.26 409.944 752.244C409.965 752.258 409.976 752.266 409.975 752.267Z"
        stroke="#F74700" stroke-width="11" stroke-linecap="round" stroke-linejoin="round" class="htQlthQL_23"></path>
    <path
        d="M416.46 796.227C413.821 796.051 412.127 797.603 411.53 798.232C410.823 798.977 410.337 799.806 410.022 800.403C409.366 801.647 408.77 803.227 408.222 804.849C407.128 808.085 405.87 812.589 404.458 817.642L404.363 817.981C401.415 828.531 397.653 841.943 392.73 854.249C387.72 866.775 381.886 877.14 375.292 882.419C372.145 884.939 369.073 886.1 365.935 886.054C362.752 886.006 358.751 884.704 353.812 880.882C348.899 877.08 346.307 873.296 345.115 869.73C343.924 866.171 343.965 862.343 345.142 858.167C347.573 849.545 354.634 840.192 363.673 831.081C372.508 822.176 382.593 814.119 390.476 807.821L390.697 807.645C394.574 804.547 398.048 801.769 400.4 799.611C401.534 798.57 402.71 797.405 403.536 796.243C403.927 795.694 404.542 794.736 404.843 793.496C405.19 792.072 405.184 789.796 403.445 787.899C401.796 786.1 399.701 785.901 398.741 785.9C397.69 785.899 396.737 786.125 396.066 786.319C394.682 786.721 393.119 787.411 391.583 788.159C388.448 789.686 384.287 792.029 379.649 794.64L379.563 794.688C370.139 799.993 358.228 806.699 346.262 811.766C334.043 816.941 322.787 819.946 314.491 818.8C310.542 818.254 307.494 816.8 305.203 814.346C302.868 811.846 300.867 807.823 299.956 801.353C299.046 794.901 299.824 790.284 301.422 786.934C303.004 783.617 305.622 781.056 309.281 779.091C316.897 775 328.381 773.838 341.248 774.34C353.363 774.813 365.775 776.703 375.737 778.219C376.196 778.289 376.649 778.358 377.096 778.426C382.077 779.182 386.568 779.849 389.843 780.084C391.423 780.198 393.141 780.248 394.625 780.015C395.34 779.902 396.478 779.657 397.592 778.98C398.869 778.204 400.324 776.692 400.584 774.354C400.844 772.009 399.73 770.301 398.985 769.449C398.239 768.597 397.374 768.011 396.741 767.633C395.442 766.855 393.801 766.182 392.162 765.589C388.807 764.374 384.12 763.025 378.902 761.538C378.529 761.431 378.153 761.324 377.773 761.216C367.332 758.242 354.382 754.553 342.52 749.716C330.002 744.613 319.795 738.648 314.77 731.814C312.385 728.569 311.291 725.296 311.493 721.805C311.699 718.233 313.3 713.788 317.504 708.358C321.678 702.966 325.722 700.168 329.432 698.921C333.107 697.686 336.972 697.796 341.144 699.133C349.811 701.912 359.084 709.755 368.101 719.827C376.597 729.318 384.261 740.078 390.43 748.738C390.713 749.135 390.993 749.529 391.27 749.917C394.361 754.255 397.154 758.145 399.389 760.819C400.475 762.118 401.672 763.431 402.887 764.373C403.479 764.831 404.399 765.462 405.573 765.832C406.845 766.231 408.876 766.438 410.851 765.203C412.923 763.908 413.594 761.87 413.74 760.5C413.873 759.249 413.648 758.131 413.459 757.407C413.067 755.907 412.321 754.26 411.536 752.71C409.919 749.516 407.377 745.283 404.511 740.563C404.142 739.956 403.767 739.338 403.386 738.711C397.726 729.401 390.748 717.922 385.173 706.26C379.129 693.619 375.221 681.721 375.789 672.663C376.061 668.312 377.348 664.908 379.685 662.3C382.042 659.669 385.932 657.329 392.353 655.993C398.769 654.658 403.348 655.233 406.676 656.717C409.982 658.191 412.641 660.825 414.757 664.698C419.153 672.745 420.668 685.145 420.548 699.068C420.435 712.122 418.916 725.597 417.69 736.467C417.627 737.019 417.566 737.566 417.505 738.104C416.89 743.574 416.357 748.471 416.216 752.057C416.148 753.806 416.153 755.598 416.399 757.11C416.518 757.844 416.751 758.9 417.309 759.94C417.886 761.017 419.16 762.668 421.504 763.189C423.958 763.734 425.883 762.673 426.909 761.807C427.857 761.007 428.465 760.057 428.83 759.414C429.588 758.077 430.209 756.383 430.74 754.72C431.835 751.296 433.013 746.477 434.309 741.085C434.445 740.519 434.583 739.944 434.722 739.362C437.291 728.662 440.468 715.422 444.782 703.177C449.413 690.031 454.991 679.152 461.625 673.598C464.776 670.96 467.952 669.703 471.331 669.738C474.788 669.773 479.187 671.17 484.691 675.233C490.176 679.281 493.117 683.275 494.508 686.991C495.886 690.672 495.925 694.561 494.769 698.761C492.369 707.479 484.988 716.929 475.32 726.166C465.796 735.266 454.77 743.503 446.017 749.958C445.562 750.294 445.112 750.625 444.668 750.953C440.908 753.723 437.552 756.196 435.12 758.171C433.78 759.259 432.508 760.365 431.56 761.402C431.098 761.907 430.518 762.603 430.063 763.44C429.693 764.12 428.827 765.929 429.425 768.171C429.76 769.427 430.521 770.617 431.706 771.455C432.789 772.222 433.89 772.459 434.616 772.532C435.946 772.665 437.111 772.356 437.698 772.182C439.041 771.783 440.583 771.058 442.053 770.305C444.899 768.847 448.755 766.609 453.127 764.071C453.438 763.89 453.753 763.708 454.07 763.524C463.756 757.903 476.307 750.678 488.949 745.191C501.825 739.601 513.751 736.295 522.465 737.464C526.607 738.019 529.765 739.55 532.1 742.153C534.489 744.815 536.492 749.129 537.261 756.093C538.031 763.06 537.087 767.974 535.318 771.471C533.576 774.917 530.794 777.465 526.976 779.316C519.006 783.179 507.101 783.722 493.775 782.403C481.073 781.145 468.074 778.319 457.692 776.061C457.355 775.988 457.021 775.915 456.689 775.843C451.524 774.721 446.878 773.722 443.471 773.245C441.82 773.014 440.065 772.844 438.547 772.961C437.815 773.018 436.685 773.169 435.544 773.715C434.276 774.321 432.612 775.639 432.089 777.991C431.545 780.439 432.605 782.351 433.423 783.348C434.195 784.289 435.117 784.912 435.753 785.293C437.074 786.085 438.757 786.757 440.426 787.344C443.854 788.55 448.685 789.885 454.098 791.361C454.617 791.503 455.142 791.646 455.674 791.791C466.44 794.723 479.81 798.365 492.188 803.154C505.389 808.261 516.418 814.298 522.118 821.324C524.846 824.688 526.175 828.059 526.172 831.588C526.17 835.167 524.799 839.616 520.806 845.085C516.802 850.569 512.899 853.42 509.328 854.716C505.801 855.996 502.067 855.953 497.997 854.692C489.513 852.063 480.328 844.38 471.353 834.445C462.862 825.046 455.188 814.363 449.062 805.834C448.812 805.487 448.566 805.144 448.322 804.805C445.264 800.549 442.508 796.739 440.328 794.151C439.277 792.904 438.09 791.609 436.874 790.696C436.293 790.26 435.298 789.593 433.996 789.269C432.473 788.888 430.289 788.962 428.441 790.547C426.704 792.036 426.312 793.976 426.252 795.116C426.191 796.248 426.402 797.271 426.594 797.989C426.986 799.458 427.699 801.079 428.464 802.636C430.029 805.821 432.459 810.012 435.179 814.672C435.389 815.032 435.601 815.395 435.816 815.762C441.253 825.074 448.01 836.645 453.266 848.432C458.809 860.862 462.244 872.606 461.344 881.69C460.91 886.068 459.489 889.622 456.965 892.428C454.424 895.253 450.373 897.752 443.936 899.307C437.468 900.87 432.903 900.464 429.646 899.157C426.443 897.871 423.898 895.469 421.883 891.849C417.663 884.266 416.303 872.3 416.639 858.71C416.97 845.355 418.889 831.489 420.411 820.697L420.519 819.934C421.223 814.943 421.848 810.515 422.124 807.294C422.266 805.651 422.351 803.971 422.222 802.579C422.162 801.938 422.019 800.858 421.516 799.772C420.99 798.636 419.489 796.429 416.46 796.227ZM402.826 760.232C402.826 760.232 402.822 760.219 402.817 760.191C402.824 760.218 402.826 760.232 402.826 760.232ZM419.231 754.037C419.231 754.036 419.239 754.023 419.254 754C419.239 754.026 419.231 754.038 419.231 754.037ZM427.269 755.412C427.269 755.411 427.266 755.4 427.262 755.375C427.268 755.4 427.27 755.412 427.269 755.412ZM434.568 761.637C434.489 761.66 434.499 761.651 434.58 761.633C434.576 761.634 434.572 761.635 434.568 761.637ZM441.354 775.823C441.353 775.822 441.365 775.829 441.388 775.846C441.366 775.832 441.355 775.824 441.354 775.823ZM439.396 783.928C439.398 783.928 439.4 783.928 439.402 783.928C439.352 783.935 439.347 783.932 439.396 783.928ZM437.205 795.078C437.205 795.078 437.207 795.089 437.211 795.11C437.206 795.089 437.204 795.079 437.205 795.078ZM430.268 799.492C430.272 799.495 430.277 799.499 430.283 799.503C430.245 799.478 430.24 799.471 430.268 799.492ZM419.814 805.425C419.813 805.426 419.809 805.433 419.799 805.448C419.809 805.432 419.814 805.424 419.814 805.425ZM411.261 803.532C411.261 803.531 411.264 803.548 411.268 803.584C411.262 803.551 411.26 803.533 411.261 803.532ZM399.236 796.856C399.236 796.857 399.227 796.859 399.209 796.862C399.228 796.858 399.236 796.856 399.236 796.856ZM394.561 789.883C394.587 789.842 394.594 789.837 394.572 789.868C394.569 789.872 394.565 789.877 394.561 789.883ZM391.16 777.115C391.159 777.115 391.15 777.109 391.132 777.096C391.151 777.108 391.16 777.114 391.16 777.115ZM392.898 769.151C392.936 769.143 392.944 769.144 392.916 769.148C392.91 769.149 392.904 769.15 392.898 769.151Z"
        stroke="#F74700" stroke-width="11" stroke-linecap="round" stroke-linejoin="round" class="htQlthQL_24"></path>
    <path
        d="M416.247 795.36C413.62 795.185 411.938 796.73 411.354 797.346C410.66 798.077 410.188 798.885 409.887 799.455C409.26 800.645 408.694 802.146 408.181 803.666C407.155 806.702 405.976 810.923 404.657 815.643L404.566 815.968C401.808 825.838 398.293 838.365 393.697 849.856C389.013 861.566 383.584 871.184 377.494 876.06C374.598 878.378 371.803 879.424 368.968 879.382C366.089 879.339 362.419 878.162 357.841 874.619C353.288 871.096 350.914 867.611 349.825 864.356C348.738 861.107 348.77 857.601 349.856 853.75C352.104 845.776 358.653 837.08 367.1 828.567C375.35 820.252 384.769 812.726 392.146 806.833L392.347 806.673C395.969 803.778 399.231 801.171 401.442 799.142C402.505 798.166 403.628 797.055 404.425 795.935C404.799 795.408 405.405 794.468 405.703 793.244C406.045 791.836 406.042 789.572 404.311 787.684C402.671 785.896 400.59 785.7 399.649 785.7C398.618 785.699 397.69 785.92 397.049 786.106C395.723 786.49 394.239 787.147 392.798 787.849C389.854 789.283 385.951 791.48 381.617 793.92L381.543 793.962C372.725 798.926 361.597 805.191 350.423 809.923C339 814.76 328.549 817.535 320.891 816.477C317.261 815.976 314.492 814.645 312.415 812.421C310.294 810.15 308.444 806.462 307.599 800.46C306.755 794.476 307.481 790.231 308.939 787.175C310.381 784.153 312.769 781.808 316.137 779.999C323.173 776.22 333.833 775.128 345.857 775.597C357.169 776.039 368.762 777.804 378.083 779.222C378.51 779.287 378.933 779.352 379.35 779.415C384.004 780.122 388.22 780.749 391.301 780.97C392.783 781.076 394.424 781.126 395.854 780.901C396.543 780.793 397.659 780.554 398.759 779.886C400.022 779.119 401.468 777.618 401.726 775.294C401.985 772.964 400.877 771.27 400.145 770.433C399.412 769.596 398.567 769.026 397.961 768.663C396.716 767.917 395.154 767.279 393.616 766.722C390.464 765.581 386.067 764.315 381.19 762.925C380.843 762.826 380.492 762.726 380.139 762.626C370.369 759.842 358.272 756.396 347.195 751.88C335.493 747.109 326.027 741.561 321.39 735.253C319.199 732.272 318.21 729.29 318.393 726.122C318.581 722.873 320.039 718.782 323.942 713.741C327.815 708.738 331.543 706.172 334.932 705.033C338.284 703.906 341.821 704.001 345.665 705.233C353.677 707.801 362.297 715.075 370.725 724.489C378.658 733.35 385.817 743.401 391.588 751.504C391.852 751.875 392.113 752.241 392.372 752.603C395.261 756.657 397.882 760.309 399.983 762.823C401.002 764.042 402.142 765.294 403.31 766.2C403.878 766.64 404.778 767.259 405.934 767.622C407.187 768.016 409.203 768.224 411.166 766.997C413.225 765.71 413.888 763.686 414.033 762.334C414.164 761.102 413.941 760.008 413.76 759.314C413.384 757.872 412.671 756.303 411.935 754.849C410.415 751.847 408.029 747.875 405.35 743.463C405.006 742.896 404.655 742.319 404.299 741.733C399.004 733.022 392.486 722.3 387.278 711.408C381.628 699.59 378.01 688.532 378.535 680.156C378.786 676.147 379.969 673.045 382.089 670.678C384.23 668.288 387.793 666.128 393.747 664.89C399.695 663.652 403.898 664.193 406.927 665.544C409.933 666.884 412.368 669.284 414.319 672.855C418.384 680.296 419.804 691.816 419.692 704.831C419.587 717.022 418.167 729.61 417.02 739.78C416.962 740.296 416.904 740.805 416.848 741.308C416.273 746.42 415.773 751.015 415.64 754.385C415.576 756.025 415.58 757.731 415.816 759.182C415.93 759.886 416.156 760.918 416.704 761.94C417.272 763 418.535 764.64 420.865 765.158C423.304 765.7 425.215 764.644 426.226 763.79C427.16 763.003 427.754 762.072 428.103 761.456C428.831 760.171 429.421 758.558 429.92 756.998C430.948 753.78 432.053 749.258 433.265 744.219C433.392 743.69 433.52 743.154 433.651 742.611C436.054 732.599 439.022 720.231 443.051 708.795C447.381 696.504 452.573 686.41 458.699 681.282C461.595 678.857 464.486 677.722 467.545 677.753C470.683 677.786 474.726 679.054 479.834 682.824C484.924 686.581 487.624 690.265 488.896 693.662C490.154 697.023 490.195 700.582 489.13 704.452C486.912 712.509 480.07 721.292 471.035 729.924C462.144 738.418 451.848 746.111 443.66 752.149C443.235 752.463 442.813 752.774 442.397 753.08C438.882 755.67 435.736 757.989 433.454 759.842C432.197 760.862 430.991 761.91 430.085 762.9C429.645 763.382 429.081 764.057 428.636 764.876C428.275 765.539 427.413 767.333 428.007 769.563C428.341 770.813 429.099 771.999 430.279 772.834C431.358 773.598 432.452 773.832 433.171 773.904C434.485 774.036 435.629 773.731 436.191 773.564C437.481 773.181 438.948 772.489 440.325 771.784C442.996 770.416 446.61 768.318 450.695 765.946C450.988 765.776 451.284 765.605 451.581 765.432C460.643 760.173 472.367 753.426 484.17 748.302C496.208 743.076 507.285 740.022 515.332 741.1C519.141 741.611 522.01 743.013 524.127 745.372C526.298 747.791 528.152 751.747 528.866 758.213C529.581 764.681 528.7 769.204 527.085 772.398C525.496 775.54 522.957 777.873 519.444 779.576C512.083 783.145 501.033 783.663 488.578 782.43C476.717 781.256 464.576 778.616 454.861 776.503C454.548 776.435 454.237 776.368 453.929 776.301C449.102 775.252 444.741 774.315 441.538 773.866C439.989 773.649 438.316 773.485 436.856 773.598C436.153 773.652 435.046 773.799 433.921 774.336C432.67 774.935 431.016 776.242 430.496 778.58C429.955 781.014 431.01 782.912 431.816 783.893C432.576 784.819 433.478 785.427 434.087 785.792C435.355 786.552 436.958 787.191 438.523 787.741C441.744 788.874 446.277 790.127 451.337 791.506C451.82 791.638 452.31 791.772 452.806 791.907C462.879 794.651 475.369 798.053 486.93 802.526C499.272 807.3 509.51 812.92 514.778 819.414C517.291 822.512 518.494 825.588 518.492 828.791C518.49 832.043 517.245 836.133 513.54 841.206C509.825 846.295 506.227 848.909 502.97 850.091C499.757 851.257 496.345 851.224 492.597 850.063C484.759 847.634 476.222 840.511 467.834 831.225C459.905 822.448 452.737 812.47 447.004 804.49C446.772 804.167 446.543 803.847 446.315 803.531C443.457 799.554 440.871 795.977 438.821 793.544C437.836 792.375 436.703 791.137 435.532 790.257C434.973 789.838 433.997 789.182 432.713 788.861C431.206 788.485 429.037 788.556 427.199 790.132C425.473 791.611 425.087 793.536 425.028 794.657C424.969 795.769 425.176 796.767 425.359 797.455C425.735 798.864 426.415 800.406 427.133 801.867C428.603 804.859 430.884 808.792 433.426 813.147C433.622 813.482 433.819 813.821 434.019 814.163C439.107 822.876 445.418 833.684 450.327 844.691C455.508 856.309 458.686 867.222 457.853 875.621C457.454 879.657 456.148 882.905 453.848 885.462C451.529 888.039 447.811 890.347 441.841 891.789C435.84 893.239 431.649 892.853 428.69 891.665C425.784 890.498 423.46 888.316 421.607 884.985C417.709 877.982 416.432 866.873 416.747 854.169C417.056 841.701 418.847 828.75 420.271 818.653L420.373 817.933C421.031 813.271 421.616 809.12 421.876 806.097C422.008 804.557 422.091 802.96 421.967 801.624C421.91 801.01 421.772 799.952 421.275 798.881C420.756 797.76 419.264 795.561 416.247 795.36ZM403.117 762.092C403.129 762.139 403.125 762.134 403.115 762.086C403.116 762.088 403.116 762.09 403.117 762.092ZM418.513 756.066C418.512 756.065 418.519 756.053 418.534 756.03C418.534 756.03 418.534 756.031 418.534 756.031C418.52 756.055 418.513 756.066 418.513 756.066ZM426.683 757.466C426.682 757.467 426.68 757.455 426.675 757.43C426.681 757.453 426.683 757.466 426.683 757.466ZM433.06 763.019C432.995 763.038 433.007 763.03 433.082 763.012C433.074 763.015 433.067 763.017 433.06 763.019ZM438.11 770.43C438.11 770.43 438.113 770.426 438.12 770.418C438.114 770.426 438.111 770.43 438.11 770.43ZM439.702 776.331C439.703 776.331 439.715 776.338 439.737 776.353C439.713 776.339 439.702 776.331 439.702 776.331ZM437.705 784.565C437.709 784.565 437.714 784.564 437.719 784.564C437.676 784.57 437.669 784.568 437.705 784.565ZM435.975 794.564C435.975 794.565 435.978 794.576 435.982 794.596C435.976 794.573 435.974 794.562 435.975 794.564ZM419.666 804.5C419.666 804.499 419.661 804.508 419.65 804.526C419.66 804.508 419.665 804.5 419.666 804.5ZM411.014 802.642C411.014 802.642 411.014 802.643 411.014 802.643C411.009 802.61 411.007 802.592 411.008 802.591C411.008 802.591 411.011 802.607 411.014 802.642ZM400.195 796.649C400.194 796.65 400.184 796.652 400.165 796.656C400.185 796.651 400.195 796.649 400.195 796.649ZM392.362 778.134C392.361 778.134 392.351 778.127 392.333 778.115C392.354 778.127 392.363 778.134 392.362 778.134ZM410.05 757.507C410.048 757.505 410.046 757.504 410.044 757.502C410.08 757.527 410.083 757.532 410.05 757.507Z"
        stroke="#F74700" stroke-width="11" stroke-linecap="round" stroke-linejoin="round" class="htQlthQL_25"></path>
    <path
        d="M417.044 786.514C415.828 786.433 414.709 786.521 413.691 786.72C413.192 785.042 412.301 783.318 410.832 781.715C410.275 781.108 409.696 780.587 409.109 780.14C409.7 778.914 410.132 777.513 410.308 775.93C410.324 775.788 410.337 775.647 410.349 775.507C412.048 775.307 413.885 774.751 415.71 773.61C416.36 773.204 416.943 772.764 417.468 772.301C418.031 772.513 418.632 772.694 419.271 772.836C419.828 772.96 420.371 773.045 420.901 773.096C421.348 774.222 421.963 775.307 422.745 776.3C422.722 776.395 422.699 776.492 422.677 776.59C422.163 778.905 422.322 780.983 422.797 782.749C422.526 782.947 422.258 783.16 421.993 783.387L423.996 785.723C423.996 785.723 423.996 785.723 423.996 785.723L421.993 783.387C420.737 784.464 419.818 785.645 419.148 786.819C418.489 786.669 417.788 786.564 417.044 786.514ZM427.604 816.647C427.608 816.612 427.613 816.578 427.618 816.543C432.216 824.427 437.514 833.632 441.664 842.94C446.416 853.596 448.669 862.286 448.092 868.106C447.841 870.643 447.102 872.102 446.203 873.101C445.263 874.146 443.242 875.689 438.732 876.778C434.154 877.885 431.879 877.371 430.921 876.986C430.082 876.649 429.083 875.956 427.994 873.999C425.383 869.307 424.091 860.673 424.381 848.977C424.658 837.815 426.268 826.119 427.604 816.647ZM470.204 822.426C463.238 814.715 456.883 805.913 451.556 798.499C460.398 800.919 470.527 803.786 479.923 807.42C491.314 811.827 499.261 816.514 502.874 820.968C504.405 822.855 504.699 824.139 504.698 825.084C504.698 826.141 504.315 828.474 501.49 832.344C498.639 836.248 496.375 837.583 495.05 838.064C493.825 838.508 492.314 838.626 490.052 837.925C484.747 836.282 477.9 830.945 470.204 822.426ZM410.34 737.729C405.679 730.044 400.408 721.198 396.137 712.265C390.926 701.366 388.312 692.514 388.675 686.709C388.832 684.213 389.497 683.016 390.131 682.308C390.812 681.548 392.565 680.127 397.037 679.197C401.495 678.269 403.776 678.845 404.85 679.324C405.873 679.78 407.061 680.706 408.292 682.959C411.125 688.144 412.514 697.256 412.41 709.234C412.327 718.922 411.317 728.939 410.34 737.729ZM440.071 745.887C442.307 736.574 444.968 725.574 448.536 715.447C452.54 704.081 456.861 696.356 460.935 692.946C462.593 691.557 463.646 691.359 464.396 691.367C465.326 691.376 467.63 691.75 471.579 694.665C475.486 697.548 476.948 699.918 477.52 701.446C478.062 702.892 478.193 704.602 477.535 706.99C476.022 712.488 470.897 719.53 462.646 727.414C455.492 734.248 447.246 740.564 440.071 745.887ZM457.563 769.784C465.202 765.399 474.076 760.502 482.933 756.657C494.044 751.834 502.768 749.755 508.131 750.474C510.325 750.768 511.266 751.438 511.845 752.084C512.547 752.866 513.879 754.943 514.434 759.97C514.989 765.002 514.217 767.706 513.518 769.09C512.878 770.355 511.82 771.483 509.739 772.492C504.814 774.88 496.261 775.586 484.844 774.456C475.524 773.533 465.947 771.589 457.563 769.784ZM398.815 810.187C398.77 810.35 398.724 810.514 398.679 810.677L398.552 811.129C395.962 820.398 392.777 831.723 388.654 842.031C384.332 852.837 379.837 860.226 375.754 863.495C374.052 864.857 373.056 864.992 372.501 864.984C371.842 864.974 369.916 864.715 366.503 862.074C363.148 859.477 361.954 857.356 361.492 855.975C361.035 854.607 360.928 852.872 361.625 850.4C363.192 844.84 368.168 837.831 375.873 830.065C383.278 822.6 391.803 815.789 398.759 810.232L398.815 810.187ZM387.346 756.917C386.842 756.773 386.334 756.628 385.826 756.483C385.539 756.401 385.251 756.319 384.961 756.236C375.756 753.614 364.797 750.491 354.833 746.429C344.045 742.031 336.911 737.475 333.881 733.354C332.655 731.685 332.445 730.556 332.5 729.609C332.565 728.48 333.12 726.046 336.154 722.127C339.121 718.296 341.483 716.956 342.944 716.465C344.324 716.001 345.994 715.92 348.376 716.684C353.877 718.448 360.824 723.944 368.547 732.571C375.572 740.418 381.962 749.358 387.346 756.917ZM380.474 786.168C372.193 790.83 362.173 796.459 352.197 800.684C341.68 805.138 333.522 806.988 328.49 806.293C326.427 806.008 325.513 805.38 324.946 804.772C324.279 804.058 323.002 802.177 322.357 797.597C321.717 793.059 322.372 790.626 322.964 789.385C323.518 788.222 324.497 787.087 326.526 785.998C331.26 783.455 339.513 782.328 350.517 782.757C360.658 783.153 371.123 784.745 379.903 786.081C380.094 786.11 380.284 786.139 380.474 786.168Z"
        stroke="#F74700" stroke-width="25" stroke-linecap="round" stroke-linejoin="round" class="htQlthQL_26"></path>
    <path
        d="M430.423 768.059C434.368 774.806 431.496 783.856 424.873 787.022C418.527 790.056 411.167 787.822 407.458 781.317C403.764 774.838 405.522 767.475 411.3 763.512C417.336 759.37 426.489 761.33 430.423 768.059Z"
        stroke="#A88771" stroke-width="27" stroke-linecap="round" stroke-linejoin="round" class="htQlthQL_27"></path>
    <path
        d="M842.001 431.006C838.501 423.506 764.001 412.506 725.001 498.506C686.001 584.507 767.501 737.506 748.001 789.506C728.501 841.506 723.037 834.609 707.041 863.508C707.041 863.508 741.001 860.506 767.501 825.006C794.001 789.506 801.001 779.006 801.001 737.506C801.001 696.006 778.501 565.507 794.001 515.506C809.501 465.506 845.501 438.507 842.001 431.006Z"
        stroke="#A88771" stroke-width="17" stroke-linecap="round" stroke-linejoin="round" class="htQlthQL_28"></path>
    <path
        d="M822.479 434.356C820.101 427.266 766.644 418.201 736.896 501.021C707.148 583.84 762.918 728.28 747.871 778.279C732.824 828.277 729.02 821.8 716.941 849.686C716.941 849.686 741.463 846.168 761.236 811.781C781.009 777.394 786.253 767.24 787.051 727.636C787.849 688.033 774.149 563.93 786.276 515.917C798.403 467.904 824.856 441.447 822.479 434.356Z"
        stroke="#A88771" stroke-width="17" stroke-linecap="round" stroke-linejoin="round" class="htQlthQL_29"></path>
    <path
        d="M806.87 442.467C805.501 435.612 770.754 428.178 749.098 509.771C727.442 591.364 760.13 730.824 748.962 780.005C737.794 829.185 735.475 822.966 726.834 850.494C726.834 850.494 742.976 846.414 756.824 812.341C770.673 778.267 774.374 768.22 775.941 729.558C777.509 690.896 771.818 570.169 781.023 523.002C790.227 475.836 808.239 449.322 806.87 442.467Z"
        stroke="#A88771" stroke-width="17" stroke-linecap="round" stroke-linejoin="round" class="htQlthQL_30"></path>
    <path
        d="M794.221 441.435C793.868 434.663 777.745 428.749 763.988 510.987C750.231 593.225 759.703 730.789 752.303 780.278C744.903 829.766 744.073 823.668 738.8 851.471C738.8 851.471 746.614 846.711 754.633 812.162C762.652 777.612 764.835 767.442 767.239 728.848C769.644 690.254 772.143 570.196 778.527 522.799C784.911 475.402 794.574 448.207 794.221 441.435Z"
        stroke="#A88771" stroke-width="17" stroke-linecap="round" stroke-linejoin="round" class="htQlthQL_31"></path>
    <path d="M659 1198.5C659 1198.5 792.789 1205.98 850.253 1157.86C929.5 1091.5 954.747 972.999 954.747 972.999"
        stroke="#A88771" stroke-width="30" stroke-linecap="round" stroke-linejoin="round" class="htQlthQL_32"></path>
    <path
        d="M1040.84 935.164C1046.85 949.751 1033.45 958.86 1031.87 974.558C1030.27 990.505 1043.01 1003.15 1032.9 1015.59C1023.52 1027.12 1009.85 1019.43 995.938 1024.66C979.424 1030.87 973.688 1049.42 956.313 1046.36C940.243 1043.52 940.455 1025.78 926.941 1016.64C915.942 1009.19 903.55 1013.29 896.107 1002.29C886.536 988.148 900.821 975.975 901.693 958.919C902.47 943.708 892.789 932.747 901.008 919.925C910.549 905.038 928.199 913.91 944.24 906.471C957.643 900.255 961.878 885.532 976.593 886.862C991.837 888.239 993.045 904.357 1005.22 913.632C1018.15 923.481 1034.64 920.138 1040.84 935.164Z"
        stroke="#F74700" stroke-width="25" stroke-linecap="round" stroke-linejoin="round" class="htQlthQL_33"></path>
    <path
        d="M1024.27 941.868C1029.02 953.371 1018.55 960.511 1017.35 972.87C1016.13 985.425 1026.15 995.416 1018.26 1005.18C1010.94 1014.24 1000.22 1008.15 989.339 1012.24C976.424 1017.09 971.978 1031.69 958.366 1029.23C945.776 1026.96 945.899 1012.99 935.294 1005.75C926.664 999.864 916.971 1003.06 911.116 994.379C903.587 983.216 914.742 973.664 915.383 960.234C915.955 948.257 908.347 939.601 914.751 929.522C922.185 917.822 936.027 924.853 948.569 919.033C959.048 914.171 962.328 902.587 973.853 903.67C985.793 904.791 986.778 917.489 996.335 924.823C1006.48 932.611 1019.39 930.019 1024.27 941.868Z"
        stroke="#F74700" stroke-width="25" stroke-linecap="round" stroke-linejoin="round" class="htQlthQL_34"></path>
    <path
        d="M1010.7 948.27C1014.33 957.072 1006.38 962.51 1005.5 971.955C1004.59 981.549 1012.23 989.205 1006.25 996.656C1000.7 1003.57 992.529 998.891 984.258 1001.99C974.441 1005.68 971.087 1016.83 960.725 1014.92C951.142 1013.16 951.208 1002.48 943.126 996.932C936.549 992.414 929.18 994.839 924.709 988.192C918.959 979.645 927.428 972.365 927.89 962.1C928.302 952.946 922.497 946.315 927.35 938.624C932.984 929.695 943.529 935.095 953.06 930.671C961.024 926.975 963.497 918.126 972.268 918.976C981.354 919.856 982.128 929.564 989.413 935.188C997.149 941.16 1006.96 939.204 1010.7 948.27Z"
        stroke="#B8CDB4" stroke-width="14" stroke-linecap="round" stroke-linejoin="round" class="htQlthQL_35"></path>
    <path
        d="M1001.32 951.772C1004.17 958.673 997.981 962.918 997.306 970.314C996.62 977.827 1002.59 983.838 997.938 989.663C993.625 995.064 987.245 991.387 980.802 993.802C973.154 996.667 970.559 1005.39 962.476 1003.88C955 1002.49 955.031 994.123 948.719 989.76C943.581 986.209 937.84 988.094 934.341 982.879C929.841 976.174 936.431 970.488 936.772 962.448C937.076 955.279 932.537 950.075 936.307 944.059C940.683 937.076 948.916 941.326 956.339 937.879C962.542 934.998 964.454 928.072 971.295 928.754C978.382 929.461 979.004 937.066 984.695 941.485C990.739 946.178 998.387 944.664 1001.32 951.772Z"
        stroke="#B8CDB4" stroke-width="14" stroke-linecap="round" stroke-linejoin="round" class="htQlthQL_36"></path>
    <path
        d="M994.176 955.399C996.405 960.8 991.554 964.125 991.022 969.915C990.481 975.797 995.156 980.5 991.509 985.061C988.127 989.292 983.129 986.416 978.079 988.309C972.085 990.555 970.048 997.388 963.715 996.209C957.857 995.119 957.885 988.571 952.941 985.158C948.916 982.381 944.417 983.859 941.677 979.779C938.154 974.532 943.321 970.078 943.591 963.785C943.832 958.172 940.278 954.1 943.234 949.39C946.667 943.921 953.116 947.245 958.935 944.543C963.797 942.286 965.298 936.863 970.658 937.394C976.211 937.944 976.695 943.897 981.153 947.354C985.886 951.025 991.88 949.836 994.176 955.399Z"
        stroke="#B8CDB4" stroke-width="14" stroke-linecap="round" stroke-linejoin="round" class="htQlthQL_37"></path>
    <path
        d="M982.386 959.755C986.313 968.6 981.598 979.35 972.889 982.378C964.608 985.258 955.817 981.423 952.174 972.971C948.547 964.555 951.698 955.649 959.4 951.541C967.509 947.215 978.472 950.938 982.386 959.755Z"
        stroke="#F74700" stroke-width="26" stroke-linecap="round" stroke-linejoin="round" class="htQlthQL_38"></path>
    <path
        d="M968.71 971.051C971.297 970.151 972.57 967.101 971.458 964.597C970.352 962.106 967.279 961 964.874 962.283C962.648 963.47 961.78 966.077 962.778 968.394C963.783 970.725 966.313 971.885 968.71 971.051Z"
        stroke="#B8CDB4" stroke-width="10" stroke-linecap="round" stroke-linejoin="round" class="htQlthQL_39"></path>
    <path
        d="M370.235 1136.61C373.991 1151.93 359.381 1158.93 355.464 1174.21C351.485 1189.74 362.19 1204.15 350.327 1214.93C339.326 1224.92 326.962 1215.27 312.423 1218.35C295.164 1222.02 286.71 1239.5 269.991 1233.87C254.528 1228.65 257.398 1211.15 245.408 1200.08C235.65 1191.07 222.784 1193.26 217.075 1181.27C209.734 1165.85 225.683 1155.96 229.103 1139.22C232.153 1124.3 224.225 1112.01 234.274 1100.57C245.94 1087.28 262.06 1098.7 279.035 1093.75C293.219 1089.61 299.615 1075.69 313.963 1079.21C328.829 1082.86 327.605 1098.98 338.252 1109.98C349.558 1121.65 366.365 1120.82 370.235 1136.61Z"
        stroke="#B8CDB4" stroke-width="25" stroke-linecap="round" stroke-linejoin="round" class="htQlthQL_40"></path>
    <path
        d="M352.855 1140.75C355.819 1152.83 344.4 1158.32 341.362 1170.36C338.275 1182.59 346.674 1193.97 337.411 1202.45C328.82 1210.31 319.131 1202.68 307.761 1205.09C294.265 1207.94 287.679 1221.71 274.59 1217.24C262.483 1213.11 264.699 1199.31 255.3 1190.57C247.65 1183.45 237.588 1185.16 233.101 1175.7C227.332 1163.53 239.793 1155.76 242.441 1142.58C244.803 1130.82 238.58 1121.12 246.423 1112.12C255.528 1101.67 268.158 1110.69 281.431 1106.82C292.521 1103.58 297.502 1092.62 308.733 1095.42C320.37 1098.32 319.439 1111.02 327.788 1119.71C336.653 1128.93 349.801 1128.3 352.855 1140.75Z"
        stroke="#B8CDB4" stroke-width="25" stroke-linecap="round" stroke-linejoin="round" class="htQlthQL_41"></path>
    <path
        d="M338.477 1145.04C340.747 1154.29 332.072 1158.48 329.777 1167.68C327.446 1177.03 333.847 1185.75 326.815 1192.21C320.293 1198.21 312.916 1192.37 304.274 1194.19C294.016 1196.36 289.027 1206.88 279.068 1203.45C269.857 1200.27 271.525 1189.72 264.367 1183.02C258.541 1177.57 250.892 1178.86 247.469 1171.62C243.066 1162.3 252.531 1156.38 254.527 1146.3C256.307 1137.31 251.563 1129.88 257.514 1123.01C264.424 1115.02 274.039 1121.94 284.126 1119C292.554 1116.54 296.327 1108.16 304.871 1110.32C313.722 1112.55 313.031 1122.26 319.391 1128.92C326.143 1135.98 336.139 1135.52 338.477 1145.04Z"
        stroke="#F74700" stroke-width="14" stroke-linecap="round" stroke-linejoin="round" class="htQlthQL_42"></path>
    <path
        d="M328.676 1147.1C330.457 1154.35 323.702 1157.62 321.925 1164.83C320.121 1172.16 325.12 1178.99 319.649 1184.05C314.574 1188.75 308.817 1184.16 302.085 1185.58C294.094 1187.26 290.219 1195.5 282.454 1192.8C275.272 1190.29 276.558 1182.03 270.971 1176.77C266.424 1172.49 260.465 1173.49 257.788 1167.81C254.345 1160.51 261.713 1155.87 263.256 1147.97C264.632 1140.93 260.925 1135.11 265.554 1129.72C270.928 1123.48 278.43 1128.91 286.287 1126.62C292.852 1124.7 295.781 1118.14 302.442 1119.84C309.343 1121.6 308.817 1129.21 313.781 1134.44C319.052 1139.98 326.842 1139.63 328.676 1147.1Z"
        stroke="#F74700" stroke-width="14" stroke-linecap="round" stroke-linejoin="round" class="htQlthQL_43"></path>
    <path
        d="M321.068 1149.61C322.462 1155.29 317.167 1157.85 315.772 1163.49C314.356 1169.23 318.272 1174.58 313.982 1178.54C310.004 1182.22 305.494 1178.62 300.217 1179.74C293.954 1181.06 290.915 1187.51 284.83 1185.39C279.202 1183.44 280.213 1176.97 275.836 1172.85C272.274 1169.5 267.603 1170.29 265.507 1165.84C262.81 1160.13 268.586 1156.5 269.798 1150.32C270.878 1144.81 267.975 1140.25 271.604 1136.03C275.818 1131.14 281.696 1135.39 287.854 1133.6C292.999 1132.09 295.297 1126.96 300.516 1128.29C305.924 1129.66 305.51 1135.62 309.399 1139.71C313.528 1144.05 319.633 1143.77 321.068 1149.61Z"
        stroke="#F74700" stroke-width="14" stroke-linecap="round" stroke-linejoin="round" class="htQlthQL_44"></path>
    <path
        d="M308.758 1152.15C311.314 1161.49 305.04 1171.41 295.975 1173.1C287.356 1174.7 279.239 1169.59 276.905 1160.69C274.582 1151.82 279.033 1143.49 287.264 1140.58C295.93 1137.52 306.211 1142.85 308.758 1152.15Z"
        stroke="#B8CDB4" stroke-width="26" stroke-linecap="round" stroke-linejoin="round" class="htQlthQL_45"></path>
    <path
        d="M293.542 1161.27C296.236 1160.77 297.951 1157.94 297.228 1155.3C296.508 1152.67 293.635 1151.12 291.065 1152.03C288.686 1152.87 287.437 1155.31 288.077 1157.75C288.72 1160.21 291.047 1161.73 293.542 1161.27Z"
        stroke="#F74700" stroke-width="10" stroke-linecap="round" stroke-linejoin="round" class="htQlthQL_46"></path>
    <path
        d="M834.684 333.495C864.202 335.768 876.824 308.589 901.314 291.955C923.8 276.681 946.434 287.365 957.55 262.559C968.057 239.11 950.255 228.058 950.957 202.372C951.764 172.875 974.668 153.096 961.125 126.879C946.883 99.3104 923.152 115.391 896.334 99.7814C873.142 86.2829 864.455 55.1629 837.623 54.8397C809.982 54.5067 807.947 87.3754 783.771 100.777C761.675 113.026 736.786 100.55 722.437 121.342C706.76 144.059 730.804 163.993 730.228 191.587C729.602 221.597 707.726 240.373 723.073 264.318C738.42 288.263 762.929 274.694 786.977 289.879C811.765 305.532 805.455 331.245 834.684 333.495Z"
        stroke="#F74700" stroke-width="22" stroke-linecap="round" stroke-linejoin="round" class="htQlthQL_47"></path>
    <path
        d="M835.093 315.308C860.779 317.286 871.763 293.635 893.074 279.16C912.641 265.869 932.337 275.166 942.01 253.58C951.153 233.175 935.662 223.558 936.273 201.206C936.975 175.538 956.906 158.325 945.121 135.512C932.728 111.522 912.077 125.515 888.74 111.932C868.559 100.185 860.999 73.105 837.65 72.8237C813.597 72.534 811.827 101.136 790.788 112.799C771.561 123.457 749.902 112.601 737.416 130.694C723.774 150.462 744.697 167.808 744.196 191.821C743.651 217.935 724.614 234.274 737.969 255.111C751.324 275.948 772.652 264.14 793.579 277.354C815.149 290.975 809.658 313.35 835.093 315.308Z"
        stroke="#F74700" stroke-width="22" stroke-linecap="round" stroke-linejoin="round" class="htQlthQL_48"></path>
    <path
        d="M835.543 298.72C857.861 300.439 867.406 279.888 885.923 267.31C902.925 255.761 920.039 263.84 928.444 245.083C936.389 227.353 922.929 218.996 923.46 199.575C924.07 177.271 941.388 162.315 931.147 142.492C920.379 121.647 902.435 133.806 882.158 122.003C864.622 111.797 858.053 88.266 837.765 88.0216C816.865 87.7699 815.326 112.623 797.046 122.756C780.339 132.018 761.519 122.584 750.67 138.306C738.816 155.482 756.996 170.555 756.561 191.42C756.088 214.111 739.547 228.308 751.151 246.413C762.755 264.519 781.287 254.259 799.47 265.741C818.213 277.576 813.442 297.018 835.543 298.72Z"
        stroke="#F74700" stroke-width="22" stroke-linecap="round" stroke-linejoin="round" class="htQlthQL_49"></path>
    <path
        d="M836.061 283.634C855.159 285.105 863.326 267.52 879.171 256.758C893.72 246.875 908.364 253.788 915.556 237.738C922.354 222.567 910.836 215.416 911.291 198.797C911.812 179.712 926.631 166.915 917.869 149.952C908.655 132.116 893.3 142.519 875.949 132.42C860.944 123.687 855.323 103.552 837.962 103.343C820.079 103.127 818.762 124.394 803.12 133.065C788.824 140.989 772.72 132.918 763.436 146.37C753.293 161.068 768.85 173.965 768.478 191.819C768.073 211.236 753.918 223.384 763.848 238.876C773.778 254.369 789.635 245.59 805.195 255.415C821.232 265.542 817.15 282.178 836.061 283.634Z"
        stroke="#B53A25" stroke-width="28" stroke-linecap="round" stroke-linejoin="round" class="htQlthQL_50"></path>
    <path
        d="M837.274 259.151C851.001 260.208 856.871 247.568 868.261 239.832C878.718 232.729 889.244 237.697 894.414 226.161C899.301 215.256 891.021 210.116 891.348 198.17C891.723 184.452 902.375 175.254 896.076 163.061C889.453 150.24 878.417 157.718 865.945 150.459C855.159 144.181 851.119 129.709 838.64 129.558C825.786 129.404 824.839 144.69 813.596 150.922C803.32 156.619 791.745 150.817 785.072 160.486C777.781 171.051 788.963 180.321 788.695 193.155C788.404 207.111 778.23 215.843 785.367 226.979C792.505 238.115 803.903 231.804 815.087 238.867C826.615 246.146 823.68 258.104 837.274 259.151Z"
        stroke="#B53A25" stroke-width="28" stroke-linecap="round" stroke-linejoin="round" class="htQlthQL_51"></path>
    <path
        d="M838.331 240.154C848.282 240.92 852.537 231.757 860.794 226.149C868.374 221 876.005 224.602 879.752 216.239C883.295 208.334 877.293 204.608 877.53 195.949C877.802 186.004 885.523 179.336 880.957 170.498C876.156 161.204 868.156 166.625 859.115 161.362C851.296 156.812 848.367 146.32 839.322 146.211C830.003 146.099 829.317 157.18 821.166 161.698C813.718 165.827 805.327 161.622 800.489 168.631C795.204 176.289 803.31 183.01 803.116 192.313C802.905 202.43 795.53 208.76 800.704 216.832C805.878 224.905 814.14 220.33 822.248 225.45C830.604 230.726 828.477 239.395 838.331 240.154Z"
        stroke="#B53A25" stroke-width="28" stroke-linecap="round" stroke-linejoin="round" class="htQlthQL_52"></path>
    <path
        d="M858.68 230.271C879.746 220.2 887.638 193.158 875.853 173.001C864.129 152.946 837.048 146.482 817.892 159.623C800.158 171.789 795.271 194.693 805.923 213.375C816.638 232.169 839.162 239.602 858.68 230.271Z"
        stroke="#F74700" stroke-width="20" stroke-linecap="round" stroke-linejoin="round" class="htQlthQL_53"></path>
    <path
        d="M851.528 215.532C864.385 209.386 869.202 192.881 862.01 180.579C854.854 168.339 838.326 164.394 826.634 172.414C815.811 179.839 812.828 193.818 819.329 205.22C825.869 216.691 839.616 221.227 851.528 215.532Z"
        stroke="#F74700" stroke-width="20" stroke-linecap="round" stroke-linejoin="round" class="htQlthQL_54"></path>
    <path
        d="M847.782 189.161C850.373 193.592 848.484 199.536 844.139 201.613C839.972 203.605 835.14 202.141 832.703 197.866C830.276 193.609 831.431 188.776 835.225 186.174C839.186 183.456 845.198 184.741 847.782 189.161Z"
        stroke="#B53A25" stroke-width="18" stroke-linecap="round" stroke-linejoin="round" class="htQlthQL_55"></path>
    <path
        d="M838 1614.01C801.5 1611.01 798 1592.01 798 1592.01C798 1592.01 755.995 1608.21 755.5 1623.01C754.985 1638.4 777.5 1643.51 780.5 1653.51C783.5 1663.51 720.5 1653.51 702 1686.01C686.382 1713.44 766.954 1694.75 752.5 1713.01C733.5 1737.01 647.5 1725.51 638.5 1772.51C629.356 1820.26 703 1789.01 721.5 1809.01C760.531 1851.2 654 1854.51 661.5 1877.51C666.323 1892.3 699.748 1888.89 703 1913.51C706.5 1940.01 686 1953.01 703 1959.01C728.346 1967.96 744.5 1920.62 762.5 1909.01C780.5 1897.4 797 1929.51 820.5 1913.51C844.758 1896.99 801.539 1876.51 826 1850.01C832 1843.51 864.679 1877.06 884.5 1847.01C915.5 1800.01 820.254 1774.58 844 1733.01C858.943 1706.85 898.442 1728.31 894 1698.51C890.011 1671.75 837.5 1677.01 820.5 1667.01C802.731 1656.56 858.545 1615.7 838 1614.01Z"
        stroke="#B53A25" stroke-width="25" stroke-linecap="round" stroke-linejoin="round" class="htQlthQL_56"></path>
    <path
        d="M829.972 1622.48C799.461 1619.88 789.535 1603.45 789.535 1603.45C789.535 1603.45 761.417 1617.53 760.91 1631.5C760.382 1646.02 779.182 1650.7 781.629 1660.12C784.075 1669.53 731.443 1660.49 715.765 1691.27C702.528 1717.26 770.039 1699.11 757.834 1716.43C741.791 1739.2 669.931 1728.89 662.107 1773.29C654.158 1818.4 715.952 1788.45 731.3 1807.21C763.682 1846.77 674.555 1850.56 680.684 1872.22C684.624 1886.14 712.604 1882.72 715.169 1905.92C717.929 1930.9 700.701 1943.3 714.882 1948.85C736.026 1957.14 749.835 1912.37 764.964 1901.3C780.093 1890.23 793.692 1920.43 813.449 1905.18C833.843 1889.45 797.823 1870.39 818.449 1845.23C823.508 1839.06 850.631 1870.51 867.399 1842.04C893.624 1797.49 814.118 1774.1 834.241 1734.73C846.905 1709.95 879.808 1729.95 876.28 1701.86C873.112 1676.64 829.157 1681.93 815.001 1672.6C800.204 1662.85 847.146 1623.95 829.972 1622.48Z"
        stroke="#B53A25" stroke-width="27" stroke-linecap="round" stroke-linejoin="round" class="htQlthQL_57"></path>
    <path
        d="M781.81 1625.48C783.045 1624.54 784.288 1623.65 785.484 1622.84C786.476 1623.68 787.564 1624.54 788.754 1625.4C794.414 1629.5 802.169 1633.5 812.422 1635.95C811.7 1637.03 810.911 1638.19 810.056 1639.45C809.911 1639.67 809.764 1639.89 809.615 1640.11C806.08 1645.33 801.464 1652.2 798.902 1658.66C797.619 1661.89 796.325 1666.26 796.699 1670.98C797.128 1676.41 799.74 1681.65 804.914 1685.15C810.632 1689.02 818.155 1690.76 823.878 1691.91C826.695 1692.47 829.229 1692.92 831.661 1693.35C835.226 1693.98 838.571 1694.58 842.267 1695.44C848.125 1696.8 852.223 1698.33 854.824 1700.11C856.925 1701.56 857.732 1702.88 857.981 1704.94C858.127 1706.16 858.155 1707.02 858.138 1707.6C857.417 1707.81 856.119 1708.14 853.895 1708.53C853.355 1708.63 852.766 1708.73 852.134 1708.83C843.709 1710.23 827.641 1712.89 819.004 1730.24C812.094 1744.12 813.955 1756.96 819.264 1767.91C823.644 1776.94 830.743 1785.36 836.672 1792.4C837.311 1793.15 837.936 1793.9 838.542 1794.62C845.412 1802.82 850.495 1809.44 852.917 1816.01C854.978 1821.61 855.195 1827.38 850.838 1834.98C848.116 1839.72 846.036 1840.34 845.37 1840.5C844.173 1840.79 842.104 1840.7 838.549 1839.35C836.026 1838.39 834.077 1837.38 831.807 1836.21C830.503 1835.54 829.093 1834.81 827.407 1834.01C825.674 1833.18 822.852 1831.89 819.807 1831.37C816.604 1830.81 809.901 1830.68 805.161 1836.62C798.431 1845.06 795.873 1853.73 796.092 1862.21C796.295 1870.06 798.917 1877.03 800.725 1881.78C802.886 1887.47 803.713 1889.77 803.784 1891.56C803.785 1891.57 803.79 1891.59 803.797 1891.61C803.853 1891.76 804.003 1892.17 802.285 1893.54C800.029 1895.33 798.981 1895.2 798.419 1895.14L798.402 1895.13C797.016 1894.96 795.098 1894.2 791.393 1892.11C791.009 1891.89 790.579 1891.65 790.108 1891.37C787.122 1889.65 782.52 1886.99 777.881 1885.67C771.261 1883.78 763.526 1884.12 756.246 1889.61C750.666 1893.81 746.082 1900.38 742.536 1905.84C740.611 1908.8 739.021 1911.38 737.495 1913.86C735.603 1916.93 733.808 1919.85 731.593 1923.14C729.288 1926.56 727.255 1929.22 725.457 1931.17C727.496 1924.49 729.896 1914.76 728.641 1902.9C727.751 1894.48 724.463 1887.89 719.706 1882.81C715.231 1878.03 709.899 1875.09 705.839 1873.07C704.083 1872.2 702.67 1871.53 701.471 1870.96C700.042 1870.29 698.916 1869.76 697.875 1869.19C698.259 1868.94 698.687 1868.68 699.163 1868.4C701.924 1866.76 705.378 1865.07 709.54 1863.13C710.365 1862.74 711.219 1862.34 712.096 1861.94C715.445 1860.38 719.109 1858.68 722.605 1856.9C730.83 1852.72 741.632 1846.53 747.235 1836.82C750.343 1831.43 751.79 1825.1 750.648 1818.18C749.556 1811.56 746.251 1805.32 741.561 1799.41C734.314 1790.3 722.866 1788.54 715.067 1788C710.768 1787.71 706.313 1787.74 702.277 1787.79C701.648 1787.8 701.03 1787.81 700.421 1787.81C696.959 1787.86 693.811 1787.91 690.775 1787.82C682.967 1787.59 679.737 1786.45 678.596 1785.53L678.593 1785.53C678.407 1785.38 678.132 1785.16 677.884 1784.21C677.569 1783.01 677.307 1780.54 678.073 1776.11C680.432 1762.46 691.836 1755.82 712.03 1750.02C715.3 1749.08 719.071 1748.1 722.972 1747.09C729.334 1745.43 736.043 1743.69 741.485 1741.89C750.466 1738.9 761.22 1734.29 767.569 1725.03C769.801 1721.77 773.384 1714.81 769.452 1707.27C766.173 1700.99 759.802 1699.08 757.333 1698.43C754.059 1697.56 750.401 1697.19 747.312 1696.95C745.418 1696.8 743.206 1696.68 741.118 1696.56C739.877 1696.49 738.68 1696.42 737.62 1696.35C734.845 1696.18 732.397 1695.97 730.286 1695.66C735.616 1688.44 745.328 1684.69 757.482 1682.34C760.737 1681.71 763.908 1681.22 767.008 1680.75C767.191 1680.72 767.374 1680.69 767.559 1680.67C770.359 1680.24 773.306 1679.8 775.846 1679.28C778.222 1678.79 781.898 1677.94 785.05 1676.06C786.752 1675.05 789.211 1673.21 790.907 1670.08C792.791 1666.6 793.024 1662.84 792.198 1659.54L780.074 1662.59L792.198 1659.54C790.767 1653.84 787.202 1649.83 784.666 1647.36C783.007 1645.74 780.727 1643.84 779.006 1642.4C778.337 1641.84 777.753 1641.35 777.323 1640.98C773.092 1637.32 772.809 1636 772.824 1635.07C772.849 1635.02 773.078 1634.09 774.581 1632.22C776.295 1630.08 778.836 1627.75 781.81 1625.48ZM817.706 1626.97C817.715 1626.97 817.691 1627.07 817.607 1627.29C817.654 1627.09 817.696 1626.97 817.706 1626.97ZM858.005 1708.63C858 1708.63 858.013 1708.56 858.058 1708.46C858.032 1708.58 858.01 1708.64 858.005 1708.63ZM720.277 1934.69C720.265 1934.68 720.258 1934.68 720.258 1934.68C720.258 1934.68 720.265 1934.68 720.277 1934.69ZM695.15 1867.35C695.152 1867.35 695.17 1867.37 695.197 1867.41C695.161 1867.37 695.147 1867.35 695.15 1867.35ZM727.906 1699.88C727.905 1699.88 727.909 1699.86 727.919 1699.82C727.912 1699.86 727.907 1699.88 727.906 1699.88Z"
        stroke="#B53A25" stroke-width="25" stroke-linecap="round" stroke-linejoin="round" class="htQlthQL_58"></path>
    <path
        d="M753.081 1740.31C753.372 1740.39 753.296 1740.41 752.989 1740.29C753.024 1740.3 753.054 1740.31 753.081 1740.31ZM779.599 1662.57C779.772 1662.42 779.946 1662.29 780.12 1662.15C780.274 1662.27 780.429 1662.39 780.587 1662.51C784.461 1665.47 789.52 1668.33 795.936 1670.38C795.841 1670.53 795.744 1670.68 795.647 1670.83L795.522 1671.03C793.033 1674.9 789.674 1680.15 787.586 1685.25C786.16 1681.21 783.672 1678.31 781.899 1676.48C780.566 1675.11 778.636 1673.41 777.339 1672.27C776.889 1671.87 776.515 1671.54 776.269 1671.32C774.755 1669.93 774.135 1669.17 773.853 1668.7C773.842 1668.68 773.832 1668.66 773.822 1668.65C773.952 1668.41 774.19 1668.01 774.611 1667.46C775.729 1665.99 777.462 1664.29 779.599 1662.57ZM801.293 1661.39C801.345 1661.19 801.39 1661.07 801.399 1661.07C801.408 1661.07 801.382 1661.17 801.293 1661.39ZM781.62 1702.91C782.803 1702.16 784.353 1700.97 785.705 1699.18C786.508 1703.2 788.69 1707.12 792.664 1709.95C797.589 1713.47 803.915 1714.94 808.19 1715.83C810.489 1716.31 812.439 1716.67 814.265 1717C816.838 1717.47 819.167 1717.9 821.887 1718.56C826.14 1719.59 828.693 1720.67 830.115 1721.69C831.027 1722.35 831.254 1722.75 831.365 1723.75C831.366 1723.76 831.368 1723.77 831.369 1723.79C831.149 1723.83 830.909 1723.88 830.647 1723.93C830.258 1724.01 829.824 1724.08 829.352 1724.17C822.913 1725.31 809.354 1727.72 802.206 1742.8C796.661 1754.51 798.121 1765.33 802.305 1774.49C805.711 1781.95 811.237 1788.88 815.651 1794.41C816.132 1795.02 816.601 1795.61 817.051 1796.17C822.206 1802.69 825.738 1807.6 827.391 1812.38C828.738 1816.27 828.911 1820.26 825.927 1825.73C824.814 1827.78 824.001 1828.51 823.667 1828.74C823.451 1828.74 822.614 1828.71 820.788 1827.98C819.059 1827.29 817.844 1826.63 816.283 1825.78C815.297 1825.24 814.173 1824.63 812.695 1823.89C811.39 1823.24 808.876 1822.01 806.037 1821.5C802.866 1820.93 796.297 1820.9 791.796 1826.85C786.38 1834.01 784.304 1841.37 784.457 1848.53C784.598 1855.14 786.669 1860.96 788.016 1864.73C789.45 1868.75 789.986 1870.38 790.126 1871.4C790.067 1871.46 789.997 1871.52 789.917 1871.59C789.645 1871.81 789.445 1871.96 789.308 1872.05C789.149 1872 788.921 1871.92 788.616 1871.78C787.872 1871.45 786.98 1870.97 785.695 1870.21C785.452 1870.06 785.165 1869.89 784.839 1869.69C782.662 1868.36 778.754 1865.98 774.788 1864.79C772.146 1864 768.883 1863.5 765.256 1864.08C761.557 1864.67 758.245 1866.26 755.389 1868.53C750.755 1872.23 747.085 1877.83 744.432 1882.13C742.905 1884.61 741.7 1886.67 740.556 1888.63C740.377 1888.93 740.2 1889.24 740.023 1889.54C740.188 1886.84 740.171 1883.95 739.874 1880.89C739.187 1873.8 736.56 1868.09 732.591 1863.61C728.871 1859.41 724.459 1856.87 721.298 1855.22C720.545 1854.83 719.89 1854.49 719.313 1854.2C720.711 1853.44 722.31 1852.63 724.131 1851.72C724.735 1851.42 725.367 1851.11 726.019 1850.79C728.543 1849.54 731.371 1848.15 734.059 1846.7C740.3 1843.34 749.122 1838.05 753.753 1829.61C756.326 1824.91 757.519 1819.43 756.607 1813.48C755.734 1807.77 753.061 1802.47 749.364 1797.54C743.079 1789.18 733.124 1787.71 727.05 1787.29C723.649 1787.06 720.162 1787.1 717.129 1787.15C716.647 1787.16 716.176 1787.16 715.716 1787.17C713.111 1787.22 710.839 1787.26 708.648 1787.2C704.424 1787.08 702.584 1786.57 701.931 1786.33C701.776 1785.6 701.658 1783.99 702.172 1780.91C703.74 1771.5 710.874 1766.71 725.773 1762.15C728.025 1761.46 730.762 1760.7 733.653 1759.89C738.555 1758.53 743.899 1757.05 748.064 1755.58C754.994 1753.12 763.908 1749.14 769.217 1740.99C771.064 1738.15 774.258 1731.78 770.805 1724.76C767.801 1718.65 761.855 1716.8 759.743 1716.22C756.932 1715.44 753.893 1715.13 751.539 1714.95C750.089 1714.83 748.328 1714.74 746.723 1714.65C745.886 1714.6 745.09 1714.55 744.403 1714.51C748.023 1711.64 753.193 1709.77 759.783 1708.4C762.148 1707.91 764.463 1707.52 766.796 1707.14C766.941 1707.12 767.087 1707.1 767.234 1707.07C769.312 1706.73 771.621 1706.36 773.631 1705.92C775.459 1705.51 778.731 1704.73 781.62 1702.91ZM831.432 1725.96C831.432 1725.96 831.434 1725.94 831.444 1725.9C831.438 1725.94 831.433 1725.96 831.432 1725.96ZM823.5 1828.82C823.499 1828.82 823.541 1828.79 823.632 1828.76C823.547 1828.81 823.502 1828.83 823.5 1828.82ZM790.447 1871.07C790.447 1871.07 790.444 1871.07 790.436 1871.08C790.443 1871.07 790.447 1871.07 790.447 1871.07ZM789.066 1872.19C789.067 1872.19 789.083 1872.18 789.114 1872.17C789.081 1872.19 789.066 1872.19 789.066 1872.19ZM702.12 1786.84C702.109 1786.85 702.057 1786.78 701.998 1786.59C702.102 1786.73 702.131 1786.83 702.12 1786.84ZM739.751 1720.52C739.75 1720.52 739.756 1720.5 739.771 1720.46C739.76 1720.5 739.752 1720.52 739.751 1720.52ZM773.751 1668.4C773.749 1668.43 773.748 1668.46 773.746 1668.49C773.743 1668.47 773.745 1668.46 773.747 1668.44C773.748 1668.43 773.75 1668.42 773.751 1668.4Z"
        stroke="#B53A25" stroke-width="25" stroke-linecap="round" stroke-linejoin="round" class="htQlthQL_59"></path>
    <path
        d="M816.553 1680.69C798.46 1679.15 792.574 1669.4 792.574 1669.4C792.574 1669.4 775.9 1677.75 775.599 1686.04C775.286 1694.65 786.435 1697.42 787.885 1703.01C789.336 1708.59 758.125 1703.23 748.827 1721.48C740.978 1736.89 781.012 1726.13 773.775 1736.4C764.261 1749.9 721.648 1743.79 717.008 1770.12C712.294 1796.87 748.939 1779.11 758.04 1790.23C777.243 1813.7 724.39 1815.94 728.024 1828.78C730.361 1837.04 746.953 1835.01 748.474 1848.77C750.111 1863.59 739.894 1870.94 748.304 1874.23C760.843 1879.14 769.032 1852.6 778.003 1846.03C786.975 1839.47 795.039 1857.37 806.755 1848.33C818.849 1839 797.488 1827.7 809.72 1812.78C812.72 1809.12 828.804 1827.77 838.748 1810.89C854.299 1784.47 807.152 1770.6 819.085 1747.25C826.594 1732.56 846.107 1744.42 844.014 1727.76C842.136 1712.81 816.07 1715.94 807.675 1710.41C798.901 1704.63 826.738 1681.56 816.553 1680.69Z"
        stroke="#B53A25" stroke-width="25" stroke-linecap="round" stroke-linejoin="round" class="htQlthQL_60"></path>
    <path
        d="M807.95 1703.74C794.744 1702.61 790.448 1695.5 790.448 1695.5C790.448 1695.5 778.279 1701.59 778.059 1707.64C777.831 1713.92 785.968 1715.95 787.026 1720.02C788.085 1724.1 765.306 1720.19 758.52 1733.51C752.791 1744.76 782.01 1736.9 776.728 1744.4C769.784 1754.25 738.683 1749.79 735.296 1769.01C731.856 1788.53 758.601 1775.57 765.244 1783.69C779.259 1800.81 740.684 1802.45 743.336 1811.82C745.042 1817.85 757.152 1816.37 758.262 1826.41C759.457 1837.22 752 1842.59 758.138 1844.99C767.289 1848.58 773.266 1829.2 779.814 1824.41C786.362 1819.62 792.247 1832.69 800.798 1826.09C809.625 1819.28 794.035 1811.03 802.962 1800.14C805.152 1797.47 816.891 1811.09 824.148 1798.76C835.499 1779.48 801.088 1769.36 809.797 1752.32C815.278 1741.59 829.519 1750.25 827.992 1738.09C826.621 1727.18 807.597 1729.46 801.47 1725.43C795.066 1721.21 815.383 1704.37 807.95 1703.74Z"
        stroke="#B53A25" stroke-width="25" stroke-linecap="round" stroke-linejoin="round" class="htQlthQL_61"></path>
    <path
        d="M796.477 1730.71C788.067 1730 785.331 1725.47 785.331 1725.47C785.331 1725.47 777.581 1729.35 777.441 1733.2C777.295 1737.2 782.478 1738.49 783.152 1741.09C783.826 1743.68 769.319 1741.19 764.997 1749.68C761.349 1756.84 779.957 1751.84 776.593 1756.61C772.171 1762.88 752.363 1760.04 750.207 1772.28C748.016 1784.72 765.049 1776.46 769.279 1781.63C778.205 1792.54 753.638 1793.58 755.327 1799.55C756.413 1803.39 764.126 1802.44 764.833 1808.84C765.594 1815.73 760.845 1819.14 764.754 1820.67C770.582 1822.96 774.388 1810.62 778.558 1807.57C782.729 1804.52 786.477 1812.84 791.923 1808.64C797.544 1804.3 787.616 1799.05 793.301 1792.11C794.696 1790.41 802.172 1799.08 806.794 1791.23C814.022 1778.95 792.107 1772.51 797.654 1761.65C801.145 1754.82 810.214 1760.34 809.242 1752.59C808.368 1745.64 796.253 1747.1 792.351 1744.53C788.272 1741.84 801.211 1731.12 796.477 1730.71Z"
        stroke="#B53A25" stroke-width="25" stroke-linecap="round" stroke-linejoin="round" class="htQlthQL_62"></path>
    <path
        d="M779.671 1737.92C772.711 1737.33 770.447 1733.58 770.447 1733.58C770.447 1733.58 764.034 1736.79 763.918 1739.98C763.798 1743.29 768.086 1744.36 768.644 1746.5C769.202 1748.65 757.197 1746.59 753.621 1753.61C750.602 1759.54 766 1755.4 763.217 1759.35C759.557 1764.54 743.166 1762.19 741.382 1772.32C739.569 1782.61 753.664 1775.78 757.164 1780.05C764.55 1789.08 744.221 1789.94 745.619 1794.88C746.518 1798.06 752.9 1797.28 753.485 1802.57C754.115 1808.27 750.185 1811.1 753.419 1812.36C758.242 1814.25 761.392 1804.04 764.843 1801.52C768.294 1798.99 771.395 1805.88 775.902 1802.4C780.554 1798.81 772.338 1794.47 777.042 1788.73C778.196 1787.32 784.383 1794.49 788.207 1788C794.189 1777.84 776.055 1772.5 780.645 1763.52C783.533 1757.87 791.038 1762.43 790.233 1756.03C789.511 1750.27 779.485 1751.48 776.256 1749.35C772.881 1747.13 783.588 1738.25 779.671 1737.92Z"
        stroke="#B53A25" stroke-width="25" stroke-linecap="round" stroke-linejoin="round" class="htQlthQL_63"></path>
    <path d="M725 1488.01C725 1488.01 825 1541.01 800.192 1763.82C791.452 1842.32 714 1942.51 714 1942.51"
        stroke="#8D1202" stroke-width="7" stroke-linecap="round" stroke-linejoin="round" class="htQlthQL_64"></path>
    <path d="M802.081 1670.5C802.081 1670.5 780.953 1686.28 765 1689.01C748.725 1691.79 723.081 1683.5 723.081 1683.5"
        stroke="#8D1202" stroke-width="5" stroke-linecap="round" stroke-linejoin="round" class="htQlthQL_65"></path>
    <path
        d="M803.987 1687.01C803.987 1687.01 818.627 1701.72 830.095 1703.71C841.795 1705.73 860.799 1696.35 860.799 1696.35"
        stroke="#8D1202" stroke-width="5" stroke-linecap="round" stroke-linejoin="round" class="htQlthQL_66"></path>
    <path d="M802.5 1719.51C802.5 1719.51 756 1763.01 731 1768.51C714.874 1772.05 676 1768.51 676 1768.51"
        stroke="#8D1202" stroke-width="5" stroke-linecap="round" stroke-linejoin="round" class="htQlthQL_67"></path>
    <path
        d="M802.28 1760.01C802.28 1760.01 825.042 1807.52 839.5 1817.01C848.825 1823.12 867.431 1827.42 867.431 1827.42"
        stroke="#8D1202" stroke-width="5" stroke-linecap="round" stroke-linejoin="round" class="htQlthQL_68"></path>
    <path
        d="M781.351 1825.23C781.351 1825.23 737.059 1865.32 717 1870.01C704.061 1873.03 680.515 1870.01 680.515 1870.01"
        stroke="#8D1202" stroke-width="5" stroke-linecap="round" stroke-linejoin="round" class="htQlthQL_69"></path>
    <path d="M788 1812.51C788 1812.51 783.002 1860.55 788 1880.51C791.224 1893.38 808.647 1905.45 808.647 1905.45"
        stroke="#8D1202" stroke-width="5" stroke-linecap="round" stroke-linejoin="round" class="htQlthQL_70"></path>
</svg>