<svg width="100" height="70" viewBox="0 0 119 70" fill="none" xmlns="http://www.w3.org/2000/svg">
<g clip-path="url(#clip0)">
<path d="M9.32935 0.697266H0V10.0266H9.32935V0.697266Z" fill="#91A88C"/>
<path d="M9.09697 49.3028V15.7039H0.265625V49.3028H9.09697ZM67.7955 49.6348V41.4011C66.5007 41.4011 65.4051 41.3347 64.6083 41.2019C63.6786 41.0691 62.9814 40.7371 62.5166 40.2722C62.0518 39.8074 61.753 39.1434 61.587 38.2802C61.4542 37.4502 61.3878 36.3546 61.3878 35.0266V23.2736H67.7955V15.7039H61.3878V2.58964H52.5233V35.093C52.5233 37.8486 52.7557 40.1726 53.2205 42.0319C53.6853 43.8579 54.4821 45.3519 55.5777 46.4807C56.6733 47.6096 58.1342 48.4064 59.8938 48.9044C61.6866 49.4024 63.9442 49.6348 66.6335 49.6348H67.7955ZM118.526 49.3028V0H109.661V49.3028H118.526ZM43.9907 18.9907C41.5339 16.3347 38.081 15.0066 33.6986 15.0066C31.5737 15.0066 29.6481 15.4382 27.8885 16.3015C26.162 17.1647 24.668 18.3599 23.506 19.8871L23.008 20.5179V19.9535V15.7039H14.2762V49.3028H23.0744V31.4077V32.6361C23.0744 32.4369 23.0744 32.2377 23.0744 32.0385C23.174 28.8845 23.9376 26.5604 25.3984 25.0664C26.9589 23.4728 28.8513 22.676 31.0093 22.676C33.5658 22.676 35.5246 23.4728 36.8194 25C38.081 26.5272 38.745 28.6853 38.745 31.4409V31.5073V49.2696H47.676V30.2125C47.7092 25.4316 46.4476 21.6467 43.9907 18.9907ZM105.08 32.4369C105.08 30.0133 104.648 27.7556 103.818 25.6308C102.955 23.5392 101.76 21.6799 100.266 20.0863C98.7384 18.4927 96.9124 17.2643 94.7875 16.3679C92.6627 15.4714 90.3055 15.0398 87.749 15.0398C85.3254 15.0398 83.0345 15.5046 80.9097 16.4011C78.7849 17.3307 76.9257 18.5591 75.3652 20.1195C73.8048 21.6799 72.5432 23.5392 71.6468 25.664C70.7172 27.7888 70.2855 30.0797 70.2855 32.5033C70.2855 34.927 70.7172 37.2178 71.5804 39.3426C72.4436 41.4675 73.672 43.3267 75.1992 44.8871C76.7264 46.4475 78.6189 47.7092 80.8101 48.6056C83.0014 49.5352 85.425 50 88.0146 50C95.5179 50 100.166 46.5803 102.955 43.3931L96.5804 38.5458C95.2523 40.1394 92.0651 42.2975 88.081 42.2975C85.591 42.2975 83.5326 41.7331 81.9721 40.571C80.4117 39.4422 79.3493 37.8486 78.7849 35.8898L78.6853 35.591H105.08V32.4369ZM78.7517 29.3493C78.7517 26.8924 81.5737 22.6096 87.6494 22.5764C93.7251 22.5764 96.5804 26.8592 96.5804 29.3161L78.7517 29.3493Z" fill="#91A88C"/>
</g>
<defs>
<clipPath id="clip0">
<rect width="118.526" height="50" fill="white"/>
</clipPath>
</defs>
</svg>
